<svg width="20" height="20" viewBox="0 0 20 20" fill="none" xmlns="http://www.w3.org/2000/svg">
<path d="M4.82548 7.73797C4.5862 7.57924 4.2871 7.49988 4.00794 7.59908C3.68889 7.69829 3.42967 7.93639 3.25021 8.21416C2.99099 8.61099 2.83147 9.08718 2.77164 9.56337C2.67194 10.2578 2.7517 10.9919 3.01093 11.6665C3.17045 12.0237 3.38979 12.3808 3.72877 12.5991C3.988 12.7578 4.32698 12.7975 4.62608 12.6784C4.90524 12.5594 5.10465 12.3411 5.26417 12.103C5.52339 11.7062 5.66297 11.23 5.74273 10.7538C5.84243 10.0396 5.76267 9.28559 5.48351 8.63083C5.34393 8.27369 5.14453 7.95623 4.82548 7.73797Z" fill="#26293C"/>
<path d="M9.98999 0.0799255C4.4865 0.0799255 0.0198975 4.52437 0.0198975 10.0006C0.0198975 15.4767 4.4865 19.9212 9.98999 19.9212C15.4935 19.9212 19.9601 15.4767 19.9601 10.0006C19.9601 4.52437 15.4935 0.0799255 9.98999 0.0799255ZM7.33794 11.3299C7.09866 12.1633 6.60016 12.9172 5.90225 13.4133C5.42369 13.7307 4.86536 13.9291 4.2871 13.9291C3.66895 13.9291 3.07074 13.7307 2.59218 13.3736C1.81451 12.8379 1.33595 12.0045 1.13655 11.1117C0.897265 10.0998 1.03685 8.98865 1.55529 8.07596C1.89427 7.48072 2.37284 6.96484 2.99098 6.66723C3.27015 6.52834 3.58919 6.42913 3.90823 6.38945C4.52638 6.31008 5.16446 6.44897 5.70285 6.76643C6.40075 7.16326 6.9192 7.83786 7.19836 8.57199C7.55729 9.445 7.59717 10.4371 7.33794 11.3299ZM8.27513 11.7069C8.03585 11.7069 7.83645 11.4887 7.85639 11.2506C7.85639 9.42516 7.85639 7.61961 7.85639 5.79421C7.85639 5.5958 7.99597 5.41723 8.19537 5.3577C8.45459 5.31802 8.73376 5.3577 8.99298 5.33786C9.1525 5.33786 9.33196 5.31802 9.49148 5.37754C9.651 5.43707 9.77065 5.61564 9.77065 5.79421C9.77065 7.06405 9.77065 8.33389 9.77065 9.60373C9.77065 9.72278 9.75071 9.86167 9.83047 9.96088C9.89029 10.0204 9.97005 10.0204 10.0498 10.0204C10.5483 10.0204 11.0269 10.0204 11.5254 10.0204C11.7846 9.98072 12.0239 10.2188 12.0039 10.4767C12.0039 10.7545 12.0039 11.0323 12.0039 11.3101C12.0039 11.5283 11.7846 11.7267 11.5653 11.7069C10.4686 11.7069 9.37184 11.7069 8.27513 11.7069ZM18.1256 14.0482C17.667 14.2466 17.1685 14.3458 16.6899 14.445C16.3708 14.5045 16.0319 14.3061 15.8923 14.0283C15.4935 13.1752 15.0349 12.3418 14.6161 11.5085C14.0977 12.2625 13.5992 13.0363 13.0807 13.8101C12.981 13.949 12.8614 14.068 12.7019 14.1474C12.6022 14.1871 12.4825 14.1871 12.3828 14.1275C12.2831 14.068 12.2233 13.9688 12.1435 13.8696C11.9641 13.6315 11.8045 13.3736 11.665 13.1355C11.5254 12.9172 11.5453 12.6196 11.6251 12.3815C11.6849 12.1633 11.8245 11.9648 11.984 11.8061C12.5623 11.1514 13.1405 10.4966 13.7188 9.84183C13.32 9.06802 12.9212 8.31405 12.5224 7.54024C12.4027 7.32199 12.3629 7.08389 12.3828 6.8458C12.3828 6.66723 12.4825 6.46881 12.642 6.36961C12.8813 6.23072 13.2004 6.21088 13.4596 6.34977C13.5792 6.40929 13.6789 6.52834 13.7587 6.64738C14.1575 7.24262 14.5563 7.81802 14.9551 8.41326C15.5134 7.77834 16.0717 7.14342 16.65 6.5085C16.8295 6.31008 17.0688 6.17119 17.3479 6.15135C17.4676 6.15135 17.5872 6.19104 17.6869 6.21088C17.7866 6.40929 17.8265 6.64738 17.7667 6.86564C17.6869 7.22278 17.4676 7.5204 17.2283 7.77834C16.8295 8.27437 16.4705 8.79024 16.1116 9.30612C16.0319 9.42516 15.9521 9.52437 15.8723 9.64342C15.8325 9.6831 15.8723 9.72278 15.8923 9.76246C16.65 10.8537 17.3878 11.945 18.1256 13.0363C18.2652 13.2347 18.4247 13.4529 18.4047 13.7109C18.3848 13.8696 18.2652 13.9887 18.1256 14.0482Z" fill="#26293C"/>
</svg>
