<svg width="141" height="68" viewBox="0 0 141 68" fill="none" xmlns="http://www.w3.org/2000/svg">
<path d="M3.17383 40.2295V34.9805H16.1377V40.2295H3.17383ZM29.6875 55V22.8467L24.0479 25.1904V18.9648C25.3174 18.3626 26.7334 17.6302 28.2959 16.7676C29.8584 15.8887 30.9326 15.14 31.5186 14.5215H38.0859V55H29.6875ZM59.1797 55.7324C55.6152 55.7324 52.8809 54.6826 50.9766 52.583C49.0723 50.4834 48.1201 47.6676 48.1201 44.1357V25.7764C48.1201 22.098 49.0397 19.2008 50.8789 17.085C52.7344 14.9691 55.5013 13.9111 59.1797 13.9111C62.8255 13.9111 65.568 14.9772 67.4072 17.1094C69.2627 19.2253 70.1904 22.1143 70.1904 25.7764V44.1357C70.1904 47.6351 69.2301 50.4427 67.3096 52.5586C65.389 54.6745 62.679 55.7324 59.1797 55.7324ZM56.6895 43.916C56.6895 46.8457 57.5195 48.3105 59.1797 48.3105C60.8398 48.3105 61.6699 46.8457 61.6699 43.916V26.0205C61.6699 25.6299 61.6618 25.3206 61.6455 25.0928C61.6455 24.8486 61.6211 24.515 61.5723 24.0918C61.5397 23.6686 61.4665 23.3268 61.3525 23.0664C61.2386 22.7897 61.0921 22.513 60.9131 22.2363C60.7503 21.9434 60.5143 21.7318 60.2051 21.6016C59.9121 21.4551 59.5703 21.3818 59.1797 21.3818C58.8704 21.3818 58.5856 21.4225 58.3252 21.5039C58.0811 21.569 57.8695 21.6992 57.6904 21.8945C57.5277 22.0736 57.3812 22.2445 57.251 22.4072C57.137 22.5537 57.0394 22.7816 56.958 23.0908C56.8929 23.4001 56.8359 23.6361 56.7871 23.7988C56.7546 23.9616 56.7301 24.2301 56.7139 24.6045C56.6976 24.9788 56.6895 25.223 56.6895 25.3369C56.6895 25.4346 56.6895 25.6624 56.6895 26.0205V43.916ZM102.148 55L114.453 14.5215H119.067L106.763 55H102.148ZM124.146 55.0732C120.76 55.0732 118.327 54.1943 116.846 52.4365C115.365 50.6787 114.624 47.9525 114.624 44.2578V42.5488C114.624 38.8053 115.34 36.1117 116.772 34.4678C118.221 32.8076 120.679 31.9775 124.146 31.9775C127.612 31.9775 130.07 32.7995 131.519 34.4434C132.983 36.071 133.716 38.7402 133.716 42.4512V44.3066C133.716 47.985 132.967 50.7031 131.47 52.4609C129.989 54.2025 127.547 55.0732 124.146 55.0732ZM122.852 49.5557C123.21 49.7347 123.641 49.8242 124.146 49.8242C124.65 49.8242 125.073 49.7347 125.415 49.5557C125.773 49.3766 126.05 49.1488 126.245 48.8721C126.44 48.5791 126.587 48.1641 126.685 47.627C126.799 47.0736 126.864 46.5446 126.88 46.04C126.912 45.5192 126.929 44.8275 126.929 43.9648V42.7441C126.929 41.8327 126.921 41.1491 126.904 40.6934C126.888 40.2376 126.831 39.7493 126.733 39.2285C126.636 38.6914 126.489 38.3089 126.294 38.0811C126.099 37.8532 125.822 37.666 125.464 37.5195C125.122 37.3568 124.683 37.2754 124.146 37.2754C123.608 37.2754 123.161 37.3568 122.803 37.5195C122.461 37.666 122.192 37.8613 121.997 38.1055C121.802 38.3333 121.655 38.7077 121.558 39.2285C121.476 39.7331 121.419 40.2214 121.387 40.6934C121.37 41.1654 121.362 41.8408 121.362 42.7197V43.9893C121.362 44.8519 121.37 45.5436 121.387 46.0645C121.419 46.569 121.484 47.098 121.582 47.6514C121.696 48.1885 121.851 48.5954 122.046 48.8721C122.241 49.1488 122.51 49.3766 122.852 49.5557ZM104.419 34.9316C102.938 36.6732 100.496 37.5439 97.0947 37.5439C93.693 37.5439 91.2516 36.665 89.7705 34.9072C88.3057 33.1494 87.5732 30.4232 87.5732 26.7285V25.0195C87.5732 21.276 88.2894 18.5824 89.7217 16.9385C91.1702 15.2783 93.6279 14.4482 97.0947 14.4482C100.562 14.4482 103.019 15.2702 104.468 16.9141C105.933 18.5417 106.665 21.2109 106.665 24.9219V26.7773C106.665 30.4557 105.916 33.1738 104.419 34.9316ZM95.8008 32.0264C96.1589 32.2054 96.5902 32.2949 97.0947 32.2949C97.5993 32.2949 98.0225 32.2054 98.3643 32.0264C98.7223 31.8473 98.999 31.6195 99.1943 31.3428C99.3896 31.0498 99.5361 30.6348 99.6338 30.0977C99.7477 29.5443 99.8128 29.0153 99.8291 28.5107C99.8617 27.9899 99.8779 27.2982 99.8779 26.4355V25.2148C99.8779 24.3034 99.8698 23.6198 99.8535 23.1641C99.8372 22.7083 99.7803 22.2201 99.6826 21.6992C99.585 21.1621 99.4385 20.7796 99.2432 20.5518C99.0479 20.3239 98.7712 20.1367 98.4131 19.9902C98.0713 19.8275 97.6318 19.7461 97.0947 19.7461C96.5576 19.7461 96.11 19.8275 95.752 19.9902C95.4102 20.1367 95.1416 20.332 94.9463 20.5762C94.751 20.804 94.6045 21.1784 94.5068 21.6992C94.4255 22.2038 94.3685 22.6921 94.3359 23.1641C94.3197 23.6361 94.3115 24.3115 94.3115 25.1904V26.46C94.3115 27.3226 94.3197 28.0143 94.3359 28.5352C94.3685 29.0397 94.4336 29.5687 94.5312 30.1221C94.6452 30.6592 94.7998 31.0661 94.9951 31.3428C95.1904 31.6195 95.459 31.8473 95.8008 32.0264Z" fill="white"/>
<path d="M137.85 13.8828L137.598 16.1973L139.93 15.5469L140.082 16.6133L137.85 16.7949L139.303 18.7051L138.295 19.2559L137.264 17.1348L136.326 19.2559L135.295 18.7051L136.713 16.7949L134.504 16.6133L134.674 15.5469L136.965 16.1973L136.713 13.8828H137.85Z" fill="white"/>
</svg>
