<svg width="24" height="42" viewBox="0 0 24 42" fill="none" xmlns="http://www.w3.org/2000/svg">
<path d="M0.953125 42V36.0918L10.5479 21.1748C10.7106 20.9144 11.028 20.4342 11.5 19.7344C11.972 19.0345 12.3138 18.5055 12.5254 18.1475C12.7533 17.7894 13.0462 17.2848 13.4043 16.6338C13.7786 15.9665 14.0553 15.3968 14.2344 14.9248C14.4134 14.4528 14.5762 13.9157 14.7227 13.3135C14.8691 12.695 14.9424 12.1009 14.9424 11.5312C14.9424 10.2617 14.6657 9.31771 14.1123 8.69922C13.6729 8.21094 13.1032 7.97493 12.4033 7.99121C12.2243 7.99121 12.029 8.00749 11.8174 8.04004C10.8571 8.17025 10.1491 8.68294 9.69336 9.57812C9.25391 10.4733 9.03418 11.8161 9.03418 13.6064V15.5596H0.928711V13.46C0.928711 11.6208 1.1403 9.96061 1.56348 8.47949C1.98665 6.9821 2.6377 5.6556 3.5166 4.5C4.39551 3.3444 5.56738 2.45736 7.03223 1.83887C8.51335 1.2041 10.2386 0.886719 12.208 0.886719C15.805 0.886719 18.5394 1.83073 20.4111 3.71875C22.2829 5.59049 23.2188 8.22721 23.2188 11.6289C23.2188 12.1335 23.1862 12.6462 23.1211 13.167C23.056 13.6715 22.9827 14.1354 22.9014 14.5586C22.8363 14.9655 22.7061 15.4294 22.5107 15.9502C22.3317 16.471 22.1852 16.8942 22.0713 17.2197C21.9574 17.529 21.7539 17.9603 21.4609 18.5137C21.168 19.0508 20.9564 19.4414 20.8262 19.6855C20.7122 19.9134 20.4681 20.3203 20.0938 20.9062C19.7194 21.4759 19.4753 21.8503 19.3613 22.0293C19.2474 22.1921 18.9707 22.5908 18.5312 23.2256C18.1081 23.8604 17.8477 24.2428 17.75 24.373L10.3525 35.4326H22.0957V42H0.953125Z" fill="#505269"/>
</svg>
