<svg width="240" height="80" viewBox="0 0 240 80" fill="none" xmlns="http://www.w3.org/2000/svg">
<g clip-path="url(#clip0)">
<path d="M234.77 28.9282C235.448 28.9282 236.029 28.457 236.126 27.7974L239.806 0.376953L215.884 15.3593C215.303 15.7362 215.109 16.5843 215.496 17.1496C215.884 17.715 216.756 17.9035 217.337 17.5265L236.417 5.65375L233.414 27.5148C233.317 28.2686 233.802 28.9282 234.576 29.0224C234.576 28.9282 234.673 28.9282 234.77 28.9282Z" fill="#505269"/>
<path d="M227.409 21.3899C227.797 21.3899 228.087 21.2956 228.378 21.0129C228.475 20.9187 228.571 20.7303 228.668 20.5418C228.765 20.3533 228.765 20.2591 228.765 20.0707C228.765 19.6937 228.668 19.4111 228.378 19.1284C228.281 19.0341 228.281 19.0342 228.184 18.9399C228.087 18.8457 227.99 18.8457 227.99 18.8457C227.893 18.8457 227.797 18.7515 227.7 18.7515C227.506 18.7515 227.312 18.7515 227.216 18.7515C227.119 18.7515 227.022 18.7515 226.925 18.8457C226.828 18.8457 226.731 18.9399 226.731 18.9399C226.634 18.9399 226.634 19.0341 226.538 19.1284C226.247 19.4111 226.15 19.6937 226.15 20.0707C226.15 20.2591 226.15 20.4476 226.247 20.5418C226.344 20.7303 226.441 20.8245 226.538 21.0129C226.731 21.2014 227.022 21.3899 227.409 21.3899Z" fill="#505269"/>
<path d="M121.065 78.4923C121.065 77.7385 120.484 77.1731 119.709 77.1731C118.935 77.1731 118.353 77.7385 118.353 78.4923C118.353 79.2462 118.935 79.8115 119.709 79.8115C120.484 79.8115 121.065 79.1519 121.065 78.4923ZM125.521 78.3981C125.521 77.6443 124.939 77.0789 124.165 77.0789C123.39 77.0789 122.809 77.6443 122.809 78.3981C122.809 79.1519 123.39 79.7173 124.165 79.6231C124.939 79.7173 125.521 79.1519 125.521 78.3981ZM116.61 78.3981C116.61 77.6443 116.029 77.0789 115.351 77.0789C114.576 77.0789 113.995 77.6443 113.995 78.3039C113.995 79.0577 114.576 79.6231 115.254 79.6231C115.254 79.6231 115.254 79.6231 115.351 79.6231C115.932 79.6231 116.513 79.0577 116.61 78.3981ZM129.976 78.3039C129.976 77.55 129.298 77.0789 128.62 77.0789C127.845 77.0789 127.264 77.7385 127.361 78.4923C127.361 79.2462 128.039 79.8115 128.717 79.7173C129.492 79.6231 130.073 78.9635 129.976 78.3039ZM112.155 78.2097C112.155 77.4558 111.671 76.8905 110.896 76.7962C110.121 76.702 109.54 77.2674 109.443 78.0212C109.443 78.775 109.927 79.3404 110.702 79.4346H110.799C111.477 79.4346 112.058 78.8693 112.155 78.2097ZM133.269 79.3404C134.044 79.2462 134.528 78.6808 134.528 77.927C134.431 77.1731 133.85 76.702 133.075 76.702C132.3 76.7962 131.816 77.3616 131.816 78.1154C131.816 78.775 132.494 79.3404 133.172 79.3404C133.172 79.3404 133.172 79.3404 133.269 79.3404ZM107.603 77.8327C107.7 77.0789 107.119 76.5135 106.441 76.4193C105.666 76.3251 105.085 76.8905 104.988 77.5501C104.891 78.3039 105.472 78.8693 106.15 78.9635H106.247C107.022 79.0577 107.603 78.4923 107.603 77.8327ZM137.724 78.9635C138.499 78.8693 138.983 78.2097 138.886 77.5501C138.789 76.7962 138.111 76.3251 137.433 76.4193C136.659 76.5135 136.174 77.1731 136.271 77.8327C136.368 78.4923 136.949 78.9635 137.627 78.9635C137.627 78.9635 137.627 78.9635 137.724 78.9635ZM103.245 77.3616C103.341 76.6078 102.857 76.0424 102.082 75.9482C101.307 75.8539 100.63 76.4193 100.63 77.0789C100.533 77.8327 101.114 78.4923 101.792 78.4923C101.792 78.4923 101.889 78.4923 101.985 78.4923C102.567 78.5866 103.148 78.0212 103.245 77.3616ZM142.179 78.3981C142.954 78.3039 143.438 77.6443 143.341 76.8904C143.245 76.1366 142.567 75.6655 141.792 75.7597C141.017 75.8539 140.533 76.5135 140.63 77.2674C140.726 77.927 141.307 78.3981 141.985 78.3981C142.082 78.3981 142.082 78.3981 142.179 78.3981ZM98.7893 76.7962C98.8862 76.0424 98.4019 75.3828 97.6271 75.2886C96.8523 75.1943 96.1743 75.6655 96.0775 76.4193C95.9806 77.1731 96.4649 77.8327 97.2397 77.927C97.3365 77.927 97.3365 77.927 97.4334 77.927C98.1114 77.927 98.6925 77.4558 98.7893 76.7962ZM146.634 77.6443C147.409 77.5501 147.893 76.7962 147.7 76.1366C147.603 75.3828 146.828 74.9117 146.15 75.1001C145.375 75.1943 144.891 75.9482 145.085 76.6078C145.182 77.2674 145.763 77.6443 146.441 77.6443C146.538 77.6443 146.538 77.6443 146.634 77.6443ZM94.3341 76.1366C94.431 75.3828 93.9467 74.7232 93.2688 74.629C92.4939 74.5347 91.816 75.0059 91.7191 75.6655C91.6223 76.4193 92.1065 77.0789 92.7845 77.1731C92.8813 77.1731 92.9782 77.1731 92.9782 77.1731C93.6562 77.2674 94.2373 76.7962 94.3341 76.1366ZM151.09 76.7962C151.864 76.6078 152.252 75.9482 152.155 75.2886C151.961 74.5347 151.283 74.1578 150.605 74.2521C149.83 74.4405 149.443 75.1001 149.54 75.8539C149.637 76.4193 150.218 76.8904 150.896 76.8904C150.896 76.7962 150.993 76.7962 151.09 76.7962ZM89.9758 75.3828C90.1695 74.629 89.6852 73.9694 88.9104 73.8751C88.2324 73.7809 87.4576 74.1578 87.3607 74.9117C87.2639 75.6655 87.6513 76.3251 88.4261 76.4193C88.523 76.4193 88.6198 76.4193 88.7167 76.4193C89.2978 76.4193 89.7821 76.0424 89.9758 75.3828ZM155.448 75.7597C156.126 75.5713 156.61 74.8174 156.416 74.1578C156.223 73.4982 155.448 73.0271 154.77 73.2155C154.092 73.404 153.608 74.1578 153.801 74.8174C153.995 75.3828 154.479 75.7597 155.061 75.7597C155.254 75.7597 155.351 75.7597 155.448 75.7597ZM85.5206 74.5347C85.7143 73.8751 85.23 73.1213 84.552 73.0271C83.7772 72.8386 83.0993 73.3098 82.9055 73.9694C82.7119 74.7232 83.1961 75.3828 83.8741 75.477C83.9709 75.477 84.0678 75.477 84.1646 75.477C84.8426 75.5713 85.4237 75.1001 85.5206 74.5347ZM159.806 74.5347C160.484 74.3463 160.872 73.5925 160.678 72.9329C160.484 72.2733 159.709 71.8021 159.031 72.0848C158.353 72.2733 157.966 73.0271 158.16 73.6867C158.353 74.2521 158.838 74.629 159.419 74.629C159.613 74.629 159.709 74.629 159.806 74.5347ZM81.1622 73.5925C81.3559 72.9329 80.8717 72.179 80.1937 71.9906C79.4189 71.8021 78.7409 72.2733 78.5472 72.9329C78.3535 73.5925 78.8378 74.3463 79.5157 74.5347C79.6126 74.5347 79.7094 74.5347 79.8063 74.5347C80.4843 74.5347 81.0654 74.1578 81.1622 73.5925ZM76.9007 72.5559C77.0944 71.8963 76.707 71.1425 75.9322 70.9541C75.2542 70.7656 74.4794 71.1425 74.2857 71.8963C74.092 72.5559 74.4794 73.3098 75.2542 73.4982C75.3511 73.4982 75.4479 73.4982 75.6416 73.4982C76.1259 73.4982 76.707 73.1213 76.9007 72.5559ZM164.165 73.2155C164.843 72.9329 165.23 72.2733 165.036 71.5194C164.746 70.8598 164.068 70.4829 163.293 70.6714C162.615 70.9541 162.228 71.6137 162.421 72.3675C162.615 72.9329 163.099 73.2155 163.68 73.2155C163.874 73.3098 163.971 73.3098 164.165 73.2155ZM72.5424 71.4252C72.7361 70.7656 72.3486 70.0118 71.6707 69.8233C70.9927 69.6349 70.2179 70.0118 70.0242 70.6714C69.8305 71.331 70.2179 72.0848 70.9927 72.2733C71.0896 72.2733 71.2833 72.2733 71.3801 72.2733C71.8644 72.3675 72.3486 71.9906 72.5424 71.4252ZM168.426 71.7079C169.104 71.4252 169.492 70.6714 169.201 70.0118C168.91 69.3522 168.136 68.9753 167.458 69.2579C166.78 69.5406 166.392 70.2945 166.683 70.9541C166.876 71.5194 167.361 71.8021 167.942 71.8021C168.039 71.8021 168.232 71.8021 168.426 71.7079ZM68.2809 70.2002C68.4745 69.5406 68.0872 68.7868 67.4092 68.5983C66.7312 68.4099 65.9564 68.7868 65.7627 69.4464C65.569 70.106 65.9564 70.8598 66.6344 71.0483C66.7312 71.0483 66.9249 71.1425 67.0218 71.1425C67.506 71.0483 68.0871 70.7656 68.2809 70.2002ZM172.591 70.106C173.269 69.8233 173.559 69.0695 173.269 68.4099C172.978 67.7503 172.203 67.4676 171.525 67.7503C170.847 68.033 170.557 68.7868 170.847 69.4464C171.041 69.9175 171.525 70.2002 172.107 70.2002C172.203 70.2002 172.397 70.106 172.591 70.106ZM64.0193 68.881C64.2131 68.2214 63.8256 67.4676 63.1477 67.2791C62.4697 67.0907 61.6949 67.4676 61.4043 68.1272C61.2106 68.7868 61.598 69.5406 62.276 69.7291C62.3729 69.7291 62.5666 69.8233 62.6634 69.8233C63.2445 69.7291 63.8257 69.4464 64.0193 68.881ZM59.7578 67.4676C60.0484 66.808 59.661 66.0542 58.8862 65.7715C58.2082 65.4888 57.4334 65.8657 57.1428 66.5253C56.9491 67.1849 57.2397 67.9387 58.0145 68.2214C58.2082 68.3157 58.3051 68.3157 58.4988 68.3157C58.983 68.4099 59.5641 68.033 59.7578 67.4676ZM176.659 68.2214C177.337 67.9387 177.627 67.0907 177.24 66.5253C176.949 65.8657 176.174 65.583 175.496 65.8657C174.818 66.1484 174.528 66.9965 174.818 67.5618C175.012 68.033 175.496 68.3157 176.077 68.3157C176.271 68.4099 176.465 68.3157 176.659 68.2214ZM55.4964 66.0542C55.7869 65.3946 55.3995 64.6408 54.7215 64.3581C54.0436 64.0754 53.2687 64.4523 52.9782 65.1119C52.6876 65.7715 53.075 66.5253 53.753 66.808C53.8499 66.808 54.0436 66.9022 54.2373 66.9022C54.8184 66.9022 55.3026 66.6195 55.4964 66.0542ZM180.726 66.2426C181.404 65.8657 181.598 65.1119 181.307 64.4523C180.92 63.7927 180.145 63.6042 179.467 63.8869C178.789 64.1696 178.596 65.0177 178.886 65.6773C179.08 66.1484 179.564 66.3369 180.048 66.3369C180.339 66.4311 180.533 66.3369 180.726 66.2426ZM51.3317 64.5465C51.6223 63.8869 51.2348 63.1331 50.5569 62.8504C49.8789 62.5677 49.1041 62.9446 48.8136 63.6042C48.523 64.2638 48.9104 65.0177 49.5883 65.3004C49.7821 65.3946 49.8789 65.3946 50.0726 65.3946C50.6537 65.3946 51.138 65.0177 51.3317 64.5465ZM184.697 64.1696C185.375 63.7927 185.569 63.0389 185.182 62.3793C184.794 61.7197 184.019 61.5312 183.341 61.9081C182.663 62.285 182.47 63.0389 182.857 63.6985C183.148 64.0754 183.535 64.3581 184.019 64.3581C184.31 64.3581 184.504 64.2638 184.697 64.1696ZM47.167 62.9446C47.4576 62.285 47.0702 61.5312 46.3922 61.2485C45.7143 60.9658 44.9395 61.3428 44.6489 62.0024C44.3583 62.662 44.7457 63.4158 45.4237 63.6985C45.6174 63.7927 45.7143 63.7927 45.908 63.7927C46.3922 63.7927 46.9733 63.51 47.167 62.9446ZM43.0024 61.3428C43.293 60.6832 43.0024 59.9293 42.3244 59.6466C41.6465 59.364 40.8717 59.6466 40.5811 60.3062C40.2905 60.9658 40.5811 61.7197 41.2591 62.0024C41.4528 62.0966 41.6465 62.0966 41.7433 62.0966C42.3244 62.0966 42.8087 61.8139 43.0024 61.3428ZM188.571 61.9081C189.153 61.5312 189.346 60.6832 188.959 60.1178C188.571 59.5524 187.7 59.364 187.119 59.7409C186.538 60.1178 186.344 60.9658 186.731 61.5312C187.022 61.9081 187.409 62.1908 187.893 62.1908C188.087 62.0966 188.378 62.0023 188.571 61.9081ZM38.8378 59.6466C39.1283 58.987 38.8378 58.2332 38.1598 57.9505C37.4818 57.6678 36.707 57.9505 36.4164 58.6101C36.1259 59.2697 36.4164 60.0236 37.0944 60.3062C37.2881 60.4005 37.4818 60.4005 37.6755 60.4005C38.1598 60.4005 38.6441 60.1178 38.8378 59.6466ZM192.349 59.4582C192.93 59.0813 193.123 58.2332 192.736 57.6678C192.349 57.1025 191.477 56.914 190.896 57.2909C190.315 57.6678 190.121 58.5159 190.508 59.0813C190.799 59.4582 191.186 59.6466 191.574 59.6466C191.864 59.6466 192.155 59.6466 192.349 59.4582ZM34.77 57.8563C35.0605 57.1967 34.7699 56.4429 34.092 56.1602C33.414 55.8775 32.6392 56.1602 32.3486 56.8198C32.0581 57.4794 32.3486 58.2332 33.0266 58.5159C33.2203 58.6101 33.414 58.6101 33.6077 58.6101C34.092 58.6101 34.5763 58.3274 34.77 57.8563ZM196.029 56.914C196.61 56.4429 196.804 55.689 196.32 55.1237C195.835 54.5583 195.061 54.4641 194.479 54.841C193.898 55.3121 193.801 56.066 194.189 56.6313C194.479 57.0082 194.867 57.1967 195.254 57.1967C195.545 57.1967 195.835 57.1025 196.029 56.914ZM30.7021 56.066C30.9927 55.4064 30.7022 54.6525 30.0242 54.3698C29.3462 54.0872 28.5714 54.3698 28.2809 55.0294C27.9903 55.689 28.2809 56.4429 28.9588 56.7256C29.1525 56.8198 29.3462 56.8198 29.5399 56.8198C30.0242 56.8198 30.5085 56.5371 30.7021 56.066ZM26.6344 54.1814C26.9249 53.5218 26.6344 52.768 26.0533 52.4853C25.3753 52.2026 24.6005 52.4853 24.3099 53.0506C24.0193 53.7102 24.3099 54.4641 24.891 54.841C25.0847 54.9352 25.2784 54.9352 25.4721 54.9352C25.9564 54.9352 26.4407 54.6525 26.6344 54.1814ZM199.613 54.1814C200.194 53.7102 200.291 52.9564 199.806 52.391C199.322 51.8257 198.547 51.7314 197.966 52.2026C197.385 52.6737 197.288 53.4276 197.772 53.9929C198.063 54.2756 198.45 54.4641 198.838 54.4641C199.128 54.4641 199.419 54.3698 199.613 54.1814ZM22.6634 52.2968C22.954 51.6372 22.7603 50.8834 22.0823 50.5065C21.4043 50.2238 20.6295 50.4122 20.2421 51.0718C19.9516 51.7314 20.1452 52.4853 20.8232 52.8622C21.0169 52.9564 21.2106 52.9564 21.4043 52.9564C21.9855 53.0506 22.4697 52.768 22.6634 52.2968ZM203.099 51.3545C203.68 50.8834 203.68 50.0353 203.196 49.5642C202.712 48.9988 201.84 48.9988 201.259 49.47C200.678 49.9411 200.678 50.7892 201.162 51.2603C201.453 51.543 201.84 51.7314 202.131 51.7314C202.518 51.7314 202.809 51.6372 203.099 51.3545ZM18.6925 50.318C18.983 49.6584 18.7893 48.9046 18.1114 48.5277C17.4334 48.245 16.6586 48.4334 16.2712 49.093C15.9806 49.7526 16.1743 50.5065 16.8523 50.8834C17.046 50.9776 17.2397 51.0718 17.4334 51.0718C17.9176 51.0718 18.4019 50.7892 18.6925 50.318ZM14.7215 48.3392C15.1089 47.6796 14.8184 46.9258 14.1404 46.5489C13.4624 46.172 12.6876 46.4546 12.3002 47.1142C11.9128 47.7738 12.2034 48.5277 12.8813 48.9046C13.075 48.9988 13.2688 49.093 13.4624 49.093C13.9467 48.9988 14.431 48.8104 14.7215 48.3392ZM206.489 48.4334C207.07 47.9623 207.07 47.1143 206.586 46.5489C206.102 46.0777 205.23 45.9835 204.649 46.4546C204.068 46.9258 204.068 47.7738 204.552 48.3392C204.843 48.6219 205.133 48.7161 205.521 48.7161C205.908 48.8104 206.199 48.6219 206.489 48.4334ZM10.7506 46.2662C11.138 45.6066 10.8474 44.8528 10.2663 44.4759C9.58836 44.0989 8.81354 44.3816 8.42612 45.0412C8.03871 45.7008 8.32927 46.4546 8.91039 46.8316C9.1041 46.9258 9.29781 47.02 9.58836 47.02C10.0726 46.9258 10.46 46.7373 10.7506 46.2662ZM209.685 45.3239C210.169 44.8528 210.169 44.0047 209.685 43.4393C209.201 42.9682 208.329 42.9682 207.748 43.4393C207.264 43.9105 207.264 44.7585 207.748 45.2297C208.039 45.5124 208.329 45.6066 208.717 45.6066C209.104 45.7008 209.395 45.6066 209.685 45.3239ZM6.8765 44.1932C7.2639 43.5336 6.97334 42.7797 6.39223 42.4028C5.71426 42.0259 4.93944 42.3086 4.55203 42.874C4.16463 43.5336 4.45518 44.2874 5.0363 44.6643C5.23 44.7585 5.52057 44.8528 5.71426 44.8528C6.10168 44.8528 6.58594 44.5701 6.8765 44.1932ZM212.784 42.1201C213.269 41.5548 213.269 40.8009 212.688 40.2356C212.107 39.7644 211.332 39.7644 210.751 40.3298C210.266 40.8952 210.266 41.649 210.847 42.2144C211.138 42.4028 211.429 42.5913 211.719 42.5913C212.203 42.5913 212.591 42.4028 212.784 42.1201ZM215.787 38.8221C216.271 38.2568 216.174 37.5029 215.593 37.0318C215.012 36.5607 214.14 36.6549 213.656 37.2203C213.172 37.7856 213.269 38.6337 213.85 39.0106C214.14 39.1991 214.431 39.2933 214.722 39.2933C215.206 39.2933 215.593 39.1991 215.787 38.8221ZM218.692 35.4299C219.177 34.8645 219.08 34.0165 218.499 33.6396C217.918 33.1684 217.046 33.2627 216.659 33.828C216.174 34.3934 216.271 35.2415 216.852 35.7126C217.143 35.9011 217.433 35.9953 217.724 35.9953C218.015 35.9011 218.402 35.8068 218.692 35.4299ZM221.404 31.9435C221.889 31.3781 221.695 30.53 221.114 30.1531C220.533 29.682 219.661 29.8704 219.274 30.4358C218.789 31.0012 218.983 31.8492 219.564 32.2261C219.758 32.4146 220.048 32.5088 220.339 32.5088C220.726 32.5088 221.114 32.3204 221.404 31.9435ZM224.019 28.2685C224.407 27.7032 224.31 26.8551 223.632 26.4782C223.051 26.1013 222.179 26.2898 221.792 26.8551C221.404 27.4205 221.501 28.2685 222.179 28.6455C222.373 28.8339 222.663 28.8339 222.954 28.8339C223.245 28.8339 223.729 28.6455 224.019 28.2685ZM226.344 24.4994C226.731 23.934 226.538 23.086 225.86 22.7091C225.182 22.3322 224.407 22.5206 224.019 23.1802C223.632 23.8398 223.826 24.5936 224.504 24.9706C224.697 25.0648 224.988 25.159 225.182 25.159C225.666 25.159 226.15 24.9706 226.344 24.4994Z" fill="#505269"/>
<path d="M1.74345 42.6855C1.93715 42.6855 2.13085 42.6855 2.22771 42.5913C2.42141 42.4971 2.51826 42.4028 2.71196 42.3086C2.90567 42.2144 2.90567 42.0259 3.00252 41.9317C3.09937 41.7432 3.09937 41.649 3.09937 41.4606C3.09937 41.3663 3.09937 41.2721 3.09937 41.1779C3.09937 41.0836 3.09937 40.9894 3.00252 40.8952C3.00252 40.801 2.90566 40.7067 2.90566 40.7067C2.90566 40.6125 2.80882 40.5183 2.71196 40.5183C2.22771 40.0471 1.25919 40.0471 0.774929 40.5183C0.678077 40.6125 0.67808 40.6125 0.581228 40.7067C0.484376 40.801 0.48437 40.801 0.48437 40.8952C0.48437 40.9894 0.387527 41.0836 0.387527 41.1779C0.387527 41.2721 0.387527 41.3663 0.387527 41.4606C0.387527 41.649 0.387519 41.8375 0.48437 41.9317C0.581222 42.1202 0.678077 42.2144 0.774929 42.3086C0.87178 42.4028 1.06548 42.4971 1.25919 42.5913C1.35604 42.6855 1.54974 42.6855 1.74345 42.6855Z" fill="#505269"/>
</g>
<defs>
<clipPath id="clip0">
<rect width="240" height="80" fill="white" transform="matrix(-1 0 0 1 240 0)"/>
</clipPath>
</defs>
</svg>
