<svg width="80" height="80" viewBox="0 0 80 80" fill="none" xmlns="http://www.w3.org/2000/svg">
<path d="M39.9999 0C17.91 0 0 17.9085 0 39.9999C0 62.0912 17.9085 79.9997 39.9999 79.9997C62.0912 79.9997 79.9997 62.0912 79.9997 39.9999C79.9997 17.9085 62.09 0 39.9999 0ZM39.9999 76.7905C19.7127 76.7905 3.20779 60.2856 3.20779 39.9984C3.20779 19.7112 19.7129 3.20629 39.9999 3.20629C60.2853 3.20629 76.792 19.7112 76.792 39.9984C76.7905 60.2856 60.2856 76.7905 39.9999 76.7905ZM60.8549 57.549C61.7948 58.4889 61.7948 60.0128 60.8549 60.9527C59.915 61.8911 58.3928 61.8926 57.4529 60.9527L40.4234 43.9249C40.2999 43.9377 40.1813 43.9619 40.0545 43.9619C37.894 43.9619 36.1439 42.2104 36.1439 40.0513C36.1439 38.8049 36.7374 37.7078 37.6469 36.991V18.2115C37.6469 16.8835 38.7248 15.8056 40.0528 15.8056C41.3825 15.8056 42.4604 16.8835 42.4604 18.2115V36.9925C43.3684 37.7078 43.9649 38.8067 43.9649 40.0528C43.9649 40.2405 43.9344 40.4202 43.9102 40.6013L60.8549 57.549Z" fill="#505269"/>
</svg>
