<svg width="160" height="160" viewBox="0 0 160 160" fill="none" xmlns="http://www.w3.org/2000/svg">
<g opacity="1" clip-path="url(#clip0)">
<path d="M131.917 0H25.2504C23.65 0 22.5831 1.06689 22.5831 2.66724V13.3337H11.9166C6.04993 13.3337 1.25012 18.1335 1.25012 24.0002V55.9998C1.25012 61.8665 6.04993 66.6663 11.9166 66.6663H22.5831V157.334C22.5831 158.933 23.65 160 25.2504 160H131.917C133.517 160 134.584 158.933 134.584 157.334V90.6665H129.251V154.667H27.9164V66.6663H70.5836C76.4503 66.6663 81.2501 61.8665 81.2501 55.9998V24.0002C81.2501 18.1335 76.4503 13.3337 70.5836 13.3337H27.9164V5.33325H129.251V45.3333H134.584V2.66724C134.584 1.06689 133.517 0 131.917 0V0ZM75.9169 55.9998C75.9169 58.9331 73.517 61.333 70.5836 61.333H11.9166C8.98328 61.333 6.58337 58.9331 6.58337 55.9998V40H75.9169V55.9998ZM75.9169 34.6667H6.58337V29.3335H75.9169V34.6667ZM70.5836 18.667C73.517 18.667 75.9169 21.0669 75.9169 24.0002H6.58337C6.58337 21.0669 8.98328 18.667 11.9166 18.667H70.5836Z" fill="#efefef"/>
<path d="M133.783 79.2003C134.85 78.1334 134.85 76.5331 133.783 75.4662L123.116 64.7997C122.049 63.7328 120.45 63.7328 119.383 64.7997L76.7161 107.467C76.45 107.733 76.1839 107.999 76.1839 108.266L68.1834 126.933C67.65 128.266 68.1834 129.867 69.5164 130.4C69.7838 130.666 70.316 130.666 70.5833 130.666C70.8494 130.666 71.3829 130.666 71.6502 130.4L90.3172 122.4C90.5833 122.4 90.8494 122.134 91.1168 121.866L133.783 79.2003ZM75.6505 122.933L79.3834 114.133L84.4505 119.2L75.6505 122.933ZM89.2503 116.267L82.3167 109.333L121.25 70.4003L128.183 77.3326L89.2503 116.267Z" fill="#efefef"/>
<path d="M144.449 70.1329L123.116 48.7999C122.049 47.733 120.45 47.733 119.383 48.7999L95.3832 72.8002L99.1161 76.5331L121.25 54.4005L140.716 73.8671L144.449 70.1329Z" fill="#efefef"/>
<path d="M149.784 40.7995C148.717 39.7338 147.117 39.7338 146.05 40.7995L138.051 48.8C136.984 49.8669 136.984 51.4672 138.051 52.5329L146.05 60.5334C147.117 61.6003 148.717 61.6003 149.784 60.5334L157.783 52.5329C158.85 51.4672 158.85 49.8669 157.783 48.8L149.784 40.7995ZM147.916 54.9328L143.65 50.6664L147.916 46.4001L152.184 50.6664L147.916 54.9328Z" fill="#efefef"/>
<path d="M47.1166 141.866C48.1835 140.8 50.0499 140.8 51.3829 141.866C54.5836 145.067 59.9169 145.067 63.1163 141.866L67.1166 137.866L63.3837 134.133L59.3834 138.134C58.3165 139.2 56.4501 139.2 55.1171 138.134C51.9164 134.933 46.5831 134.933 43.3837 138.134L39.3834 142.134L43.1163 145.867L47.1166 141.866Z" fill="#efefef"/>
<path d="M33.2494 71.9995H83.9171V77.3328H33.2494V71.9995Z" fill="#efefef"/>
<path d="M33.2494 88.0002H73.2494V93.3335H33.2494V88.0002Z" fill="#efefef"/>
<path d="M33.2494 104H65.2501V109.333H33.2494V104Z" fill="#efefef"/>
<path d="M113.251 37.3328C114.85 37.3328 115.917 36.2671 115.917 34.6667V18.667C115.917 17.0667 114.85 15.9998 113.251 15.9998H91.9165C90.3162 15.9998 89.2505 17.0667 89.2505 18.667V34.6667C89.2505 36.2671 90.3162 37.3328 91.9165 37.3328H113.251ZM94.5837 21.333H110.583V31.9995H94.5837V21.333Z" fill="#efefef"/>
</g>
<defs>
<clipPath id="clip0">
<rect width="160" height="160" fill="white"/>
</clipPath>
</defs>
</svg>
