<svg width="40" height="40" viewBox="0 0 40 40" fill="none" xmlns="http://www.w3.org/2000/svg">
<path d="M2.72727 28.1818C2.22545 28.1818 1.81818 27.7754 1.81818 27.2727V7.27268C1.81818 6.76996 2.22545 6.36359 2.72727 6.36359H31.8182C32.32 6.36359 32.7273 6.76996 32.7273 7.27268C32.7273 7.77541 33.1345 8.18177 33.6364 8.18177C34.1382 8.18177 34.5455 7.77541 34.5455 7.27268C34.5455 5.76632 33.3245 4.54541 31.8182 4.54541H2.72727C1.22091 4.54541 0 5.76632 0 7.27268V27.2727C0 28.779 1.22091 30 2.72727 30C3.22909 30 3.63636 29.5936 3.63636 29.0909C3.63636 28.5881 3.22909 28.1818 2.72727 28.1818ZM17.2727 28.1818H20.9091C21.4109 28.1818 21.8182 27.7754 21.8182 27.2727C21.8182 26.77 21.4109 26.3636 20.9091 26.3636H17.2727C16.7709 26.3636 16.3636 26.77 16.3636 27.2727C16.3636 27.7754 16.7709 28.1818 17.2727 28.1818ZM10 31.8181H17.2727C17.7745 31.8181 18.1818 31.4118 18.1818 30.909C18.1818 30.4063 17.7745 30 17.2727 30H10C9.49818 30 9.09091 30.4063 9.09091 30.909C9.09091 31.4118 9.49818 31.8181 10 31.8181ZM37.2727 9.99996H8.18182C6.67545 9.99996 5.45455 11.2209 5.45455 12.7272V32.7272C5.45455 34.2336 6.67545 35.4545 8.18182 35.4545H37.2727C38.7791 35.4545 40 34.2336 40 32.7272V12.7272C40 11.2209 38.7791 9.99996 37.2727 9.99996ZM38.1818 32.7272C38.1818 33.23 37.7745 33.6363 37.2727 33.6363H8.18182C7.68 33.6363 7.27273 33.23 7.27273 32.7272V22.7272H38.1818V32.7272ZM38.1818 20.909H7.27273V17.2727H38.1818V20.909ZM38.1818 15.4545H7.27273V12.7272C7.27273 12.2245 7.68 11.8181 8.18182 11.8181H37.2727C37.7745 11.8181 38.1818 12.2245 38.1818 12.7272V15.4545ZM10 28.1818H13.6364C14.1382 28.1818 14.5455 27.7754 14.5455 27.2727C14.5455 26.77 14.1382 26.3636 13.6364 26.3636H10C9.49818 26.3636 9.09091 26.77 9.09091 27.2727C9.09091 27.7754 9.49818 28.1818 10 28.1818Z" fill="#EF4C23"/>
</svg>
