<svg width="80" height="19" viewBox="0 0 80 19" fill="none" xmlns="http://www.w3.org/2000/svg">
<g clip-path="url(#clip0)">
<path fill-rule="evenodd" clip-rule="evenodd" d="M-0.169434 18.2965H18.2168V-0.0908203H-0.169434V18.2965ZM11.6148 1.31371C14.8648 2.37868 17.213 5.45959 17.2221 9.09941C17.2307 12.6802 14.9296 15.7539 11.6148 16.8891V1.31371ZM9.02043 0.897419C9.60758 0.897419 10.2327 0.975603 10.754 1.07913C10.754 5.24493 6.72541 8.67299 2.56722 8.67299L0.828571 8.67045C1.11346 4.40004 4.64685 0.897419 9.02043 0.897419ZM2.56866 9.54032C6.72577 9.54032 10.7533 12.9647 10.7533 17.1269C10.2327 17.2333 9.57681 17.3119 9.02043 17.3119C4.64541 17.3061 0.992554 13.7923 0.827124 9.54067H2.56866V9.54032Z" fill="#121441"/>
<path fill-rule="evenodd" clip-rule="evenodd" d="M24.371 10.7187V9.56001H28.1965V8.082H24.3703V5.93069H28.4405V4.45703H22.8043V7.62445V10.6518C22.8043 12.2174 23.4715 13.2885 25.0367 13.509C25.0682 13.5166 25.099 13.5224 25.1276 13.5227H25.1562C25.3165 13.5408 25.4805 13.5528 25.6517 13.5528H28.5491V12.0806H25.6644C25.167 12.0806 24.371 11.8351 24.371 10.7187Z" fill="#121441"/>
<path fill-rule="evenodd" clip-rule="evenodd" d="M29.6622 8.75504V13.5547H31.2289V8.72355V4.45459H29.6622V8.75504Z" fill="#121441"/>
<path fill-rule="evenodd" clip-rule="evenodd" d="M35.7212 6.7666C33.7408 6.7666 32.2592 8.13059 32.2592 10.2551V10.308C32.2592 12.38 33.6887 13.7176 35.7607 13.7176C36.7573 13.7176 37.6883 13.4421 38.5408 12.5371L37.5967 11.6191C37.0982 12.1176 36.6132 12.38 35.8132 12.38C34.6461 12.38 33.8722 11.698 33.8197 10.649H38.9607C38.9871 10.3865 38.9871 10.0984 38.9871 10.0984C38.9868 8.24896 37.6883 6.7666 35.7212 6.7666ZM33.8588 9.54705C33.9243 8.74705 34.7377 8.10453 35.7212 8.10453C36.6392 8.10453 37.3868 8.76045 37.3868 9.54705H33.8588Z" fill="#121441"/>
<path fill-rule="evenodd" clip-rule="evenodd" d="M43.3889 8.16974C44.097 8.16974 44.6215 8.43219 45.0675 8.89119L46.0383 7.88123C45.2774 7.06784 44.3724 6.74023 43.3893 6.74023C41.3958 6.74023 39.7958 8.22223 39.7958 10.2418C39.7958 12.2613 41.3958 13.7437 43.3893 13.7437C44.3728 13.7437 45.2778 13.4157 46.0383 12.6027L45.0675 11.5927C44.6218 12.0521 44.097 12.3138 43.3889 12.3138C42.2349 12.3138 41.356 11.4353 41.356 10.2418C41.356 9.04865 42.2349 8.16974 43.3889 8.16974Z" fill="#121441"/>
<path fill-rule="evenodd" clip-rule="evenodd" d="M48.5799 10.7208H48.5781V8.39752H50.0032V6.97417H48.5802V4.45508H47.0132V7.71915V10.8138L47.0179 10.8134C47.0624 12.2918 47.7343 13.2989 49.2459 13.5114C49.2774 13.519 49.3082 13.5248 49.3364 13.5255H49.3654C49.5254 13.5432 49.6897 13.5552 49.861 13.5552H50.0264L50.0326 12.0833H49.874C49.3759 12.083 48.5799 11.8372 48.5799 10.7208Z" fill="#121441"/>
<path fill-rule="evenodd" clip-rule="evenodd" d="M52.8753 7.95351V6.97505H51.3213V10.1997V13.5553H52.8753V10.095C52.8753 9.01161 53.5671 8.33252 54.6502 8.33252C54.8985 8.33252 55.1208 8.35858 55.3036 8.39804V6.88347C55.238 6.87044 55.0035 6.84473 54.8337 6.84473C53.8932 6.84436 53.1884 7.27514 52.8753 7.95351Z" fill="#121441"/>
<path fill-rule="evenodd" clip-rule="evenodd" d="M59.134 6.77881C57.1359 6.77881 55.5431 8.29302 55.5431 10.2648C55.5431 12.2355 57.1359 13.7511 59.134 13.7511C61.1181 13.7511 62.7243 12.2355 62.7243 10.2648C62.7243 8.29266 61.1185 6.77881 59.134 6.77881ZM59.134 12.3278C57.9721 12.3278 57.0975 11.4268 57.0975 10.2648C57.0975 9.10243 57.9721 8.2018 59.134 8.2018C60.2834 8.2018 61.1706 9.10243 61.1706 10.2648C61.1706 11.4264 60.2834 12.3278 59.134 12.3278Z" fill="#121441"/>
<path fill-rule="evenodd" clip-rule="evenodd" d="M63.6879 8.59794V13.5547H65.2557V8.66092V4.45459H63.6879V8.59794Z" fill="#121441"/>
<path fill-rule="evenodd" clip-rule="evenodd" d="M70.906 10.7999C70.906 11.8442 70.2928 12.2888 69.4692 12.2888C68.6472 12.2888 68.0332 11.8439 68.0332 10.8137V6.9751H66.4535V8.88097V10.9443C66.4535 12.8245 67.8243 13.7255 69.4566 13.7255C71.1018 13.7255 72.485 12.8118 72.485 10.9052V8.88134V6.97546H70.906V10.7999Z" fill="#121441"/>
<path fill-rule="evenodd" clip-rule="evenodd" d="M78.4134 11.4511L77.4256 10.069L78.6491 8.40243L79.6967 6.9751H77.9866L76.5633 8.94614L75.1269 6.9751H73.4299L74.4029 8.30614L75.7018 10.0824L74.3407 11.9775L73.2076 13.555H74.8924L76.5633 11.231L78.2343 13.555H79.9186L78.4134 11.4511Z" fill="#121441"/>
</g>
<defs>
<clipPath id="clip0">
<rect width="80" height="18.4615" fill="white"/>
</clipPath>
</defs>
</svg>
