<svg width="600" height="600" viewBox="0 0 600 600" fill="none" xmlns="http://www.w3.org/2000/svg">
<g clip-path="url(#clip0)">
<path d="M444.685 79.0798V503.93C444.685 504.476 444.685 504.476 444.14 505.021C395.601 539.926 341.063 571.012 281.071 599.372C279.98 599.917 278.344 599.917 277.253 599.372V173.976L444.685 79.0798Z" fill="#2C6AAB"/>
<path d="M277.254 173.976V598.827L142 520.838V95.9871L277.254 173.976Z" fill="#458FD9"/>
<path d="M281.617 459.754C283.253 460.845 285.435 462.481 287.071 463.572C288.162 464.117 289.798 464.663 290.889 463.572C351.426 435.212 407.054 403.58 455.593 368.13C456.139 367.585 456.139 367.585 456.139 367.04C456.139 366.494 455.593 365.949 455.048 365.949C452.866 364.858 450.685 363.767 448.503 362.677C447.413 362.131 445.231 362.131 444.686 362.677C396.692 398.126 341.609 429.213 282.163 457.573C281.617 458.118 281.072 458.118 281.072 458.663C281.072 459.209 281.072 459.209 281.617 459.754Z" fill="#2C6AAB"/>
<path d="M281.072 458.664C281.072 459.209 281.072 459.209 281.617 459.755C283.253 460.845 285.435 462.481 287.071 463.572C288.162 464.118 289.798 464.663 290.889 463.572C351.426 435.212 407.054 403.58 455.593 368.131C456.139 367.585 456.139 367.585 456.139 367.04C456.139 367.04 456.139 502.294 456.139 502.839C456.139 503.385 456.139 503.385 455.593 503.93C406.509 538.835 351.426 571.012 290.889 599.372C289.798 599.917 287.616 599.917 287.071 599.372C285.435 598.281 283.253 596.645 281.617 595.554C281.072 595.009 281.072 595.009 281.072 594.463C281.072 593.918 281.072 458.664 281.072 458.664Z" fill="#5EA9F0"/>
<path opacity="0.3" d="M290.89 463.572C289.799 464.117 287.618 464.117 287.072 463.572V599.371C288.163 599.917 289.799 600.462 290.89 599.371V465.753C351.427 437.394 405.965 405.216 454.504 369.767C455.049 369.221 455.595 369.221 456.14 368.676C407.056 403.58 351.427 435.757 290.89 463.572Z" fill="white"/>
<path d="M434.87 401.944L431.052 404.671L426.144 401.944C427.78 400.853 428.87 400.308 430.507 399.217L434.87 401.944Z" fill="#FCF9F0"/>
<path d="M332.338 461.389L327.43 463.571L322.521 460.844C324.158 460.299 325.794 459.208 327.43 458.663L332.338 461.389Z" fill="#FCF9F0"/>
<path d="M315.43 482.114L310.522 479.387V472.297L315.43 475.024V482.114Z" fill="#BDBDB5"/>
<path d="M426.143 401.398V407.943L431.052 404.671L426.143 401.398Z" fill="#BDBDB5"/>
<path d="M322.521 460.846V466.3L327.431 463.573L322.521 460.846Z" fill="#BDBDB5"/>
<path d="M450.685 391.582L455.593 394.309C413.054 423.214 366.151 450.483 315.976 475.025L311.068 472.298C361.243 447.756 408.145 420.487 450.685 391.582Z" fill="#FCF9F0"/>
<path d="M455.593 401.399C413.053 430.85 366.15 457.574 315.43 482.116V475.026C366.15 450.484 412.508 423.76 455.047 394.31V401.399H455.593Z" fill="url(#paint0_linear)"/>
<path d="M455.592 83.9892C453.411 82.8984 451.229 81.8077 449.048 80.7169C447.957 80.1715 445.776 80.1715 445.23 80.7169C422.324 97.0783 397.782 112.894 371.604 128.165C371.059 128.71 370.513 128.71 370.513 129.256C370.513 129.801 371.059 130.346 371.604 130.346L377.603 133.619C378.694 134.164 380.33 134.164 381.966 133.619C408.144 118.348 433.232 102.532 456.683 85.6253C457.229 85.0799 457.229 85.0799 457.229 84.5346C456.683 84.5346 456.138 83.9892 455.592 83.9892Z" fill="#80C4FA"/>
<path d="M370.513 129.802C370.513 130.347 371.058 130.892 371.603 130.892L377.603 134.165C378.693 134.71 380.329 134.71 381.966 134.165C408.144 118.894 433.231 103.078 456.683 86.1713C457.228 85.6259 457.228 85.6259 457.228 85.0806C457.228 85.0806 457.228 362.679 457.228 363.224C457.228 363.769 457.228 363.769 456.683 364.315C433.231 381.222 408.144 397.038 381.966 412.308C380.875 412.854 379.239 412.854 377.603 412.308L371.058 409.036C370.513 408.491 369.967 408.491 369.967 407.945C370.513 407.4 370.513 129.802 370.513 129.802Z" fill="#5EA9F0"/>
<path opacity="0.1" d="M371.058 130.893L377.057 134.165V412.309L371.058 409.036C370.513 408.491 369.967 408.491 369.967 407.946C369.967 407.4 369.967 129.802 369.967 129.802C370.513 130.348 370.513 130.348 371.058 130.893Z" fill="black"/>
<path opacity="0.3" d="M381.419 134.165C380.328 134.711 378.692 134.711 377.056 134.165V412.309C378.147 412.854 379.783 412.854 381.419 412.309V136.347C407.597 121.076 431.594 104.715 454.5 87.808C455.045 87.2626 455.591 86.7173 456.136 86.1719C432.685 103.079 407.597 118.895 381.419 134.165Z" fill="white"/>
<path d="M385.783 369.769L393.419 374.132V368.678L385.783 364.315V369.769Z" fill="#D5D5CC"/>
<path d="M393.419 368.678V363.224L390.692 361.588L385.783 364.315L393.419 368.678Z" fill="#BDBDB5"/>
<path d="M385.783 187.613L393.419 191.976V186.522L385.783 182.159V187.613Z" fill="#D5D5CC"/>
<path d="M393.419 186.522V180.522L390.692 178.886L385.783 182.159L393.419 186.522Z" fill="#BDBDB5"/>
<path d="M398.326 391.038L403.235 388.312H398.326L393.418 391.584L398.326 391.038Z" fill="#AFAFB0"/>
<path d="M393.418 391.583L398.326 391.038V178.34L393.418 172.341V391.583Z" fill="#D5D5CC"/>
<path d="M398.326 391.039L403.234 388.312V175.614L398.326 178.341V391.039Z" fill="url(#paint1_linear)"/>
<path d="M398.326 169.614L403.235 175.613L398.326 178.34L393.418 172.341L398.326 169.614Z" fill="#F0F0F1"/>
<path d="M281.617 177.249C283.253 178.34 285.434 179.976 287.07 181.066C288.161 181.612 289.797 182.157 290.888 181.066C319.793 167.432 347.608 153.252 374.331 137.981C374.877 137.436 375.422 137.436 375.422 136.891C375.422 136.345 374.877 135.8 374.331 135.8L368.332 132.528C367.241 131.982 365.605 131.982 363.969 132.528C337.791 147.253 310.522 161.433 281.617 175.067C281.071 175.613 280.526 175.613 280.526 176.158C281.071 176.703 281.071 177.249 281.617 177.249Z" fill="#80C4FA"/>
<path d="M281.072 176.159C281.072 176.704 281.072 176.704 281.617 177.25C283.253 178.34 285.435 179.977 287.071 181.067C288.162 181.613 289.798 182.158 290.889 181.067C319.794 167.433 347.608 153.253 374.332 137.982C374.877 137.437 375.422 137.437 375.422 136.892C375.422 136.892 375.422 414.49 375.422 415.035C375.422 415.58 374.877 416.126 374.332 416.126C347.608 431.397 319.794 445.576 290.889 459.211C289.798 459.756 287.616 459.756 287.071 459.211C285.435 458.12 283.253 456.484 281.617 455.393C281.072 454.848 281.072 454.848 281.072 454.302C281.072 453.757 281.072 176.159 281.072 176.159Z" fill="#5EA9F0"/>
<path opacity="0.3" d="M290.889 181.611C289.798 182.156 287.617 182.156 287.071 181.611V459.754C288.162 460.3 289.798 460.845 290.889 459.754V183.247C319.794 169.612 347.063 154.887 372.696 139.617C373.241 139.071 373.787 139.071 374.332 138.526C347.608 153.797 319.794 167.976 290.889 181.611Z" fill="white"/>
<path d="M362.878 383.401L370.514 387.764V381.764L362.878 377.947V383.401Z" fill="#D5D5CC"/>
<path d="M370.514 381.764V376.31L367.787 374.674L362.878 377.946L370.514 381.764Z" fill="#BDBDB5"/>
<path d="M362.878 200.699L370.514 205.062V199.608L362.878 195.245V200.699Z" fill="#D5D5CC"/>
<path d="M370.514 199.608V193.609L367.787 192.518L362.878 195.245L370.514 199.608Z" fill="#BDBDB5"/>
<path d="M375.422 404.126L380.33 401.399L375.422 401.945L370.513 404.672L375.422 404.126Z" fill="#AFAFB0"/>
<path d="M370.513 404.671L375.422 404.126V191.428L370.513 185.429V404.671Z" fill="#D5D5CC"/>
<path d="M375.421 404.127L380.33 401.4V188.702L375.421 191.429V404.127Z" fill="url(#paint2_linear)"/>
<path d="M375.422 182.702L380.33 188.701L375.422 191.428L370.513 185.429L375.422 182.702Z" fill="#F0F0F1"/>
<path d="M354.698 206.699V353.406C337.246 362.677 319.248 371.949 300.706 380.675V233.968C319.248 225.242 337.246 215.97 354.698 206.699Z" fill="#212025"/>
<path d="M350.335 222.514V327.772C335.61 335.407 320.884 343.043 305.614 350.678V245.42C320.884 238.33 335.61 230.694 350.335 222.514Z" fill="#42444A"/>
<path d="M326.883 277.054L328.519 275.963V270.508L326.883 271.054V277.054Z" fill="white"/>
<path d="M341.479 270.701L338.752 275.424L339.224 275.697L341.952 270.973L341.479 270.701Z" fill="white"/>
<path d="M344.335 286.871L349.245 284.144V282.508L344.335 285.235V286.871Z" fill="white"/>
<path d="M339.665 301.903L339.119 302.848L341.953 304.484L342.499 303.539L339.665 301.903Z" fill="white"/>
<path d="M326.883 320.684L328.519 319.593V314.139L326.883 314.684V320.684Z" fill="white"/>
<path d="M315.895 315.239L313.168 319.963L313.641 320.236L316.368 315.511L315.895 315.239Z" fill="white"/>
<path d="M306.159 308.686L311.614 305.959V304.322L306.159 307.05V308.686Z" fill="white"/>
<path d="M313.633 286.742L313.088 287.687L315.923 289.322L316.468 288.377L313.633 286.742Z" fill="white"/>
<path d="M326.124 296.319L335.098 301.5L336.734 298.667L327.761 293.486L326.124 296.319Z" fill="white"/>
<path d="M328.519 278.143V296.141L326.883 296.686V278.688L328.519 278.143Z" fill="white"/>
<path d="M443.595 77.9893L308.886 0L142 95.9868L277.254 173.976C278.345 174.521 279.981 174.521 281.072 173.976C341.063 146.162 395.601 114.53 444.14 79.6254C444.686 79.08 444.686 79.08 444.686 78.5346C444.686 78.5346 444.14 78.5346 443.595 77.9893Z" fill="#80C4FA"/>
</g>
<defs>
<linearGradient id="paint0_linear" x1="315.658" y1="438.319" x2="455.434" y2="438.319" gradientUnits="userSpaceOnUse">
<stop stop-color="#EEEBE2"/>
<stop offset="1" stop-color="#E8E8DE"/>
</linearGradient>
<linearGradient id="paint1_linear" x1="398.178" y1="283.359" x2="403.221" y2="283.359" gradientUnits="userSpaceOnUse">
<stop stop-color="#EEEBE2"/>
<stop offset="1" stop-color="#E8E8DE"/>
</linearGradient>
<linearGradient id="paint2_linear" x1="375.281" y1="296.578" x2="380.323" y2="296.578" gradientUnits="userSpaceOnUse">
<stop stop-color="#EEEBE2"/>
<stop offset="1" stop-color="#E8E8DE"/>
</linearGradient>
<clipPath id="clip0">
<rect width="600" height="600" fill="white"/>
</clipPath>
</defs>
</svg>
