<svg width="40" height="40" viewBox="0 0 40 40" fill="none" xmlns="http://www.w3.org/2000/svg">
<circle cx="20" cy="20" r="20" fill="#EF4C23"/>
<path d="M17.5607 8.93934C16.9749 8.35355 16.0251 8.35355 15.4393 8.93934C14.8536 9.52513 14.8536 10.4749 15.4393 11.0607L17.5607 8.93934ZM26.5 20L27.5607 21.0607C28.1464 20.4749 28.1464 19.5251 27.5607 18.9393L26.5 20ZM15.4393 28.9393C14.8536 29.5251 14.8536 30.4749 15.4393 31.0607C16.0251 31.6464 16.9749 31.6464 17.5607 31.0607L15.4393 28.9393ZM15.4393 11.0607L25.4393 21.0607L27.5607 18.9393L17.5607 8.93934L15.4393 11.0607ZM25.4393 18.9393L15.4393 28.9393L17.5607 31.0607L27.5607 21.0607L25.4393 18.9393Z" fill="white"/>
</svg>
