<svg width="80" height="39" viewBox="0 0 80 39" fill="none" xmlns="http://www.w3.org/2000/svg">
<g clip-path="url(#clip0)">
<path fill-rule="evenodd" clip-rule="evenodd" d="M19.1595 38.0797C29.6277 38.0797 38.1271 29.5803 38.1271 19.1121C38.1271 8.64393 29.6277 0.144531 19.1595 0.144531C8.69129 0.144531 0.191895 8.64393 0.191895 19.1121C0.191895 29.5803 8.69129 38.0797 19.1595 38.0797Z" fill="#A64159"/>
<path fill-rule="evenodd" clip-rule="evenodd" d="M23.7693 25.7872H19.8797V10.9492H18.3911V27.2758H19.8797V27.2277H23.7693V25.7872Z" fill="white"/>
<path fill-rule="evenodd" clip-rule="evenodd" d="M33.5653 19.7351H23.8174V18.2945H35.0059C35.0059 18.5826 35.0059 18.8707 35.0059 19.1588C35.0059 27.8983 27.8991 35.0052 19.1596 35.0052C10.4201 35.0052 3.31323 27.8983 3.31323 19.1588C3.31323 10.4193 10.4201 3.3125 19.1596 3.3125C19.3997 3.3125 19.6398 3.3125 19.8318 3.3125V4.75308C19.5917 4.75308 19.3516 4.75308 19.1596 4.75308C11.1884 4.75308 4.75381 11.1876 4.75381 19.1588C4.75381 27.13 11.1884 33.5646 19.1596 33.5646C26.9387 33.5166 33.2292 27.4181 33.5653 19.7351Z" fill="white"/>
<path fill-rule="evenodd" clip-rule="evenodd" d="M13.2533 15.367C14.5018 15.367 15.4622 14.3586 15.4622 13.1581C15.4622 11.9096 14.4538 10.9492 13.2533 10.9492C12.0048 10.9492 11.0444 11.9576 11.0444 13.1581C11.0444 14.3586 12.0048 15.367 13.2533 15.367Z" fill="white"/>
<path fill-rule="evenodd" clip-rule="evenodd" d="M47.5388 28.4287H61.0802V24.347H52.917H52.4848V23.9149V9.70117H47.5388V28.4287Z" fill="#6B6966"/>
<path fill-rule="evenodd" clip-rule="evenodd" d="M77.4549 10.9966C75.9182 9.79612 73.9014 9.17188 71.5005 9.17188C68.6673 9.17188 66.3144 10.0362 64.6337 11.6689C62.905 13.3976 61.9927 15.9426 61.9927 18.9678C61.9927 22.2331 62.9531 25.0182 64.6817 26.7469C66.0743 28.1395 67.899 28.8597 69.9639 28.8597C74.5737 28.8597 75.5821 26.1227 75.5821 26.1227V27.3712V28.3796H79.7118V17.8153H71.5485V21.1287H74.8618H75.342C75.342 21.1287 75.39 25.3063 71.4525 25.3063C70.4441 25.3063 69.5797 24.9222 68.9074 24.2499C67.851 23.1935 67.2748 21.4168 67.2748 19.0638C67.2748 15.2223 68.8114 12.9174 71.3564 12.9174C72.941 12.9174 74.1415 13.8778 74.4777 15.3664H79.7598C79.4717 13.3015 78.8954 12.1491 77.4549 10.9966Z" fill="#6B6966"/>
</g>
<defs>
<clipPath id="clip0">
<rect width="80" height="38.2713" fill="white"/>
</clipPath>
</defs>
</svg>
