<svg width="20" height="20" viewBox="0 0 20 20" fill="none" xmlns="http://www.w3.org/2000/svg">
<path d="M18.6278 14.8991V5.0882C18.6356 5.04411 18.6324 5.00094 18.626 4.9573C18.6256 4.88776 18.6156 4.81822 18.5774 4.75369C18.5106 4.64097 18.396 4.58552 18.2742 4.56279L14.4382 2.4239C14.3673 2.34209 14.2741 2.29027 14.1692 2.27437L10.3136 0.124561C10.1727 -0.00588149 9.95954 -0.0422418 9.78182 0.0572946L1.71756 4.56461C1.59848 4.5887 1.48712 4.64324 1.42168 4.75323C1.3835 4.81777 1.3735 4.88686 1.37304 4.95594C1.36623 4.99957 1.3635 5.0432 1.37077 5.08729V14.8982C1.35759 14.9759 1.3685 15.0523 1.39759 15.1246C1.44531 15.2786 1.56984 15.3918 1.72892 15.4273L9.68592 19.875C9.82682 20.0055 10.04 20.0423 10.2177 19.9428L18.277 15.4259C18.4319 15.3886 18.5528 15.2782 18.601 15.1273C18.6297 15.0546 18.6415 14.9778 18.6278 14.8991ZM9.98862 0.948577L13.1642 2.71933L5.93354 6.77168L2.75246 4.99366L9.98862 0.948577ZM9.54548 18.7897L2.27887 14.7278V5.73632L5.57584 7.57888C5.64311 7.65206 5.7281 7.70069 5.824 7.71796L9.54503 9.79823V18.7897H9.54548ZM10.0104 9.05011L6.83664 7.27573L14.0687 3.22292L17.2466 4.99457L10.0104 9.05011ZM17.7202 14.7282L10.454 18.8001V9.81141L17.7202 5.73951V14.7282ZM11.8166 14.0833C11.8903 14.0833 11.9575 14.0615 12.0189 14.0301C12.0198 14.0297 12.0207 14.0297 12.0216 14.0292L14.316 12.6489C14.4482 12.5693 14.5414 12.4312 14.5414 12.2653V9.53825C14.5414 9.28691 14.3378 9.08375 14.0869 9.08375C14.0151 9.08375 13.9492 9.1042 13.8887 9.13374C13.8851 9.13601 13.8805 9.13556 13.8774 9.13783L11.5844 10.52C11.4539 10.6 11.3621 10.7377 11.3621 10.9018V13.6288C11.3621 13.8801 11.5658 14.0833 11.8166 14.0833ZM12.2707 11.1536L13.6328 10.3405V12.0112L12.2707 12.8248V11.1536Z" fill="#EF4C23"/>
</svg>
