<svg width="160" height="160" viewBox="0 0 160 160" fill="none" xmlns="http://www.w3.org/2000/svg">
<g opacity="0.1" clip-path="url(#clip0)">
<path d="M62.3731 12.2035H56.9494V17.6272H62.3731V12.2035Z" fill="#505269"/>
<path d="M67.7969 17.6272H62.3731V23.0509H67.7969V17.6272Z" fill="#505269"/>
<path d="M73.2207 12.2035H67.7969V17.6272H73.2207V12.2035Z" fill="#505269"/>
<path d="M78.6444 17.6272H73.2207V23.0509H78.6444V17.6272Z" fill="#505269"/>
<path d="M84.0682 12.2035H78.6444V17.6272H84.0682V12.2035Z" fill="#505269"/>
<path d="M89.4919 17.6272H84.0682V23.0509H89.4919V17.6272Z" fill="#505269"/>
<path d="M62.3731 23.0509H56.9494V28.4747H62.3731V23.0509Z" fill="#505269"/>
<path d="M73.2207 23.0509H67.7969V28.4747H73.2207V23.0509Z" fill="#505269"/>
<path d="M84.0682 23.0509H78.6444V28.4747H84.0682V23.0509Z" fill="#505269"/>
<path d="M78.6444 28.4747H73.2207V33.8985H78.6444V28.4747Z" fill="#505269"/>
<path d="M89.4919 28.4747H84.0682V33.8985H89.4919V28.4747Z" fill="#505269"/>
<path d="M84.0682 33.8984H78.6444V39.3222H84.0682V33.8984Z" fill="#505269"/>
<path d="M73.2207 33.8984H67.7969V39.3222H73.2207V33.8984Z" fill="#505269"/>
<path d="M67.7969 28.4747H62.3731V33.8985H67.7969V28.4747Z" fill="#505269"/>
<path d="M62.3731 33.8984H56.9494V39.3222H62.3731V33.8984Z" fill="#505269"/>
<path d="M70.5088 77.2885H65.085V115.255H70.5088V77.2885Z" fill="#505269"/>
<path d="M92.2038 77.2885H86.7801V115.255H92.2038V77.2885Z" fill="#505269"/>
<path d="M103.051 77.2885H97.6275V82.7122H103.051V77.2885Z" fill="#505269"/>
<path d="M103.051 88.136H97.6275V115.255H103.051V88.136Z" fill="#505269"/>
<path d="M113.899 77.2885H108.475V115.255H113.899V77.2885Z" fill="#505269"/>
<path d="M124.746 77.2885H119.323V115.255H124.746V77.2885Z" fill="#505269"/>
<path d="M159.206 140.456L139.968 121.221C144.218 113.593 146.447 105.004 146.441 96.2716V4.06783C146.441 2.5702 145.227 1.35596 143.729 1.35596H2.71188C1.21424 1.35596 0 2.5702 0 4.06783V145.085C0 146.583 1.21424 147.797 2.71188 147.797H94.9157C104.988 147.803 114.838 144.837 123.233 139.271L141.812 157.85C142.871 158.909 144.588 158.909 145.647 157.85L159.206 144.291C160.265 143.232 160.265 141.515 159.206 140.456ZM5.42375 142.374V6.77971H62.3731V12.2035H67.7969V6.77971H73.2206V12.2035H78.6444V6.77971H84.0682V12.2035H89.4919V6.77971H141.018V73.3997C128.408 47.9155 97.5279 37.4785 72.0437 50.0877C46.5595 62.6969 36.1225 93.5774 48.7317 119.062C53.7368 129.178 61.9277 137.368 72.0437 142.374H5.42375ZM94.9157 142.374C69.4661 142.345 48.8422 121.721 48.8138 96.2716C48.8138 70.8102 69.4542 50.1697 94.9157 50.1697C120.377 50.1697 141.018 70.8102 141.018 96.2716C141.018 121.733 120.377 142.374 94.9157 142.374ZM143.729 152.098L127.659 136.025C131.205 133.083 134.344 129.682 136.993 125.912L153.454 142.374L143.729 152.098Z" fill="#505269"/>
<path d="M81.3563 109.831H75.9326V115.255H81.3563V109.831Z" fill="#505269"/>
<path d="M81.3563 77.2885H75.9326V104.407H81.3563V77.2885Z" fill="#505269"/>
</g>
<defs>
<clipPath id="clip0">
<rect width="160" height="160" fill="white"/>
</clipPath>
</defs>
</svg>
