<svg width="390" height="600" viewBox="0 0 390 600" fill="none" xmlns="http://www.w3.org/2000/svg">
<g opacity="0.65" clip-path="url(#clip0)">
<path d="M148.328 221.455L382.816 85.0909L235.034 0L0 135.818L148.328 221.455Z" fill="#FCF9F0"/>
<path d="M147.237 600L381.725 464.182C392.632 344.182 392.632 217.636 382.816 85.6361L148.327 221.454C158.689 353.454 158.143 480 147.237 600Z" fill="url(#paint0_linear)"/>
<path d="M148.328 221.455L0 135.818V514.909L147.237 600C158.143 480 158.689 353.455 148.328 221.455Z" fill="#D5D5CC"/>
<path d="M313.681 373.508C343.647 321.593 343.625 265.466 313.631 248.144C283.638 230.822 235.03 258.866 205.063 310.781C175.097 362.696 175.119 418.823 205.112 436.145C235.106 453.466 283.714 425.423 313.681 373.508Z" fill="black"/>
<path d="M340.281 240.545C326.648 232.909 308.652 232.363 288.475 241.09L289.021 241.636C290.111 241.636 290.657 242.181 291.747 242.727C291.747 242.727 291.747 242.727 292.292 242.727C293.928 243.272 295.564 244.363 297.746 244.909C310.833 252.545 319.013 268.363 319.013 290.727C319.013 313.636 311.379 338.727 298.291 361.09C285.203 383.454 267.753 403.09 248.121 414.545C228.49 426 210.494 427.09 197.406 419.454C195.77 418.363 194.134 417.272 192.498 415.636C191.408 415.09 190.863 414 190.317 413.454C189.772 412.909 189.772 412.363 189.227 411.818C191.408 434.727 200.678 451.09 214.857 459.272C231.216 468.545 253.575 466.909 278.114 452.727C302.654 438.545 325.012 414 341.371 386.181C357.731 358.363 367.547 326.727 367.547 298.363C366.456 270 356.641 249.818 340.281 240.545Z" fill="#383838"/>
<path d="M339.191 228C321.74 218.182 297.201 219.272 270.48 235.091C243.759 250.363 219.22 277.091 201.769 307.636C184.319 338.182 173.413 372 173.413 403.091C173.413 433.636 184.319 455.454 202.315 465.818L204.496 467.454C187.046 457.091 176.685 435.818 176.685 405.273C176.685 374.727 187.591 340.363 205.041 309.818C222.492 279.273 247.031 253.091 273.752 237.273C300.473 222 325.012 220.363 342.462 230.182L339.191 228Z" fill="#BEBFBF"/>
<path d="M205.042 466.364C205.042 466.364 205.587 466.364 205.587 466.909L205.042 466.364Z" fill="#AAABAB"/>
<path d="M352.823 239.454C341.371 232.909 326.648 231.272 310.288 235.636C315.741 234.545 320.649 235.091 325.557 237.272C326.102 237.272 326.648 237.272 327.193 237.272C328.829 237.272 330.465 237.818 332.101 238.363C334.282 238.909 335.373 239.454 336.463 240C352.278 249.272 362.093 268.363 362.093 296.727C362.093 324.545 352.278 355.636 336.463 382.909C320.649 410.181 298.836 434.181 274.297 448.363C250.302 462.545 227.944 463.636 212.13 454.909C211.039 454.363 210.494 453.818 209.403 453.272C208.313 452.181 207.767 451.636 207.222 451.091C206.677 450.545 206.131 450 205.041 448.909C202.314 447.272 199.042 444.545 196.861 442.363C201.769 455.454 209.403 465.272 219.764 470.727C236.669 480.545 260.664 478.909 286.839 464.181C313.014 448.909 336.463 423.272 353.368 393.818C370.273 364.363 381.18 331.091 380.634 301.091C380.634 270.545 369.728 249.272 352.823 239.454Z" fill="#C2C3C6"/>
<path d="M363.184 248.182C362.639 247.636 362.094 246.545 361.548 246C360.458 244.909 359.367 243.273 358.276 242.182C357.186 241.091 355.55 239.454 354.459 238.363C353.914 237.818 352.823 237.273 352.278 236.727C351.187 235.636 349.006 234.545 347.915 233.454C346.279 232.363 344.643 231.273 343.007 230.182C325.557 220.363 301.018 221.454 274.297 237.273C247.576 252.545 223.037 279.273 205.586 309.818C188.136 340.363 177.229 374.182 177.229 405.273C177.229 435.818 188.136 457.636 206.132 468C208.313 469.091 209.403 469.636 211.585 470.727C213.221 471.273 215.402 472.363 216.493 472.909C217.038 473.454 218.129 473.454 219.219 474C220.855 474.545 222.491 475.091 224.127 475.091C225.763 475.636 227.944 476.182 230.126 476.182C231.216 476.182 232.307 476.182 233.398 476.727C230.671 475.091 229.035 472.909 229.035 469.636C226.854 469.091 225.218 468 223.037 466.909C206.677 457.636 196.316 437.454 196.316 409.091C196.316 380.182 206.132 348.545 222.491 320.727C238.851 292.363 261.209 267.818 286.294 253.636C311.379 239.454 333.737 237.818 350.097 247.091C351.187 247.636 352.278 248.182 353.369 249.273H353.914C357.731 249.273 361.548 249.818 364.275 252C363.73 249.273 363.73 248.727 363.184 248.182Z" fill="#C2C3C6"/>
<path d="M285.749 251.454C310.834 237.272 333.192 235.636 349.552 244.909C365.911 254.181 376.272 274.363 376.272 302.727C376.272 331.636 366.457 363.272 350.097 391.091C333.737 419.454 311.379 444 286.294 458.181C261.209 472.363 238.851 474 222.492 464.727C206.132 455.454 195.771 435.272 195.771 406.909C195.771 378 205.587 346.363 221.946 318.545C238.306 290.181 260.664 265.636 285.749 251.454ZM286.294 463.636C312.47 448.363 335.919 422.727 352.824 393.272C369.729 363.818 380.635 330.545 380.09 300.545C380.09 270.545 369.183 249.272 352.278 239.454C335.373 229.636 311.379 231.272 285.204 246C259.028 261.272 235.579 286.909 218.674 316.363C201.769 345.818 190.863 379.091 191.408 409.091C191.408 439.091 202.315 460.363 219.22 470.181C236.67 480.545 260.119 478.909 286.294 463.636Z" fill="#DFE0E0"/>
<path opacity="0.6" d="M285.748 251.454C260.663 265.636 238.305 290.727 221.945 318.545C205.586 346.909 195.77 378.545 195.77 406.909C195.77 430.909 202.859 448.909 214.856 459.818C230.671 468 252.484 465.818 276.478 452.182C301.017 438 323.375 413.454 339.735 385.636C356.095 357.818 365.911 326.181 365.911 297.818C365.911 270.545 356.64 251.454 341.916 241.636C326.102 236.181 307.016 239.454 285.748 251.454Z" fill="#2F7E9E"/>
<path opacity="0.2" d="M139.603 595.636V230.727L137.967 230.182V594.545L139.603 595.636Z" fill="black"/>
<path opacity="0.2" d="M0 150.545V148.363L149.418 234.545V236.727L0 150.545Z" fill="black"/>
<path d="M370.818 102L168.504 219.273C164.686 221.455 161.96 225.818 162.505 230.727C163.596 242.727 164.141 254.727 164.686 266.182C164.686 267.818 165.777 269.455 167.413 270.546C169.049 271.636 171.23 271.636 172.866 270.546L373.545 154.909C377.907 152.182 380.634 147.273 380.634 142.364C380.089 130.364 378.998 117.818 378.453 105.818C378.453 104.182 377.362 102.546 376.271 102C374.09 100.909 372.454 100.909 370.818 102Z" fill="black"/>
<path d="M164.687 266.182C164.141 254.182 163.051 242.727 162.505 230.727C161.96 226.364 164.687 221.455 168.504 219.273L370.818 102C372.454 100.909 374.09 100.909 375.726 102C375.726 102 373.545 100.364 371.909 99.8183C370.273 99.2729 368.637 98.7274 367.001 99.8183L164.687 217.091C160.869 219.273 158.143 223.637 158.688 228.546C159.779 240.546 160.324 252.546 160.869 264C160.869 266.182 161.96 267.273 163.596 268.364C165.232 269.455 167.413 270.546 167.413 270.546C165.777 270 164.687 268.364 164.687 266.182Z" fill="#3E333B"/>
<g opacity="0.5">
<path opacity="0.5" d="M243.759 220.364L241.578 187.091L298.292 154.364L300.473 187.637L243.759 220.364ZM243.214 187.637L245.395 218.182L299.928 187.091L297.746 156.546L243.214 187.637Z" fill="white"/>
</g>
<path d="M349.006 142.364C349.552 148.364 345.189 156 339.736 158.727C334.283 162 329.92 159.273 329.375 153.273C328.829 147.273 333.192 139.636 338.645 136.909C344.098 134.182 348.461 136.364 349.006 142.364Z" fill="#FF5102"/>
<path opacity="0.5" d="M356.095 123.818L348.46 133.091L356.095 125.454L370.819 117.272C371.364 117.272 371.364 116.182 371.364 116.182C371.364 115.636 370.819 115.636 370.273 115.636L356.095 123.818Z" fill="white"/>
<path opacity="0.4" d="M357.731 152.182L349.551 151.636L357.731 150L372.454 141.818C373 141.818 373.545 141.818 373.545 142.364C373.545 142.909 373 143.454 373 143.454L357.731 152.182Z" fill="white"/>
<path opacity="0.4" d="M358.822 135.818L351.187 141.272L359.367 138L371.909 130.909C372.455 130.909 372.455 129.818 372.455 129.818C372.455 129.272 371.909 129.272 371.364 129.272L358.822 135.818Z" fill="white"/>
<path opacity="0.5" d="M320.649 144L328.829 144.545L320.649 146.181L305.925 154.363C305.38 154.363 304.834 154.363 304.834 153.818C304.834 153.272 305.38 152.727 305.38 152.727L320.649 144Z" fill="white"/>
<path opacity="0.5" d="M322.83 172.363L330.465 163.09L322.83 170.727L308.106 178.909C307.561 178.909 307.561 180 307.561 180C307.561 180.545 308.106 180.545 308.652 180.545L322.83 172.363Z" fill="white"/>
<path opacity="0.5" d="M319.558 158.727L327.738 154.909L320.104 160.363L307.561 167.454C307.016 167.454 306.471 167.454 306.471 166.909C306.471 166.363 307.016 165.818 307.016 165.818L319.558 158.727Z" fill="white"/>
<path d="M233.943 181.091C235.034 198.545 236.124 216 237.215 232.909L235.034 234.545C233.943 217.091 232.852 200.182 231.762 182.727L233.943 181.091Z" fill="#3B3B3D"/>
<path d="M271.571 193.091C273.207 192 274.297 193.091 274.297 194.727C274.297 196.363 273.207 198.545 271.571 199.091C269.935 200.182 268.844 199.091 268.844 197.454C268.844 195.818 269.935 194.182 271.571 193.091Z" fill="#72AE15"/>
<path d="M275.933 188.727C275.388 189.272 274.843 189.818 274.297 189.818C273.207 189.818 272.662 189.818 271.571 190.363C270.48 190.909 269.39 192 268.844 193.091C268.299 193.636 267.754 194.182 267.208 193.636C266.663 193.091 266.663 192 267.208 191.454C268.299 189.818 269.935 188.182 271.571 187.636C273.207 186.545 274.297 186.545 275.933 186.545C276.479 187.091 276.479 188.182 275.933 188.727Z" fill="#72AE15"/>
<path d="M279.205 183.273C278.66 183.818 278.115 184.364 277.569 184.364C274.298 183.273 269.39 186 266.118 190.909C265.572 191.455 265.027 192 264.482 192C263.936 191.455 263.936 190.364 264.482 189.818C268.844 183.273 274.843 180 279.205 181.091C279.751 181.636 279.751 182.727 279.205 183.273Z" fill="#72AE15"/>
<path d="M281.932 177.818C281.386 178.364 280.841 178.909 280.296 178.909C275.388 176.727 267.753 181.091 262.845 189.273C262.3 189.818 261.755 190.364 261.209 190.364C260.664 189.818 260.664 189.273 261.209 188.182C267.208 178.909 275.933 173.454 281.932 176.182C282.477 176.182 282.477 177.273 281.932 177.818Z" fill="#72AE15"/>
<path d="M338.644 147.818C335.372 153.273 335.372 159.273 338.644 160.909C341.916 162.545 346.824 159.818 350.096 154.363C353.368 148.909 353.368 142.909 350.096 141.273C346.824 139.636 341.916 142.363 338.644 147.818Z" fill="#DEDEDE"/>
<path d="M338.645 147.818C341.917 142.363 346.825 139.636 350.097 141.273C350.097 141.273 347.916 140.182 345.189 138.545C341.917 136.909 337.009 139.636 333.737 145.091C330.465 150.545 330.465 156.545 333.737 158.182C337.009 159.818 339.19 161.454 339.19 161.454C335.373 159.272 335.373 153.273 338.645 147.818Z" fill="#B5B5B5"/>
<path d="M339.736 148.363C337.009 153.272 337.009 158.727 339.736 160.363C342.462 162 347.37 159.272 350.097 154.363C352.824 149.454 352.824 144 350.097 142.363C347.37 140.727 342.462 143.454 339.736 148.363Z" fill="#B5B5B5"/>
<path opacity="0.3" d="M335.373 141.818C334.827 142.909 333.737 143.455 333.191 144.546C332.646 145.636 332.646 146.727 332.101 147.273L337.554 150C338.099 148.909 338.099 148.364 338.644 147.273C339.19 146.182 339.735 145.091 340.826 144.546L335.373 141.818Z" fill="white"/>
<path d="M343.008 149.454L339.736 147.818L339.191 148.364C339.191 148.364 339.191 148.909 338.646 148.909L341.917 150.545C341.917 150.545 341.917 150.545 342.463 150.545C343.008 150.545 343.008 150.545 343.008 150C343.553 150 343.553 149.454 343.008 149.454Z" fill="#FF5102"/>
<path opacity="0.5" d="M178.32 264C177.775 258.545 181.592 252 186.5 248.727L212.13 234C217.038 231.273 221.401 233.454 221.401 238.909V242.182L223.037 241.091V237.818C222.491 231.273 217.583 228.545 211.585 231.818L185.955 246.545C179.956 249.818 175.593 258 176.139 264.545V267.818L177.775 266.727L178.32 264Z" fill="white"/>
<path opacity="0.1" d="M26.1757 199.091L19.0865 194.727C17.9959 194.182 16.9053 193.636 15.8146 193.636C15.2693 194.727 15.2693 195.818 15.2693 196.909V492C15.2693 496.909 18.5412 502.364 22.3585 504.546L29.4477 508.909C30.5383 509.455 31.629 510 32.7196 510C33.2649 508.909 33.2649 507.818 33.2649 506.727V211.636C33.2649 207.273 29.993 201.273 26.1757 199.091Z" fill="black"/>
<path opacity="0.15" d="M11.4521 199.091C11.4521 195.818 13.0881 193.636 15.2694 193.636C14.7241 194.727 14.7241 195.818 14.7241 196.909V492C14.7241 496.909 17.996 502.364 21.8133 504.545L28.9025 508.909C29.9931 509.455 31.0837 510 32.1744 510C31.0837 512.727 28.9025 512.727 26.1758 511.091L19.0867 507.273C15.2694 505.091 11.9975 499.091 11.9975 494.727L11.4521 199.091Z" fill="black"/>
<path opacity="0.1" d="M56.1684 216.545L49.0792 212.182C47.9886 211.636 46.8979 211.091 45.8073 211.091C45.262 212.182 45.262 213.273 45.262 214.363V509.454C45.262 514.363 48.5339 519.818 52.3512 522L59.4403 526.363C60.531 526.909 61.6216 527.454 62.7123 527.454C63.2576 526.363 63.2576 525.272 63.2576 524.182V229.091C63.2576 224.182 59.9857 218.727 56.1684 216.545Z" fill="black"/>
<path opacity="0.15" d="M41.4448 216.545C41.4448 213.273 43.0808 211.091 45.2621 211.091C44.7168 212.182 44.7168 213.273 44.7168 214.363V509.454C44.7168 514.363 47.9887 519.818 51.806 522L58.8951 526.363C59.9858 526.909 61.0764 527.454 62.1671 527.454C61.0764 529.636 58.3498 530.182 55.6232 528.545L48.534 524.182C44.7168 522 41.4448 516 41.4448 511.636V216.545Z" fill="black"/>
<path opacity="0.1" d="M85.6164 233.455L78.5272 229.091C77.4366 228.546 76.3459 228 75.2553 228C74.71 229.091 74.71 230.182 74.71 231.273V526.364C74.71 531.273 77.9819 536.728 81.7991 538.909L88.8883 543.273C89.979 543.818 91.0696 544.364 92.1603 544.364C92.7056 543.273 92.7056 542.182 92.7056 541.091V246C93.2509 241.637 89.979 236.182 85.6164 233.455Z" fill="black"/>
<path opacity="0.15" d="M71.4375 234C71.4375 230.727 73.0735 228.546 75.2548 228.546C74.7094 229.637 74.7094 230.727 74.7094 231.818V526.909C74.7094 531.818 77.9814 537.273 81.7986 539.455L88.8878 543.818C89.9785 544.364 91.0691 544.909 92.1597 544.909C91.0691 547.091 88.3425 547.637 85.6159 546L78.5267 541.637C74.7094 539.455 71.4375 533.455 71.4375 529.091V234Z" fill="black"/>
<path opacity="0.1" d="M115.609 250.909L108.52 246.546C107.429 246 106.339 245.455 105.248 245.455C104.703 246.545 104.703 247.636 104.703 248.727V543.818C104.703 548.727 107.975 554.182 111.792 556.364L118.881 560.727C119.972 561.273 121.063 561.818 122.153 561.818C122.699 560.727 122.699 559.636 122.699 558.545V263.455C122.699 259.091 119.427 253.091 115.609 250.909Z" fill="black"/>
<path opacity="0.15" d="M101.43 250.909C101.43 247.636 103.066 245.455 105.248 245.455C104.702 246.545 104.702 247.636 104.702 248.727V543.818C104.702 548.727 107.974 554.182 111.792 556.364L118.881 560.727C119.971 561.273 121.062 561.818 122.153 561.818C121.062 564 118.335 564.545 115.609 562.909L108.52 558.545C104.702 556.364 101.43 550.364 101.43 546V250.909Z" fill="black"/>
</g>
<defs>
<linearGradient id="paint0_linear" x1="147.467" y1="342.669" x2="389.793" y2="342.669" gradientUnits="userSpaceOnUse">
<stop stop-color="#EEEBE2"/>
<stop offset="1" stop-color="#E8E8DE"/>
</linearGradient>
<clipPath id="clip0">
<rect width="389.905" height="600" fill="white"/>
</clipPath>
</defs>
</svg>
