<svg width="40" height="40" viewBox="0 0 40 40" fill="none" xmlns="http://www.w3.org/2000/svg">
<path d="M38.1386 1.81571C37.5786 1.25429 36.67 1.25429 36.11 1.81571L1.81571 36.11C1.25571 36.6714 1.25571 37.5786 1.81571 38.1386C2.37571 38.6986 3.28286 38.6986 3.84286 38.1386L38.1386 3.84429C38.6986 3.28429 38.6986 2.37571 38.1386 1.81571ZM10 20C15.5229 20 20 15.5229 20 10C20 4.47714 15.5229 0 10 0C4.47714 0 0 4.47714 0 10C0 15.5229 4.47714 20 10 20ZM10 2.85714C13.9443 2.85714 17.1429 6.05429 17.1429 10C17.1429 13.9457 13.9443 17.1429 10 17.1429C6.05571 17.1429 2.85714 13.9457 2.85714 10C2.85714 6.05429 6.05571 2.85714 10 2.85714ZM30 20C24.4771 20 20 24.4771 20 30C20 35.5229 24.4771 40 30 40C35.5229 40 40 35.5229 40 30C40 24.4771 35.5229 20 30 20ZM30 37.1429C26.0557 37.1429 22.8571 33.9457 22.8571 30C22.8571 26.0543 26.0557 22.8571 30 22.8571C33.9443 22.8571 37.1429 26.0543 37.1429 30C37.1429 33.9457 33.9443 37.1429 30 37.1429Z" fill="#EF4C23"/>
</svg>
