<svg width="20" height="20" viewBox="0 0 20 20" fill="none" xmlns="http://www.w3.org/2000/svg">
<path d="M17.9545 4.54545H16.5908V3.63636C16.5908 1.62818 14.9631 0 12.9545 0C12.1126 0 11.3404 0.288636 10.724 0.768182L10.7285 0.774091C10.6472 0.856364 10.5967 0.969091 10.5967 1.09364C10.5967 1.345 10.8004 1.54818 11.0513 1.54818C11.1354 1.54818 11.2099 1.51955 11.2772 1.47955L11.2872 1.49227C11.7495 1.13227 12.3231 0.909091 12.9545 0.909091C14.4604 0.909091 15.6817 2.13045 15.6817 3.63636V4.54545H10.6817V3.63636C10.6817 1.62818 9.054 0 7.04537 0C5.03673 0 3.409 1.62818 3.409 3.63636V4.54545H2.04537C1.79446 4.54545 1.59082 4.74864 1.59082 5V19.5455C1.59082 19.7968 1.79446 20 2.04537 20H17.9545C18.2054 20 18.409 19.7968 18.409 19.5455V5C18.409 4.74864 18.2054 4.54545 17.9545 4.54545ZM4.31809 3.63636C4.31809 2.13045 5.539 0.909091 7.04537 0.909091C8.55128 0.909091 9.77264 2.13045 9.77264 3.63636V4.54545H4.31809V3.63636ZM12.0454 19.0909H2.49991V5.45455H3.409V6.81818C3.409 7.06955 3.61264 7.27273 3.86355 7.27273C4.11446 7.27273 4.31809 7.06955 4.31809 6.81818V5.45455H9.77264V6.81818C9.77264 7.06955 9.97628 7.27273 10.2272 7.27273C10.4781 7.27273 10.6817 7.06955 10.6817 6.81818V5.45455H12.0454V19.0909ZM12.9545 5.45455H14.7726V16.6041L12.9545 18.415V5.45455ZM13.6249 19.0909L15.2335 17.4891L16.8354 19.0909H13.6249ZM17.4999 18.4118L15.6817 16.5936V5.45455H17.4999V18.4118Z" fill="#EF4C23"/>
</svg>
