<svg width="40" height="40" viewBox="0 0 40 40" fill="none" xmlns="http://www.w3.org/2000/svg">
<path d="M39.985 6.17375C39.9794 6.13063 39.9738 6.08938 39.9594 6.04813C39.9469 6.01125 39.9287 5.97875 39.91 5.94562C39.8894 5.90875 39.8681 5.87437 39.84 5.84188C39.8144 5.8125 39.785 5.78938 39.7537 5.76562C39.7313 5.7475 39.7156 5.72375 39.69 5.70875L31.015 0.13875C31 0.126875 30.9844 0.119375 30.9688 0.10875L30.9294 0.08375C30.9231 0.08 30.9163 0.080625 30.91 0.076875C30.8844 0.06375 30.86 0.05125 30.8325 0.041875C30.8 0.030625 30.7675 0.023125 30.7337 0.0175C30.7094 0.0125 30.6856 0.00875 30.6606 0.0075C30.6481 0.00625 30.6375 0 30.625 0C30.6125 0 30.6019 0.00625 30.5894 0.006875C30.5644 0.00875 30.5413 0.0125 30.5163 0.016875C30.4819 0.0225 30.45 0.03 30.4175 0.04125C30.39 0.05125 30.3656 0.063125 30.34 0.07625C30.3337 0.079375 30.3269 0.079375 30.3206 0.083125L20 5.54187L9.67938 0.08375C9.67313 0.08 9.66625 0.080625 9.66 0.076875C9.63438 0.06375 9.61 0.05125 9.5825 0.041875C9.55 0.030625 9.5175 0.023125 9.48375 0.0175C9.45875 0.0125 9.43563 0.00875 9.41063 0.0075C9.39812 0.00625 9.3875 0 9.375 0C9.3625 0 9.35188 0.00625 9.33937 0.006875C9.31437 0.00875 9.29125 0.0125 9.26625 0.016875C9.23188 0.0225 9.2 0.03 9.1675 0.04125C9.14 0.05125 9.11562 0.063125 9.09 0.07625C9.08375 0.079375 9.07687 0.079375 9.07062 0.083125L9.03125 0.108125C9.01562 0.118125 9 0.12625 8.985 0.1375L0.31 5.70875C0.284375 5.72375 0.26875 5.7475 0.24625 5.76562C0.215 5.79 0.18625 5.8125 0.160625 5.84188C0.131875 5.87437 0.11125 5.90875 0.09 5.94562C0.07125 5.97875 0.053125 6.01125 0.040625 6.0475C0.026875 6.08937 0.020625 6.13063 0.015625 6.17375C0.011875 6.2 0 6.22312 0 6.25V39.375C0 39.3881 0.006875 39.3994 0.0075 39.4125C0.01 39.4544 0.02125 39.4938 0.031875 39.5344C0.0425 39.575 0.0525 39.6138 0.070625 39.6506C0.07625 39.6625 0.07625 39.6756 0.083125 39.6875C0.0975 39.7125 0.120625 39.7281 0.138125 39.7506C0.1625 39.7825 0.185625 39.8125 0.215625 39.8387C0.249375 39.8688 0.285625 39.8906 0.324375 39.9125C0.355 39.93 0.38375 39.9463 0.4175 39.9581C0.46125 39.9738 0.505625 39.98 0.551875 39.985C0.576875 39.9881 0.599375 40 0.625 40C0.6375 40 0.648125 39.9937 0.660625 39.9931C0.696875 39.9906 0.73125 39.9806 0.7675 39.9719C0.8175 39.96 0.865625 39.9469 0.91 39.9237C0.91625 39.9206 0.923125 39.9206 0.929375 39.9169L9.40562 34.4744L19.6956 39.9169C19.7019 39.9206 19.7087 39.92 19.715 39.9237C19.7406 39.9369 19.765 39.9494 19.7925 39.9587C19.825 39.97 19.8575 39.9775 19.8913 39.9831C19.9163 39.9881 19.9394 39.9919 19.9644 39.9931C19.9769 39.9937 19.9875 40 20 40C20.0125 40 20.0231 39.9937 20.0356 39.9931C20.0606 39.9912 20.0837 39.9875 20.1087 39.9831C20.1431 39.9775 20.175 39.97 20.2075 39.9587C20.235 39.9487 20.2594 39.9369 20.285 39.9237C20.2913 39.9206 20.2981 39.9206 20.3044 39.9169L30.5944 34.4744L39.0706 39.9169C39.0769 39.9206 39.0837 39.92 39.09 39.9237C39.1344 39.9469 39.1825 39.96 39.2325 39.9719C39.2687 39.9806 39.3031 39.9912 39.3394 39.9931C39.3519 39.9937 39.3625 40 39.375 40C39.4012 40 39.4231 39.9881 39.4481 39.985C39.4944 39.98 39.5381 39.9738 39.5825 39.9581C39.6162 39.9463 39.645 39.9294 39.6756 39.9125C39.7144 39.8913 39.7506 39.8688 39.7844 39.8387C39.8144 39.8125 39.8375 39.7819 39.8619 39.7506C39.8794 39.7281 39.9025 39.7131 39.9169 39.6875C39.9238 39.6756 39.9231 39.6625 39.9294 39.6506C39.9475 39.6138 39.9575 39.5744 39.9681 39.5344C39.9788 39.4931 39.9906 39.4544 39.9925 39.4125C39.9931 39.3994 40 39.3881 40 39.375V6.25C40 6.22312 39.9881 6.2 39.985 6.17375ZM8.75 33.4144L1.25 38.23V6.58562L8.75 1.77V33.4144ZM19.375 18.4569L17.685 20.1469C17.4312 20.4006 17.4312 20.8119 17.685 21.065C17.9387 21.3187 18.35 21.3187 18.6031 21.065L19.375 20.2931V38.3363L10 33.3781V1.66313L19.375 6.62125V18.4569ZM30 33.3781L20.625 38.3363V18.7956C20.6256 18.7775 20.6256 18.7606 20.625 18.7425V6.62188L30 1.66375V33.3781ZM38.75 15.94L37.3587 14.5494C37.1056 14.2962 36.6962 14.2962 36.4431 14.5494C36.19 14.8025 36.19 15.2125 36.4431 15.465L38.2744 17.2962C38.4056 17.4275 38.5781 17.4875 38.7494 17.4825V38.2306L31.2494 33.415V1.77L38.7494 6.58562V15.94H38.75ZM12.0763 26.6738C12.3313 26.9288 12.745 26.9288 13 26.6738L14.3856 25.2881L15.7712 26.6738C16.0262 26.9288 16.44 26.9288 16.695 26.6738C16.95 26.4188 16.95 26.005 16.695 25.75L15.3094 24.3644L16.6944 22.9794C16.9494 22.7244 16.9494 22.3106 16.6944 22.0556C16.4394 21.8006 16.0256 21.8006 15.7706 22.0556L14.3856 23.4406L13.0006 22.0556C12.7456 21.8006 12.3319 21.8006 12.0769 22.0556C11.8219 22.3106 11.8219 22.7244 12.0769 22.9794L13.4619 24.3644L12.0763 25.75C11.8212 26.005 11.8212 26.4188 12.0763 26.6738ZM22.9787 17.315L24.8156 15.4781C25.0694 15.2244 25.0694 14.8131 24.8156 14.56C24.5619 14.3062 24.1506 14.3062 23.8975 14.56L22.0606 16.3969C21.8069 16.6506 21.8069 17.0619 22.0606 17.315C22.3144 17.5688 22.7256 17.5688 22.9787 17.315ZM26.7287 13.565L28.5656 11.7281C28.8194 11.4744 28.8194 11.0631 28.5656 10.81C28.3119 10.5562 27.9006 10.5562 27.6475 10.81L25.8106 12.6469C25.5569 12.9006 25.5569 13.3119 25.8106 13.565C26.0644 13.8188 26.4756 13.8188 26.7287 13.565ZM34.5363 13.5569C34.7894 13.81 35.1994 13.81 35.4519 13.5569C35.705 13.3038 35.705 12.8938 35.4519 12.6412L33.6206 10.81C33.3675 10.5569 32.9575 10.5569 32.705 10.81C32.4525 11.0631 32.4519 11.4731 32.705 11.7256L34.5363 13.5569Z" fill="#505269"/>
</svg>
