<svg width="40" height="40" viewBox="0 0 40 40" fill="none" xmlns="http://www.w3.org/2000/svg">
<path fill-rule="evenodd" clip-rule="evenodd" d="M39.0909 21.0382H31.8182C31.3164 21.0382 30.9091 21.4445 30.9091 21.9472V25.5836C30.9091 26.0854 31.3164 26.4927 31.8182 26.4927H39.0909C39.5927 26.4927 40 26.0854 40 25.5836V21.9472C40 21.4445 39.5927 21.0382 39.0909 21.0382ZM38.1818 24.6745H32.7273V22.8563H38.1818V24.6745ZM35.4545 28.3109C34.9527 28.3109 34.5455 28.7172 34.5455 29.22V36.4927H1.81818V11.0382H34.5455V18.3109C34.5455 18.8127 34.9527 19.22 35.4545 19.22C35.9564 19.22 36.3636 18.8127 36.3636 18.3109V10.1291C36.3636 9.62633 35.9564 9.21997 35.4545 9.21997H0.909091C0.407273 9.21997 0 9.62633 0 10.1291V37.4018C0 37.9036 0.407273 38.3109 0.909091 38.3109H35.4545C35.9564 38.3109 36.3636 37.9036 36.3636 37.4018V29.22C36.3636 28.7172 35.9564 28.3109 35.4545 28.3109Z" fill="#EF4C23"/>
<path d="M29.3498 2.73452C29.0989 2.29907 28.5425 2.14998 28.108 2.4018L22.5053 5.63634L18.8243 1.95543C18.4689 1.59998 17.8943 1.59998 17.5389 1.95543L10.2734 9.21998H12.8453L18.1816 3.88362L20.8753 6.57725L16.298 9.21998H19.9343L28.2289 4.43089L30.9934 9.21998H33.0934L29.3498 2.73452Z" fill="#EF4C23"/>
</svg>
