<svg width="23" height="43" viewBox="0 0 23 43" fill="none" xmlns="http://www.w3.org/2000/svg">
<path d="M11.8906 42.7324C9.82357 42.7324 8.04948 42.4395 6.56836 41.8535C5.10352 41.2513 3.94792 40.3724 3.10156 39.2168C2.25521 38.0612 1.63672 36.7428 1.24609 35.2617C0.871745 33.7643 0.68457 32.0309 0.68457 30.0615V28.6211H9.05859V30.0371C9.07487 32.1042 9.28646 33.569 9.69336 34.4316C10.1003 35.278 10.8652 35.7012 11.9883 35.7012C13.0788 35.7012 13.8031 35.2861 14.1611 34.4561C14.5192 33.626 14.6982 32.2425 14.6982 30.3057C14.6982 28.1898 14.3971 26.6436 13.7949 25.667C13.209 24.6904 12.0941 24.1777 10.4502 24.1289H8.98535V18.2695H10.3037C11.9964 18.2533 13.152 17.7975 13.7705 16.9023C14.389 15.9909 14.6982 14.4935 14.6982 12.4102C14.6982 10.7663 14.4785 9.55371 14.0391 8.77246C13.6159 7.99121 12.8672 7.60059 11.793 7.60059C10.735 7.60059 10.0189 8.02376 9.64453 8.87012C9.27018 9.7002 9.07487 10.9372 9.05859 12.5811V14.6562H0.68457V12.2148C0.68457 8.60156 1.66113 5.81022 3.61426 3.84082C5.58366 1.87142 8.30176 0.886719 11.7686 0.886719C15.3167 0.886719 18.0674 1.83073 20.0205 3.71875C21.9736 5.59049 22.9502 8.30859 22.9502 11.873C22.9502 14.168 22.4782 16.1211 21.5342 17.7324C20.6064 19.3438 19.4183 20.3447 17.9697 20.7354C21.29 21.9398 22.9502 25.0566 22.9502 30.0859C22.9502 32.0065 22.7467 33.7155 22.3398 35.2129C21.9492 36.7103 21.3226 38.0368 20.46 39.1924C19.6136 40.3317 18.4661 41.2106 17.0176 41.8291C15.569 42.4313 13.86 42.7324 11.8906 42.7324Z" fill="#505269"/>
</svg>
