<svg width="240" height="80" viewBox="0 0 240 80" fill="none" xmlns="http://www.w3.org/2000/svg">
<g clip-path="url(#clip0)">
<path d="M234.77 51.0718C235.448 51.0718 236.029 51.543 236.126 52.2026L239.806 79.623L215.884 64.6407C215.303 64.2638 215.109 63.4157 215.496 62.8504C215.884 62.285 216.756 62.0965 217.337 62.4735L236.417 74.3463L233.414 52.4852C233.317 51.7314 233.802 51.0718 234.576 50.9776C234.576 51.0718 234.673 51.0718 234.77 51.0718Z" fill="#505269"/>
<path d="M227.409 58.6101C227.797 58.6101 228.087 58.7044 228.378 58.9871C228.475 59.0813 228.571 59.2697 228.668 59.4582C228.765 59.6467 228.765 59.7409 228.765 59.9293C228.765 60.3063 228.668 60.5889 228.378 60.8716C228.281 60.9659 228.281 60.9658 228.184 61.0601C228.087 61.1543 227.99 61.1543 227.99 61.1543C227.893 61.1543 227.797 61.2485 227.7 61.2485C227.506 61.2485 227.312 61.2485 227.216 61.2485C227.119 61.2485 227.022 61.2485 226.925 61.1543C226.828 61.1543 226.731 61.0601 226.731 61.0601C226.634 61.0601 226.634 60.9659 226.538 60.8716C226.247 60.5889 226.15 60.3063 226.15 59.9293C226.15 59.7409 226.15 59.5524 226.247 59.4582C226.344 59.2697 226.441 59.1755 226.538 58.9871C226.731 58.7986 227.022 58.6101 227.409 58.6101Z" fill="#505269"/>
<path d="M121.065 1.50767C121.065 2.2615 120.484 2.82687 119.709 2.82687C118.935 2.82687 118.353 2.2615 118.353 1.50767C118.353 0.753843 118.935 0.188478 119.709 0.188478C120.484 0.188478 121.065 0.84807 121.065 1.50767ZM125.521 1.6019C125.521 2.35573 124.939 2.9211 124.165 2.9211C123.39 2.9211 122.809 2.35573 122.809 1.6019C122.809 0.848077 123.39 0.282701 124.165 0.376932C124.939 0.282701 125.521 0.848077 125.521 1.6019ZM116.61 1.6019C116.61 2.35573 116.029 2.9211 115.351 2.9211C114.576 2.9211 113.995 2.35573 113.995 1.69613C113.995 0.942305 114.576 0.376932 115.254 0.376932C115.254 0.376932 115.254 0.376932 115.351 0.376932C115.932 0.376932 116.513 0.942305 116.61 1.6019ZM129.976 1.69613C129.976 2.44996 129.298 2.9211 128.62 2.9211C127.845 2.9211 127.264 2.2615 127.361 1.50767C127.361 0.753842 128.039 0.188474 128.717 0.282704C129.492 0.376931 130.073 1.03653 129.976 1.69613ZM112.155 1.79036C112.155 2.54419 111.671 3.10956 110.896 3.20379C110.121 3.29801 109.54 2.73264 109.443 1.97881C109.443 1.22499 109.927 0.659613 110.702 0.565386L110.799 0.565386C111.477 0.565386 112.058 1.13076 112.155 1.79036ZM133.269 0.659619C134.044 0.753846 134.528 1.31922 134.528 2.07304C134.431 2.82687 133.85 3.29801 133.075 3.29801C132.3 3.20378 131.816 2.63841 131.816 1.88458C131.816 1.22498 132.494 0.659619 133.172 0.659619C133.172 0.659619 133.172 0.659619 133.269 0.659619ZM107.603 2.16727C107.7 2.9211 107.119 3.48647 106.441 3.5807C105.666 3.67493 105.085 3.10956 104.988 2.44995C104.891 1.69613 105.472 1.13076 106.15 1.03653L106.247 1.03653C107.022 0.942302 107.603 1.50767 107.603 2.16727ZM137.724 1.03653C138.499 1.13075 138.983 1.79035 138.886 2.44995C138.789 3.20378 138.111 3.67493 137.433 3.5807C136.659 3.48647 136.174 2.82687 136.271 2.16727C136.368 1.50767 136.949 1.03653 137.627 1.03653C137.627 1.03653 137.627 1.03653 137.724 1.03653ZM103.245 2.63842C103.341 3.39225 102.857 3.95762 102.082 4.05184C101.307 4.14607 100.63 3.5807 100.63 2.9211C100.533 2.16727 101.114 1.50767 101.792 1.50767C101.792 1.50767 101.889 1.50767 101.985 1.50767C102.567 1.41344 103.148 1.97882 103.245 2.63842ZM142.179 1.6019C142.954 1.69613 143.438 2.35573 143.341 3.10956C143.245 3.86338 142.567 4.33453 141.792 4.2403C141.017 4.14607 140.533 3.48647 140.63 2.73264C140.726 2.07304 141.307 1.6019 141.985 1.6019C142.082 1.6019 142.082 1.6019 142.179 1.6019ZM98.7893 3.20379C98.8862 3.95761 98.4019 4.61721 97.6271 4.71144C96.8523 4.80567 96.1743 4.33453 96.0774 3.5807C95.9806 2.82687 96.4649 2.16728 97.2397 2.07305C97.3365 2.07305 97.3365 2.07305 97.4334 2.07305C98.1114 2.07305 98.6925 2.54419 98.7893 3.20379ZM146.634 2.35572C147.409 2.44995 147.893 3.20378 147.7 3.86338C147.603 4.61721 146.828 5.08836 146.15 4.8999C145.375 4.80567 144.891 4.05184 145.085 3.39224C145.182 2.73264 145.763 2.35572 146.441 2.35572C146.538 2.35572 146.538 2.35572 146.634 2.35572ZM94.3341 3.86338C94.431 4.61721 93.9467 5.27682 93.2687 5.37104C92.4939 5.46528 91.816 4.99413 91.7191 4.33453C91.6222 3.5807 92.1065 2.9211 92.7845 2.82687C92.8813 2.82687 92.9782 2.82687 92.9782 2.82687C93.6562 2.73264 94.2373 3.20379 94.3341 3.86338ZM151.09 3.20378C151.864 3.39224 152.252 4.05184 152.155 4.71144C151.961 5.46527 151.283 5.84218 150.605 5.74795C149.83 5.55949 149.443 4.8999 149.54 4.14607C149.637 3.5807 150.218 3.10956 150.896 3.10956C150.896 3.20378 150.993 3.20378 151.09 3.20378ZM89.9758 4.61721C90.1695 5.37104 89.6852 6.03064 88.9104 6.12487C88.2324 6.2191 87.4576 5.84219 87.3607 5.08836C87.2639 4.33453 87.6513 3.67493 88.4261 3.5807C88.523 3.5807 88.6198 3.5807 88.7167 3.5807C89.2978 3.5807 89.7821 3.95762 89.9758 4.61721ZM155.448 4.24029C156.126 4.42875 156.61 5.18259 156.416 5.84218C156.223 6.50178 155.448 6.97293 154.77 6.78447C154.092 6.59601 153.608 5.84218 153.801 5.18258C153.995 4.61721 154.479 4.24029 155.061 4.24029C155.254 4.24029 155.351 4.24029 155.448 4.24029ZM85.5206 5.46528C85.7143 6.12487 85.23 6.8787 84.552 6.97293C83.7772 7.16139 83.0993 6.69024 82.9055 6.03064C82.7118 5.27681 83.1961 4.61722 83.8741 4.52299C83.9709 4.52299 84.0678 4.52299 84.1646 4.52299C84.8426 4.42876 85.4237 4.8999 85.5206 5.46528ZM159.806 5.46527C160.484 5.65372 160.872 6.40755 160.678 7.06715C160.484 7.72675 159.709 8.19789 159.031 7.91521C158.353 7.72675 157.966 6.97293 158.16 6.31333C158.353 5.74795 158.838 5.37104 159.419 5.37104C159.613 5.37104 159.709 5.37104 159.806 5.46527ZM81.1622 6.40756C81.3559 7.06716 80.8717 7.82099 80.1937 8.00944C79.4189 8.1979 78.7409 7.72675 78.5472 7.06716C78.3535 6.40756 78.8377 5.65373 79.5157 5.46528C79.6126 5.46528 79.7094 5.46528 79.8063 5.46528C80.4842 5.46528 81.0653 5.84219 81.1622 6.40756ZM76.9007 7.44407C77.0944 8.10367 76.707 8.8575 75.9322 9.04595C75.2542 9.23441 74.4794 8.8575 74.2857 8.10367C74.092 7.44407 74.4794 6.69024 75.2542 6.50179C75.3511 6.50179 75.4479 6.50179 75.6416 6.50179C76.1259 6.50179 76.707 6.8787 76.9007 7.44407ZM164.165 6.78447C164.843 7.06715 165.23 7.72675 165.036 8.48058C164.746 9.14018 164.068 9.51709 163.293 9.32863C162.615 9.04595 162.228 8.38635 162.421 7.63252C162.615 7.06715 163.099 6.78447 163.68 6.78447C163.874 6.69024 163.971 6.69024 164.165 6.78447ZM72.5424 8.57481C72.7361 9.23441 72.3486 9.98824 71.6707 10.1767C70.9927 10.3652 70.2179 9.98824 70.0242 9.32864C69.8305 8.66904 70.2179 7.91522 70.9927 7.72676C71.0896 7.72676 71.2833 7.72676 71.3801 7.72676C71.8644 7.63253 72.3486 8.00944 72.5424 8.57481ZM168.426 8.29212C169.104 8.57481 169.492 9.32863 169.201 9.98823C168.91 10.6478 168.136 11.0247 167.458 10.7421C166.78 10.4594 166.392 9.70554 166.683 9.04595C166.876 8.48057 167.361 8.19789 167.942 8.19789C168.039 8.19789 168.232 8.19789 168.426 8.29212ZM68.2808 9.79978C68.4745 10.4594 68.0872 11.2132 67.4092 11.4017C66.7312 11.5901 65.9564 11.2132 65.7627 10.5536C65.569 9.89402 65.9564 9.14019 66.6344 8.95173C66.7312 8.95173 66.9249 8.8575 67.0218 8.8575C67.506 8.95173 68.0871 9.23441 68.2808 9.79978ZM172.591 9.894C173.269 10.1767 173.559 10.9305 173.269 11.5901C172.978 12.2497 172.203 12.5324 171.525 12.2497C170.847 11.967 170.557 11.2132 170.847 10.5536C171.041 10.0825 171.525 9.79978 172.107 9.79978C172.203 9.79978 172.397 9.894 172.591 9.894ZM64.0193 11.119C64.2131 11.7786 63.8256 12.5324 63.1477 12.7209C62.4697 12.9093 61.6949 12.5324 61.4043 11.8728C61.2106 11.2132 61.598 10.4594 62.276 10.2709C62.3729 10.2709 62.5666 10.1767 62.6634 10.1767C63.2445 10.2709 63.8256 10.5536 64.0193 11.119ZM59.7578 12.5324C60.0484 13.192 59.661 13.9458 58.8862 14.2285C58.2082 14.5112 57.4334 14.1343 57.1428 13.4747C56.9491 12.8151 57.2397 12.0613 58.0145 11.7786C58.2082 11.6844 58.3051 11.6844 58.4988 11.6844C58.983 11.5901 59.5641 11.967 59.7578 12.5324ZM176.659 11.7786C177.337 12.0613 177.627 12.9093 177.24 13.4747C176.949 14.1343 176.174 14.417 175.496 14.1343C174.818 13.8516 174.528 13.0035 174.818 12.4382C175.012 11.967 175.496 11.6843 176.077 11.6843C176.271 11.5901 176.465 11.6843 176.659 11.7786ZM55.4963 13.9458C55.7869 14.6054 55.3995 15.3593 54.7215 15.6419C54.0436 15.9246 53.2687 15.5477 52.9782 14.8881C52.6876 14.2285 53.075 13.4747 53.753 13.192C53.8498 13.192 54.0436 13.0978 54.2373 13.0978C54.8184 13.0978 55.3026 13.3805 55.4963 13.9458ZM180.726 13.7574C181.404 14.1343 181.598 14.8881 181.307 15.5477C180.92 16.2073 180.145 16.3958 179.467 16.1131C178.789 15.8304 178.596 14.9823 178.886 14.3227C179.08 13.8516 179.564 13.6631 180.048 13.6631C180.339 13.5689 180.533 13.6631 180.726 13.7574ZM51.3317 15.4535C51.6222 16.1131 51.2348 16.8669 50.5569 17.1496C49.8789 17.4323 49.1041 17.0554 48.8135 16.3958C48.523 15.7362 48.9104 14.9823 49.5883 14.6997C49.7821 14.6054 49.8789 14.6054 50.0726 14.6054C50.6537 14.6054 51.138 14.9824 51.3317 15.4535ZM184.697 15.8304C185.375 16.2073 185.569 16.9611 185.182 17.6207C184.794 18.2803 184.019 18.4688 183.341 18.0919C182.663 17.715 182.47 16.9611 182.857 16.3015C183.148 15.9246 183.535 15.6419 184.019 15.6419C184.31 15.6419 184.504 15.7362 184.697 15.8304ZM47.167 17.0554C47.4576 17.715 47.0702 18.4688 46.3922 18.7515C45.7143 19.0342 44.9394 18.6573 44.6489 17.9977C44.3583 17.3381 44.7457 16.5842 45.4237 16.3016C45.6174 16.2073 45.7143 16.2073 45.908 16.2073C46.3922 16.2073 46.9733 16.49 47.167 17.0554ZM43.0024 18.6573C43.293 19.3169 43.0024 20.0707 42.3244 20.3534C41.6465 20.6361 40.8717 20.3534 40.5811 19.6938C40.2905 19.0342 40.5811 18.2803 41.2591 17.9977C41.4528 17.9034 41.6465 17.9034 41.7433 17.9034C42.3244 17.9034 42.8087 18.1861 43.0024 18.6573ZM188.571 18.0919C189.153 18.4688 189.346 19.3169 188.959 19.8822C188.571 20.4476 187.7 20.6361 187.119 20.2591C186.538 19.8822 186.344 19.0342 186.731 18.4688C187.022 18.0919 187.409 17.8092 187.893 17.8092C188.087 17.9034 188.378 17.9977 188.571 18.0919ZM38.8378 20.3534C39.1283 21.013 38.8378 21.7668 38.1598 22.0495C37.4818 22.3322 36.707 22.0495 36.4164 21.3899C36.1259 20.7303 36.4164 19.9765 37.0944 19.6938C37.2881 19.5995 37.4818 19.5996 37.6755 19.5996C38.1598 19.5996 38.6441 19.8822 38.8378 20.3534ZM192.349 20.5418C192.93 20.9187 193.123 21.7668 192.736 22.3322C192.349 22.8975 191.477 23.086 190.896 22.7091C190.315 22.3322 190.121 21.4841 190.508 20.9187C190.799 20.5418 191.186 20.3534 191.574 20.3534C191.864 20.3534 192.155 20.3534 192.349 20.5418ZM34.77 22.1437C35.0605 22.8033 34.7699 23.5571 34.092 23.8398C33.414 24.1225 32.6392 23.8398 32.3486 23.1802C32.0581 22.5206 32.3486 21.7668 33.0266 21.4841C33.2203 21.3899 33.414 21.3899 33.6077 21.3899C34.092 21.3899 34.5763 21.6726 34.77 22.1437ZM196.029 23.086C196.61 23.5571 196.804 24.311 196.32 24.8763C195.835 25.4417 195.061 25.5359 194.479 25.159C193.898 24.6879 193.801 23.9341 194.189 23.3687C194.479 22.9918 194.867 22.8033 195.254 22.8033C195.545 22.8033 195.835 22.8975 196.029 23.086ZM30.7021 23.9341C30.9927 24.5937 30.7022 25.3475 30.0242 25.6302C29.3462 25.9129 28.5714 25.6302 28.2809 24.9706C27.9903 24.311 28.2809 23.5571 28.9588 23.2745C29.1525 23.1802 29.3462 23.1802 29.5399 23.1802C30.0242 23.1802 30.5085 23.4629 30.7021 23.9341ZM26.6344 25.8186C26.9249 26.4782 26.6344 27.2321 26.0533 27.5147C25.3753 27.7974 24.6005 27.5147 24.3099 26.9494C24.0193 26.2898 24.3099 25.5359 24.891 25.159C25.0847 25.0648 25.2784 25.0648 25.4721 25.0648C25.9564 25.0648 26.4407 25.3475 26.6344 25.8186ZM199.613 25.8186C200.194 26.2898 200.291 27.0436 199.806 27.609C199.322 28.1743 198.547 28.2686 197.966 27.7974C197.385 27.3263 197.288 26.5724 197.772 26.0071C198.063 25.7244 198.45 25.5359 198.838 25.5359C199.128 25.5359 199.419 25.6302 199.613 25.8186ZM22.6634 27.7032C22.954 28.3628 22.7603 29.1166 22.0823 29.4935C21.4043 29.7762 20.6295 29.5878 20.2421 28.9282C19.9516 28.2686 20.1452 27.5147 20.8232 27.1378C21.0169 27.0436 21.2106 27.0436 21.4043 27.0436C21.9855 26.9494 22.4697 27.2321 22.6634 27.7032ZM203.099 28.6455C203.68 29.1166 203.68 29.9647 203.196 30.4358C202.712 31.0012 201.84 31.0012 201.259 30.53C200.678 30.0589 200.678 29.2108 201.162 28.7397C201.453 28.457 201.84 28.2686 202.131 28.2686C202.518 28.2686 202.809 28.3628 203.099 28.6455ZM18.6925 29.682C18.983 30.3416 18.7893 31.0954 18.1114 31.4723C17.4334 31.755 16.6586 31.5666 16.2712 30.907C15.9806 30.2474 16.1743 29.4935 16.8523 29.1166C17.046 29.0224 17.2397 28.9282 17.4334 28.9282C17.9176 28.9282 18.4019 29.2109 18.6925 29.682ZM14.7215 31.6608C15.1089 32.3204 14.8184 33.0742 14.1404 33.4511C13.4624 33.8281 12.6876 33.5454 12.3002 32.8858C11.9128 32.2262 12.2034 31.4723 12.8813 31.0954C13.075 31.0012 13.2688 30.907 13.4624 30.907C13.9467 31.0012 14.431 31.1897 14.7215 31.6608ZM206.489 31.5666C207.07 32.0377 207.07 32.8858 206.586 33.4511C206.102 33.9223 205.23 34.0165 204.649 33.5454C204.068 33.0742 204.068 32.2262 204.552 31.6608C204.843 31.3781 205.133 31.2839 205.521 31.2839C205.908 31.1896 206.199 31.3781 206.489 31.5666ZM10.7506 33.7338C11.138 34.3934 10.8474 35.1473 10.2663 35.5242C9.58836 35.9011 8.81354 35.6184 8.42611 34.9588C8.03871 34.2992 8.32927 33.5454 8.91038 33.1685C9.10409 33.0742 9.2978 32.98 9.58836 32.98C10.0726 33.0742 10.46 33.2627 10.7506 33.7338ZM209.685 34.6761C210.169 35.1472 210.169 35.9953 209.685 36.5607C209.201 37.0318 208.329 37.0318 207.748 36.5607C207.264 36.0895 207.264 35.2415 207.748 34.7703C208.039 34.4876 208.329 34.3934 208.717 34.3934C209.104 34.2992 209.395 34.3934 209.685 34.6761ZM6.87649 35.8069C7.2639 36.4665 6.97334 37.2203 6.39223 37.5972C5.71426 37.9741 4.93944 37.6914 4.55203 37.1261C4.16463 36.4665 4.45518 35.7126 5.0363 35.3357C5.22999 35.2415 5.52057 35.1473 5.71426 35.1473C6.10168 35.1473 6.58594 35.4299 6.87649 35.8069ZM212.784 37.8799C213.269 38.4452 213.269 39.1991 212.688 39.7644C212.107 40.2356 211.332 40.2356 210.751 39.6702C210.266 39.1048 210.266 38.351 210.847 37.7856C211.138 37.5972 211.429 37.4087 211.719 37.4087C212.203 37.4087 212.591 37.5972 212.784 37.8799ZM215.787 41.1779C216.271 41.7432 216.174 42.4971 215.593 42.9682C215.012 43.4393 214.14 43.3451 213.656 42.7797C213.172 42.2144 213.269 41.3663 213.85 40.9894C214.14 40.8009 214.431 40.7067 214.722 40.7067C215.206 40.7067 215.593 40.8009 215.787 41.1779ZM218.692 44.5701C219.177 45.1355 219.08 45.9835 218.499 46.3604C217.918 46.8316 217.046 46.7373 216.659 46.172C216.174 45.6066 216.271 44.7585 216.852 44.2874C217.143 44.0989 217.433 44.0047 217.724 44.0047C218.015 44.0989 218.402 44.1932 218.692 44.5701ZM221.404 48.0565C221.889 48.6219 221.695 49.47 221.114 49.8469C220.533 50.318 219.661 50.1296 219.274 49.5642C218.789 48.9988 218.983 48.1508 219.564 47.7739C219.758 47.5854 220.048 47.4912 220.339 47.4912C220.726 47.4912 221.114 47.6796 221.404 48.0565ZM224.019 51.7315C224.407 52.2968 224.31 53.1449 223.632 53.5218C223.051 53.8987 222.179 53.7102 221.792 53.1449C221.404 52.5795 221.501 51.7315 222.179 51.3545C222.373 51.1661 222.663 51.1661 222.954 51.1661C223.245 51.1661 223.729 51.3545 224.019 51.7315ZM226.344 55.5006C226.731 56.066 226.538 56.914 225.86 57.2909C225.182 57.6678 224.407 57.4794 224.019 56.8198C223.632 56.1602 223.826 55.4064 224.504 55.0294C224.697 54.9352 224.988 54.841 225.182 54.841C225.666 54.841 226.15 55.0294 226.344 55.5006Z" fill="#505269"/>
<path d="M1.74345 37.3145C1.93715 37.3145 2.13085 37.3145 2.2277 37.4087C2.42141 37.5029 2.51826 37.5972 2.71196 37.6914C2.90567 37.7856 2.90567 37.9741 3.00252 38.0683C3.09937 38.2568 3.09937 38.351 3.09937 38.5394C3.09937 38.6337 3.09937 38.7279 3.09937 38.8221C3.09937 38.9164 3.09937 39.0106 3.00252 39.1048C3.00252 39.199 2.90566 39.2933 2.90566 39.2933C2.90566 39.3875 2.80882 39.4817 2.71196 39.4817C2.22771 39.9529 1.25919 39.9529 0.774929 39.4817C0.678077 39.3875 0.67808 39.3875 0.581228 39.2933C0.484376 39.199 0.48437 39.199 0.48437 39.1048C0.48437 39.0106 0.387527 38.9164 0.387527 38.8221C0.387527 38.7279 0.387527 38.6337 0.387527 38.5394C0.387527 38.351 0.387518 38.1625 0.48437 38.0683C0.581222 37.8798 0.678077 37.7856 0.774928 37.6914C0.87178 37.5972 1.06548 37.5029 1.25919 37.4087C1.35604 37.3145 1.54974 37.3145 1.74345 37.3145Z" fill="#505269"/>
</g>
<defs>
<clipPath id="clip0">
<rect width="240" height="80" fill="white" transform="translate(240 80) rotate(180)"/>
</clipPath>
</defs>
</svg>
