<svg width="160" height="160" viewBox="0 0 160 160" fill="none" xmlns="http://www.w3.org/2000/svg">
<g opacity="1">
<path d="M116.493 9.84L117.315 2.984C117.49 1.52167 116.447 0.194333 114.984 0.019C114.879 0.00633333 114.773 0 114.667 0H82.6667C81.1941 0 80.0001 1.19367 79.9997 2.66633C79.9997 2.77233 80.0061 2.87867 80.0187 2.984L80.6347 8.11467C56.4071 9.32667 37.3741 29.3023 37.3334 53.56V90.6667C37.3334 92.1393 38.5274 93.3333 40.0001 93.3333H53.3334C54.0407 93.3333 54.7187 93.052 55.2187 92.552L60.5521 87.2187L56.7814 83.448L52.2294 88H42.6667V53.56C42.7017 31.9977 59.7251 14.2947 81.2694 13.416L84.6854 41.8667C78.4034 46.3617 74.6734 53.609 74.6667 61.3333V77.3333C74.6661 81.464 75.7394 85.524 77.7814 89.1147L57.5627 109.333H53.3334V98.6667H48.0001V109.333H31.5094C30.3834 106.148 27.3781 104.014 24.0001 104H18.6667C14.2484 104 10.6667 107.582 10.6667 112C10.6667 116.418 14.2484 120 18.6667 120H24.0001C27.3781 119.986 30.3834 117.852 31.5094 114.667H48.0001V117.472C48.0104 127.699 56.2981 135.988 66.5254 136H101.333V157.333C101.333 158.806 102.527 160 104 160H146.667C148.139 160 149.333 158.806 149.333 157.333V53.56C149.397 33.282 135.986 15.4283 116.493 9.84ZM24.0001 114.667H18.6667C17.1941 114.667 16.0001 113.473 16.0001 112C16.0001 110.527 17.1941 109.333 18.6667 109.333H24.0001C25.4727 109.333 26.6667 110.527 26.6667 112C26.6667 113.473 25.4727 114.667 24.0001 114.667ZM111.661 5.33333L105.955 52.872C101.541 49.9313 95.7924 49.9313 91.3787 52.872L85.6721 5.33333H111.661ZM106.667 64V74.6667C106.667 79.085 103.085 82.6667 98.6667 82.6667C94.2484 82.6667 90.6667 79.085 90.6667 74.6667V64C90.6667 59.5817 94.2484 56 98.6667 56C103.085 56 106.667 59.5817 106.667 64ZM80.0001 61.3333C80.0084 56.4087 81.9661 51.6877 85.4454 48.2027L86.6534 58.2747C85.7937 60.0613 85.3427 62.0173 85.3334 64V74.6667C85.3334 82.0303 91.3031 88 98.6667 88C106.03 88 112 82.0303 112 74.6667V64C111.991 62.0173 111.54 60.0613 110.68 58.2747L111.891 48.176C115.386 51.6613 117.345 56.3977 117.333 61.3333V77.3333C117.333 87.6427 108.976 96 98.6667 96C88.3574 96 80.0001 87.6427 80.0001 77.3333V61.3333ZM144 154.667H106.667V133.333C106.667 131.861 105.473 130.667 104 130.667H66.5254C59.2427 130.656 53.3421 124.755 53.3334 117.472V114.667H58.6667C59.3741 114.667 60.0521 114.385 60.5521 113.885L80.9601 93.4773C89.8544 103.277 105.009 104.011 114.809 95.1167C119.823 90.5657 122.678 84.1053 122.667 77.3333V61.3333C122.682 53.608 118.946 46.356 112.648 41.8827L115.851 15.2C132.641 20.416 144.061 35.9787 144 53.56V154.667Z" fill="#efefef"/>
</g>
</svg>
