<svg width="600" height="600" viewBox="0 0 600 600" fill="none" xmlns="http://www.w3.org/2000/svg">
<path d="M462.817 272.906L419.246 240.701L410.405 252.699L453.976 284.903C455.87 286.166 458.396 286.798 460.922 286.166C462.185 285.535 463.448 284.903 464.711 283.641C466.605 279.852 465.974 275.432 462.817 272.906Z" fill="url(#paint0_linear)"/>
<path d="M519.015 333.525C521.541 332.894 523.436 331.631 524.699 329.105C528.487 324.053 527.856 315.844 522.173 312.055L465.973 269.116C460.921 265.327 452.712 265.959 448.923 271.642C445.134 276.694 445.766 284.903 451.449 288.691L507.649 331.631C510.806 334.157 515.227 334.788 519.015 333.525Z" fill="#3B3B3B"/>
<path opacity="0.1" d="M451.449 274.166C448.923 277.955 455.238 284.27 484.916 305.739C514.595 327.209 517.121 330.366 520.278 326.578C522.804 322.789 510.806 313.948 490.599 299.425C471.024 284.27 454.606 270.378 451.449 274.166Z" fill="white"/>
<path d="M51.1034 397.932L291.059 536.222C304.319 543.8 326.42 543.8 339.681 536.222L490.6 449.081C497.546 445.292 500.704 440.24 500.704 435.189C500.704 435.189 500.704 488.231 500.704 493.283C500.704 498.335 497.546 503.386 490.6 507.175L339.681 594.317C326.42 601.894 304.319 601.894 291.059 594.317L51.1034 456.027C44.1573 451.606 41 446.555 41 441.503C41 436.451 41 383.409 41 383.409C41 388.46 44.1573 393.512 51.1034 397.932Z" fill="#3E333B"/>
<path d="M51.1034 369.518L202.023 282.377C215.283 274.799 237.384 274.799 250.645 282.377L490.6 420.666C497.546 424.455 500.704 429.507 500.704 434.559C500.704 439.61 497.546 444.662 490.6 448.451L339.681 536.224C326.42 543.801 304.319 543.801 291.059 536.224L51.1034 397.934C44.1573 393.514 41 388.462 41 383.41C41 378.359 44.1573 373.307 51.1034 369.518Z" fill="#5C4C57"/>
<path d="M256.96 493.916L306.845 522.963C313.16 526.752 323.894 526.752 330.209 522.963L467.236 444.03C473.551 440.242 473.551 434.558 467.236 430.77L417.351 401.722C411.036 397.934 400.301 397.934 393.987 401.722L256.96 480.024C250.013 483.812 250.013 490.127 256.96 493.916Z" fill="#EEEBE2"/>
<path d="M319.474 519.176C320.737 519.807 322.631 519.807 323.263 519.176L460.29 440.243C461.553 439.612 461.553 438.349 460.29 437.717C459.027 437.086 457.133 437.086 456.501 437.717L319.474 516.65C318.843 517.281 318.843 518.544 319.474 519.176Z" fill="#454B4D"/>
<path d="M263.273 486.338C262.01 485.707 262.01 484.444 263.273 483.812L400.3 404.88C401.563 404.248 403.457 404.248 404.089 404.88C405.352 405.511 405.352 406.774 404.089 407.406L267.062 486.338C265.799 486.97 263.904 486.97 263.273 486.338Z" fill="#454B4D"/>
<path d="M308.105 512.228C309.368 512.86 311.262 512.86 311.894 512.228L448.921 433.296C450.184 432.664 450.184 431.401 448.921 430.77C447.658 430.139 445.763 430.139 445.132 430.77L308.105 510.334C307.473 510.966 307.473 511.597 308.105 512.228Z" fill="#454B4D"/>
<path d="M296.74 505.915C298.003 506.546 299.897 506.546 300.529 505.915L437.556 426.982C438.819 426.35 438.819 425.087 437.556 424.456C436.293 423.825 434.399 423.825 433.767 424.456L296.74 503.389C296.109 504.02 296.109 505.283 296.74 505.915Z" fill="#454B4D"/>
<path d="M285.375 499.6C286.638 500.232 288.532 500.232 289.164 499.6L426.191 420.667C427.454 420.036 427.454 418.773 426.191 418.142C424.928 417.51 423.034 417.51 422.402 418.142L285.375 497.074C284.744 497.706 284.744 498.969 285.375 499.6Z" fill="#454B4D"/>
<path d="M274.638 492.653C275.901 493.284 277.795 493.284 278.427 492.653L415.454 413.72C416.717 413.089 416.717 411.826 415.454 411.194C414.191 410.563 412.297 410.563 411.665 411.194L274.638 490.758C273.375 491.39 273.375 492.021 274.638 492.653Z" fill="#454B4D"/>
<path d="M307.474 408.667C307.474 412.456 307.474 416.245 308.105 420.033C308.105 423.822 308.737 427.611 309.368 431.4C310.631 438.977 311.894 446.555 314.42 453.501C316.946 460.447 320.103 467.393 323.892 473.708C328.312 479.391 333.995 484.442 340.31 487.6C346.624 490.757 353.57 492.02 360.516 492.02C366.831 492.02 373.146 490.757 378.829 488.231C384.512 485.705 389.564 481.917 393.984 476.865C399.035 471.182 402.193 464.867 404.719 457.921C407.244 450.975 409.139 444.029 410.402 436.451C411.665 428.874 412.296 421.928 412.928 414.35C412.928 412.456 412.928 410.561 412.928 408.667C412.928 412.456 411.665 416.876 409.139 420.033C406.613 423.822 402.824 426.979 399.035 429.505C395.247 432.031 390.826 433.925 386.406 435.188C381.355 437.083 376.303 437.714 371.251 438.346C365.568 438.977 360.516 438.977 354.833 438.977C349.782 438.977 344.73 438.346 340.31 437.083C335.889 435.82 331.469 434.557 327.68 432.663C323.892 430.768 320.734 428.874 317.577 426.348C315.051 424.454 312.525 421.928 310.631 418.77C308.737 416.245 308.105 413.087 307.474 409.93C307.474 410.561 307.474 409.298 307.474 408.667Z" fill="#FEB938"/>
<path d="M327.052 389.725C335.892 384.673 347.259 381.516 359.888 381.516C385.778 381.516 406.616 393.514 406.616 408.669C406.616 416.246 401.564 423.193 392.724 427.613C383.883 432.664 372.517 435.822 359.888 435.822C333.998 435.822 313.16 423.824 313.16 408.669C313.791 401.091 318.843 394.777 327.052 389.725Z" fill="#F09A35"/>
<path d="M327.05 440.874L328.944 439.611C328.944 442.137 328.944 444.032 328.944 445.926C328.944 445.926 328.944 445.926 328.944 446.557L327.05 447.82C318.209 452.872 311.263 465.501 311.263 475.605C311.263 485.708 318.209 490.128 327.05 485.077L337.153 479.393L341.573 483.814L327.05 492.023C320.735 495.811 315.684 495.811 311.263 493.286C307.475 490.76 304.949 486.339 304.949 478.762C304.949 464.87 314.421 447.82 327.05 440.874Z" fill="#FEB938"/>
<path d="M321.367 437.718L323.262 436.455L328.313 439.612L326.419 440.875C314.421 447.821 304.318 464.87 304.318 479.394C304.318 486.34 306.844 491.392 310.632 493.918C310.632 493.918 305.581 491.392 305.581 490.76C301.792 488.234 299.266 483.814 299.266 476.237C299.266 461.713 309.369 444.664 321.367 437.718Z" fill="#FED851"/>
<path d="M313.159 483.813C315.685 484.444 318.21 483.181 321.368 481.919L331.471 476.235L336.523 479.393L326.419 485.076C320.736 488.233 315.685 487.602 313.159 483.813Z" fill="#F09A35"/>
<path d="M359.885 439.61C374.409 439.61 387.669 436.453 397.141 430.77C406.613 425.086 412.928 417.509 412.928 409.3C412.928 392.251 389.564 378.358 360.516 378.358C345.993 378.358 332.732 381.516 323.26 387.199C313.788 392.882 307.474 400.46 307.474 408.669C307.474 425.718 330.838 439.61 359.885 439.61ZM313.157 408.669C313.157 401.091 318.208 394.145 327.049 389.725C335.889 384.673 347.256 381.516 359.885 381.516C385.775 381.516 406.613 393.513 406.613 408.669C406.613 416.246 401.561 423.192 392.721 427.612C383.88 432.664 372.514 435.821 359.885 435.821C333.995 435.821 313.157 423.824 313.157 408.669Z" fill="#FED851"/>
<path d="M327.051 408.037C335.892 402.985 347.258 399.828 359.887 399.828C380.094 399.828 397.144 407.405 403.458 417.509C400.932 421.297 397.144 424.455 392.092 427.612C383.251 432.664 371.885 435.821 359.256 435.821C339.049 435.821 322 428.243 315.685 418.14C318.842 414.351 322.631 411.194 327.051 408.037Z" fill="#50281C"/>
<path opacity="0.8" d="M340.943 421.297C336.522 423.192 332.102 424.455 328.313 423.823C321.999 422.56 316.316 416.246 322.63 411.194C323.262 410.562 323.893 409.931 325.156 409.3C325.788 408.668 326.419 408.668 327.05 408.037C335.891 402.985 347.257 399.828 359.886 399.828C373.147 399.828 384.513 402.985 393.354 408.037C398.406 411.825 399.669 417.509 390.828 422.56C383.882 426.349 374.41 423.823 365.57 420.034C357.992 417.509 349.152 417.509 340.943 421.297Z" fill="white"/>
<path d="M352.944 339.839C354.839 343.628 356.733 346.785 358.627 350.574C358.627 350.574 358.627 351.205 359.259 351.205C359.89 351.837 361.153 351.837 362.416 351.205L363.048 350.574C364.942 346.785 366.836 343.628 368.731 339.839C368.099 340.47 367.468 341.102 366.836 341.733C363.679 343.628 358.627 343.628 355.47 341.733C353.576 341.102 352.944 340.47 352.944 339.839Z" fill="#CCD1D4"/>
<path d="M388.303 319.634C390.198 323.423 392.092 326.58 393.986 330.369C393.986 330.369 393.986 331.001 394.618 331.001C395.249 331.632 396.512 331.632 397.775 331.001L398.407 330.369C400.301 326.58 402.195 323.423 404.09 319.634C403.458 320.266 402.827 320.897 402.195 321.529C399.038 323.423 393.986 323.423 390.829 321.529C389.566 320.897 388.935 320.266 388.303 319.634Z" fill="#CCD1D4"/>
<path d="M404.093 321.527L366.837 342.997C363.048 344.891 356.733 344.891 352.944 342.997C351.05 341.734 349.787 340.471 349.787 339.208C349.787 337.945 349.787 320.896 349.787 320.896L406.619 299.426C406.619 299.426 406.619 315.844 406.619 317.739C406.619 319.002 405.987 320.264 404.093 321.527Z" fill="#A4A9AB"/>
<path d="M421.141 258.381C421.141 258.381 421.141 293.111 421.141 296.269C421.141 303.846 412.932 313.318 399.04 321.527C378.202 333.525 352.312 337.945 340.946 331.63C337.157 329.736 335.894 326.579 335.894 323.421C335.894 315.844 335.894 285.534 335.894 285.534L421.141 258.381Z" fill="#CCD1D4"/>
<path d="M167.292 224.283L287.27 293.112V349.313L167.292 418.773V224.283Z" fill="#D5D5CC"/>
<path d="M215.284 3.9021C226.019 -2.41251 241.174 -1.14959 257.592 8.32233L415.457 99.2527C431.875 108.725 440.084 121.354 440.084 133.983C440.084 146.612 431.875 159.242 415.457 168.713C382.621 187.657 328.947 187.657 295.479 168.713L137.614 77.7831C121.196 68.3111 106.041 67.0482 95.3062 73.3628C101.621 69.5741 204.549 10.2167 215.284 3.9021Z" fill="#F7F6F2"/>
<path d="M77.6235 366.993V111.883C77.6235 92.9388 84.5696 79.6782 95.3044 73.3635C106.039 67.0489 121.194 67.6804 137.612 77.7838L295.478 168.714C328.314 187.658 381.988 187.658 415.455 168.714C431.873 159.242 440.082 146.613 440.082 133.984C440.082 133.984 440.082 251.436 440.082 263.433C440.082 276.063 431.873 288.692 415.455 298.164C382.619 317.108 328.945 317.108 295.478 298.164L167.291 224.283V418.773L77.6235 366.993Z" fill="url(#paint1_linear)"/>
<path d="M112.986 63.2595C143.928 44.9471 207.074 8.95379 215.283 3.9021C226.018 -2.41251 241.173 -1.14959 257.591 8.32233L407.247 94.8325C435.663 111.251 435.663 137.772 407.247 154.19C378.831 170.608 332.735 170.608 304.951 154.19L154.663 67.6797C138.245 58.2078 123.721 56.9448 112.986 63.2595Z" fill="#5C4C57"/>
<path opacity="0.1" d="M167.292 224.283L231.07 381.517L287.27 349.313V293.112L167.292 224.283Z" fill="black"/>
<path d="M414.825 235.649C419.876 232.491 423.665 232.491 425.56 233.754C426.191 233.754 428.717 235.649 428.717 235.649C428.717 235.649 427.454 252.698 426.822 256.487C421.771 274.168 404.721 277.325 404.721 277.325C404.721 277.325 401.564 275.431 400.933 275.431C399.038 274.168 397.775 272.905 396.512 271.011C390.198 259.644 400.933 243.858 414.825 235.649Z" fill="#BF2219"/>
<path d="M434.401 246.384C435.033 257.119 427.455 271.011 417.983 276.063C408.511 281.746 399.671 277.326 399.039 266.591C398.408 255.856 405.985 241.964 415.457 236.912C420.509 233.755 425.561 233.755 428.718 235.649C431.875 237.544 433.77 241.332 434.401 246.384Z" fill="#F85B30"/>
<path d="M415.456 256.486C409.773 266.589 409.773 277.324 415.456 280.482C421.139 283.639 430.611 278.587 436.294 268.484C441.978 258.38 441.978 247.646 436.294 244.488C430.611 241.331 421.139 246.383 415.456 256.486Z" fill="#DEDEDE"/>
<path d="M415.456 256.486C421.139 247.015 429.98 241.331 435.663 244.489C435.663 244.489 431.874 242.594 426.191 239.437C420.508 236.28 411.036 241.331 405.353 251.435C399.67 261.538 399.67 272.273 405.353 275.43C411.036 278.588 414.825 281.113 414.825 281.113C409.773 277.325 409.773 266.59 415.456 256.486Z" fill="#B5B5B5"/>
<path d="M417.35 257.117C412.299 265.957 412.299 276.061 417.35 279.218C422.402 282.375 431.242 277.324 436.294 268.483C441.346 259.643 441.346 249.539 436.294 246.382C431.242 243.225 422.402 248.276 417.35 257.117Z" fill="#B5B5B5"/>
<path opacity="0.3" d="M409.773 245.752C408.51 247.015 407.247 248.91 405.984 250.804C405.352 252.699 404.089 253.961 403.458 255.856L413.561 260.907C414.193 259.645 414.824 257.75 415.456 256.487C416.719 254.593 417.982 252.699 419.245 251.436L409.773 245.752Z" fill="white"/>
<path d="M394.619 311.424L415.457 323.422L436.295 311.424L415.457 299.426L394.619 311.424Z" fill="#B5B5B5"/>
<path d="M394.618 322.158L415.456 334.156V323.421L394.618 311.423V322.158Z" fill="#8F8F8F"/>
<path d="M414.824 319.633C421.139 310.793 431.242 305.11 437.557 306.372C438.188 306.372 438.819 306.372 438.819 307.004C443.871 309.53 553.114 365.73 553.114 365.73L527.224 411.195C501.334 395.408 499.44 387.831 466.604 366.993C443.871 352.469 412.93 337.946 412.93 337.946C408.509 334.788 409.141 327.842 414.824 319.633Z" fill="#3E333B"/>
<path d="M527.223 411.194C534.169 415.614 546.167 408.668 553.744 396.039C560.69 383.41 560.69 370.149 553.744 365.729C546.798 361.309 534.8 368.255 527.223 380.884C519.645 393.513 519.645 407.405 527.223 411.194Z" fill="#5C4C57"/>
<path opacity="0.1" d="M531.644 408.669C537.327 411.826 547.43 406.775 553.113 396.04C558.797 385.937 558.797 374.57 553.113 371.413C547.43 368.256 537.327 373.307 531.644 384.042C525.329 394.146 525.329 404.88 531.644 408.669Z" fill="white"/>
<defs>
<linearGradient id="paint0_linear" x1="410.634" y1="263.375" x2="465.882" y2="263.375" gradientUnits="userSpaceOnUse">
<stop stop-color="#EEEBE2"/>
<stop offset="1" stop-color="#E8E8DE"/>
</linearGradient>
<linearGradient id="paint1_linear" x1="440.161" y1="243.847" x2="77.9014" y2="243.847" gradientUnits="userSpaceOnUse">
<stop stop-color="#EEEBE2"/>
<stop offset="1" stop-color="#E8E8DE"/>
</linearGradient>
</defs>
</svg>
