<svg width="80" height="80" viewBox="0 0 80 80" fill="none" xmlns="http://www.w3.org/2000/svg">
<path d="M77.5 10H2.5C1.11875 10 0 11.1187 0 12.5V67.5C0 68.8812 1.11875 70 2.5 70H77.5C78.8812 70 80 68.8812 80 67.5V12.5C80 11.1187 78.8812 10 77.5 10ZM77.5 65.725L51.775 40L77.5 14.275V65.725ZM75.725 12.5L40 48.225L4.275 12.5H75.725ZM2.5 14.275L28.225 40L2.5 65.725V14.275ZM30 41.775L39.1038 50.8787C39.3512 51.1262 39.6763 51.2475 40 51.245C40.3237 51.2475 40.6488 51.1262 40.8962 50.8787L50 41.775L75.725 67.5H4.275L30 41.775Z" fill="#505269"/>
</svg>
