<svg width="20" height="20" viewBox="0 0 20 20" fill="none" xmlns="http://www.w3.org/2000/svg">
<path d="M20 1.11607C20 0.803571 19.8661 0.535714 19.6429 0.3125C19.4196 0.133929 19.1518 0 18.8839 0H1.11607C0.758929 0 0.491071 0.133929 0.3125 0.3125C0.0892857 0.535714 0 0.803571 0 1.11607V18.8839C0 19.1964 0.0892857 19.4643 0.3125 19.6875C0.491071 19.9107 0.758929 20 1.11607 20H10.6696V12.2321H8.08036V9.24107H10.6696V7.00893C10.6696 5.75893 11.0268 4.77679 11.7411 4.0625C12.4554 3.39286 13.3929 3.03571 14.5536 3.03571C15.4464 3.03571 16.25 3.08036 16.875 3.125V5.84821H15.2679C14.6875 5.84821 14.2857 5.98214 14.0625 6.25C13.8839 6.47321 13.7946 6.83036 13.7946 7.32143V9.24107H16.7857L16.3839 12.2321H13.7946V20H18.8839C19.1964 20 19.4643 19.9107 19.6875 19.6875C19.8661 19.4643 20 19.1964 20 18.8839V1.11607Z" fill="#26293C"/>
</svg>
