<svg width="80" height="13" viewBox="0 0 80 13" fill="none" xmlns="http://www.w3.org/2000/svg">
<g clip-path="url(#clip0)">
<path fill-rule="evenodd" clip-rule="evenodd" d="M70.1874 12.0838V0.499512H74.0489C74.3669 0.499512 74.7303 0.499512 75.0029 0.54494C75.7297 0.590369 76.3203 0.726655 76.8655 0.90837C77.5923 1.18094 78.1829 1.5898 78.728 2.2258C79.5458 3.17981 79.9546 4.49724 79.9546 6.08725C79.9546 7.9044 79.5003 9.31269 78.5009 10.4484C77.9558 11.0844 77.3652 11.4933 76.6837 11.7658C76.2295 11.9476 75.6389 12.0838 75.0483 12.1293C74.7757 12.1747 74.4577 12.1747 74.0943 12.1747H70.1874V12.0838ZM75.0029 1.81695C74.5032 1.72609 73.9126 1.72609 73.1857 1.72609H71.8229V10.9027H73.958C74.3215 10.9027 74.6849 10.8573 75.0029 10.8118C75.9569 10.6755 76.6837 10.2667 77.1835 9.67612C77.8649 8.81297 78.1829 7.67725 78.1829 6.22353C78.1829 4.86067 77.8649 3.77038 77.1835 2.99809C76.7746 2.5438 76.3203 2.18037 75.7297 1.99866C75.5026 1.9078 75.2755 1.86237 75.0029 1.81695Z" fill="black"/>
<path fill-rule="evenodd" clip-rule="evenodd" d="M0.0908813 12.0838V0.499512H1.63546C1.63546 13.0833 1.63546 -7.22337 1.63546 12.1293H0.0908813V12.0838Z" fill="black"/>
<path fill-rule="evenodd" clip-rule="evenodd" d="M10.585 12.0838V0.499512H18.4896V1.72609H12.2204V5.45124H18.0807V6.67782H12.2204V10.8573H18.6258V12.0838H10.585Z" fill="black"/>
<path fill-rule="evenodd" clip-rule="evenodd" d="M20.4429 12.0838V0.499512H22.0784L28.1204 9.67612V0.499512H29.5287V12.0838H27.7115L21.8512 3.13438V12.0838H20.4429Z" fill="black"/>
<path fill-rule="evenodd" clip-rule="evenodd" d="M34.117 12.0839L31.1187 0.49953H32.7087L35.071 9.67613L37.7059 0.454102L39.2505 0.49953L41.9307 9.94871L44.293 0.49953H45.8376L42.5667 12.0839H41.113L38.4782 2.54382L35.7524 12.0839H34.117Z" fill="black"/>
<path fill-rule="evenodd" clip-rule="evenodd" d="M51.5162 11.1754C52.6519 11.1754 53.6059 10.7665 54.2419 9.90339C54.8779 9.04024 55.1959 7.81367 55.1959 6.31452C55.1959 4.81537 54.8779 3.5888 54.2419 2.72565C53.6059 1.8625 52.6974 1.45365 51.5162 1.45365C50.3805 1.45365 49.4265 1.8625 48.7905 2.72565C48.1545 3.5888 47.8365 4.76994 47.8365 6.31452C47.8365 7.8591 48.1545 9.04024 48.7905 9.90339C49.4719 10.7211 50.3805 11.1754 51.5162 11.1754ZM51.5162 0.181641C53.1516 0.181641 54.4691 0.726785 55.4685 1.8625C56.4679 2.95279 56.9677 4.45194 56.9677 6.31452C56.9677 8.1771 56.4679 9.63082 55.4685 10.7665C54.4691 11.8568 53.1516 12.4474 51.5162 12.4474C49.8808 12.4474 48.5633 11.9023 47.5639 10.7665C46.5645 9.63082 46.0648 8.1771 46.0648 6.31452C46.0648 4.45194 46.5645 2.99822 47.5639 1.8625C48.5633 0.726785 49.8808 0.181641 51.5162 0.181641Z" fill="black"/>
<path fill-rule="evenodd" clip-rule="evenodd" d="M63.3731 11.1754C64.5088 11.1754 65.4628 10.7665 66.0988 9.90339C66.7348 9.04024 67.0528 7.81367 67.0528 6.31452C67.0528 4.81537 66.7348 3.5888 66.0988 2.72565C65.4628 1.8625 64.5542 1.45365 63.3731 1.45365C62.1919 1.45365 61.2834 1.8625 60.6474 2.72565C60.0114 3.5888 59.6933 4.76994 59.6933 6.31452C59.6933 7.8591 60.0114 9.04024 60.6474 9.90339C61.3288 10.7211 62.2374 11.1754 63.3731 11.1754ZM63.3731 0.181641C65.0085 0.181641 66.3259 0.726785 67.3254 1.8625C68.3248 2.95279 68.8245 4.45194 68.8245 6.31452C68.8245 8.1771 68.3248 9.63082 67.3254 10.7665C66.3259 11.8568 65.0085 12.4474 63.3731 12.4474C61.7376 12.4474 60.4202 11.9023 59.4208 10.7665C58.4213 9.63082 57.9216 8.1771 57.9216 6.31452C57.9216 4.45194 58.4213 2.99822 59.4208 1.8625C60.4202 0.726785 61.7376 0.181641 63.3731 0.181641Z" fill="black"/>
<path fill-rule="evenodd" clip-rule="evenodd" d="M1.63544 6.04182L6.22374 0.499512H7.99546L3.45259 6.04182L8.81318 12.1293H6.90517C5.95117 11.039 5.76945 10.8573 1.63544 6.04182Z" fill="#D24A43"/>
</g>
<defs>
<clipPath id="clip0">
<rect width="80" height="12.4929" fill="white"/>
</clipPath>
</defs>
</svg>
