<svg width="64" height="29" viewBox="0 0 64 29" fill="none" xmlns="http://www.w3.org/2000/svg">
<path d="M3.30273 19.7002H13.4102V22H0.475586V0.671875H3.30273V19.7002ZM15.4756 13.9287C15.4756 12.376 15.7783 10.9795 16.3838 9.73926C16.999 8.49902 17.8486 7.54199 18.9326 6.86816C20.0264 6.19434 21.2715 5.85742 22.668 5.85742C24.8262 5.85742 26.5693 6.60449 27.8975 8.09863C29.2354 9.59277 29.9043 11.5801 29.9043 14.0605V14.251C29.9043 15.7939 29.6064 17.1807 29.0107 18.4111C28.4248 19.6318 27.5801 20.584 26.4766 21.2676C25.3828 21.9512 24.123 22.293 22.6973 22.293C20.5488 22.293 18.8057 21.5459 17.4678 20.0518C16.1396 18.5576 15.4756 16.5801 15.4756 14.1191V13.9287ZM18.2002 14.251C18.2002 16.0088 18.6055 17.4199 19.416 18.4844C20.2363 19.5488 21.3301 20.0811 22.6973 20.0811C24.0742 20.0811 25.168 19.5439 25.9785 18.4697C26.7891 17.3857 27.1943 15.8721 27.1943 13.9287C27.1943 12.1904 26.7793 10.7842 25.9492 9.70996C25.1289 8.62598 24.0352 8.08398 22.668 8.08398C21.3301 8.08398 20.251 8.61621 19.4307 9.68066C18.6104 10.7451 18.2002 12.2686 18.2002 14.251ZM32.6582 13.9434C32.6582 11.4727 33.2295 9.50977 34.3721 8.05469C35.5146 6.58984 37.0283 5.85742 38.9131 5.85742C40.8467 5.85742 42.3555 6.54102 43.4395 7.9082L43.5713 6.15039H46.0469V21.6191C46.0469 23.6699 45.4365 25.2861 44.2158 26.4678C43.0049 27.6494 41.374 28.2402 39.3232 28.2402C38.1807 28.2402 37.0625 27.9961 35.9688 27.5078C34.875 27.0195 34.04 26.3506 33.4639 25.501L34.8701 23.875C36.0322 25.3105 37.4531 26.0283 39.1328 26.0283C40.4512 26.0283 41.4766 25.6572 42.209 24.915C42.9512 24.1729 43.3223 23.1279 43.3223 21.7803V20.418C42.2383 21.668 40.7588 22.293 38.8838 22.293C37.0283 22.293 35.5244 21.5459 34.3721 20.0518C33.2295 18.5576 32.6582 16.5215 32.6582 13.9434ZM35.3828 14.251C35.3828 16.0381 35.749 17.4443 36.4814 18.4697C37.2139 19.4854 38.2393 19.9932 39.5576 19.9932C41.2666 19.9932 42.5215 19.2168 43.3223 17.6641V10.4277C42.4922 8.91406 41.2471 8.15723 39.5869 8.15723C38.2686 8.15723 37.2383 8.66992 36.4961 9.69531C35.7539 10.7207 35.3828 12.2393 35.3828 14.251ZM49.4307 13.9287C49.4307 12.376 49.7334 10.9795 50.3389 9.73926C50.9541 8.49902 51.8037 7.54199 52.8877 6.86816C53.9814 6.19434 55.2266 5.85742 56.623 5.85742C58.7812 5.85742 60.5244 6.60449 61.8525 8.09863C63.1904 9.59277 63.8594 11.5801 63.8594 14.0605V14.251C63.8594 15.7939 63.5615 17.1807 62.9658 18.4111C62.3799 19.6318 61.5352 20.584 60.4316 21.2676C59.3379 21.9512 58.0781 22.293 56.6523 22.293C54.5039 22.293 52.7607 21.5459 51.4229 20.0518C50.0947 18.5576 49.4307 16.5801 49.4307 14.1191V13.9287ZM52.1553 14.251C52.1553 16.0088 52.5605 17.4199 53.3711 18.4844C54.1914 19.5488 55.2852 20.0811 56.6523 20.0811C58.0293 20.0811 59.123 19.5439 59.9336 18.4697C60.7441 17.3857 61.1494 15.8721 61.1494 13.9287C61.1494 12.1904 60.7344 10.7842 59.9043 9.70996C59.084 8.62598 57.9902 8.08398 56.623 8.08398C55.2852 8.08398 54.2061 8.61621 53.3857 9.68066C52.5654 10.7451 52.1553 12.2686 52.1553 14.251Z" fill="black"/>
</svg>
