<svg width="600" height="600" viewBox="0 0 600 600" fill="none" xmlns="http://www.w3.org/2000/svg">
<path d="M589.485 111.72L193.866 340.416L0 228.039L395.619 0L589.485 111.72Z" fill="url(#paint0_linear)"/>
<path d="M589.485 363.417L193.866 591.457V340.416L589.485 111.72L600 155.093V331.873L589.485 363.417Z" fill="#919191"/>
<path d="M193.866 340.416L589.485 111.72L600 155.093L236.583 364.732L193.866 340.416Z" fill="#FCF9F0"/>
<path d="M236.583 541.512L193.866 591.457L589.485 363.417L600 331.873L236.583 541.512Z" fill="#C0BCB3"/>
<path d="M600 155.094L236.583 364.732V541.512L600 331.874V155.094Z" fill="#5EA9F0"/>
<path d="M511.28 207.011L515.223 204.382V380.505L511.28 383.133V207.011Z" fill="#2A2B2B"/>
<path d="M504.711 161.008L500.768 163.637L511.282 207.01L515.225 204.381L504.711 161.008Z" fill="#343636"/>
<path d="M515.225 380.503L511.282 383.132L500.768 414.676L505.368 412.048L515.225 380.503Z" fill="black"/>
<path opacity="0.2" d="M352.902 474.479L292.442 509.31L394.962 274.041L455.422 239.211L352.902 474.479Z" fill="white"/>
<path opacity="0.2" d="M391.677 452.136L369.333 465.279L471.852 229.354L493.539 216.868L391.677 452.136Z" fill="white"/>
<g opacity="0.4">
<path opacity="0.4" d="M529.025 314.129V207.667L588.171 173.494V279.956L529.025 314.129ZM530.997 208.324V310.843L586.2 278.642V176.122L530.997 208.324Z" fill="white"/>
</g>
<g opacity="0.4">
<g opacity="0.4">
<g opacity="0.4">
<path opacity="0.4" d="M544.14 327.272L532.968 333.844C530.997 335.158 529.025 333.844 529.025 331.872V328.587C529.025 325.958 530.997 323.329 532.968 322.015L544.14 315.443C546.112 314.129 548.083 315.443 548.083 317.415V320.701C548.083 322.672 546.112 325.958 544.14 327.272ZM532.968 323.329C531.654 323.986 530.34 325.958 530.34 327.272V330.558C530.34 331.872 531.654 332.53 532.968 331.872L544.14 325.301C545.455 324.644 546.769 322.672 546.769 321.358V318.072C546.769 316.757 545.455 316.1 544.14 316.757L532.968 323.329Z" fill="white"/>
</g>
<g opacity="0.4">
<path opacity="0.4" d="M564.513 315.442L553.341 322.013C551.37 323.328 549.398 322.013 549.398 320.042V316.756C549.398 314.127 551.37 311.499 553.341 310.184L564.513 303.613C566.485 302.298 568.456 303.613 568.456 305.584V308.87C567.799 311.499 566.485 314.127 564.513 315.442ZM553.341 311.499C552.027 312.156 550.713 314.127 550.713 315.442V318.728C550.713 320.042 552.027 320.699 553.341 320.042L564.513 313.47C565.828 312.813 567.142 310.841 567.142 309.527V306.241C567.142 304.927 565.828 304.27 564.513 304.927L553.341 311.499Z" fill="white"/>
</g>
<g opacity="0.4">
<path opacity="0.4" d="M584.228 303.614L573.056 310.185C571.085 311.5 569.113 310.185 569.113 308.214V304.928C569.113 302.299 571.085 299.671 573.056 298.356L584.228 291.784C586.2 290.47 588.171 291.784 588.171 293.756V297.042C588.171 299.671 586.2 302.956 584.228 303.614ZM573.056 299.671C571.742 300.328 570.428 302.299 570.428 303.614V306.899C570.428 308.214 571.742 308.871 573.056 308.214L584.228 301.642C585.543 300.985 586.857 299.013 586.857 297.699V294.413C586.857 293.099 585.543 292.442 584.228 293.099L573.056 299.671Z" fill="white"/>
</g>
</g>
<g opacity="0.4">
<g opacity="0.4">
<path opacity="0.4" d="M544.14 341.074L532.968 347.645C530.997 348.96 529.025 347.645 529.025 345.674V342.388C529.025 339.759 530.997 337.13 532.968 335.816L544.14 329.244C546.112 327.93 548.083 329.244 548.083 331.216V334.502C548.083 337.131 546.112 339.759 544.14 341.074ZM532.968 337.13C531.654 337.788 530.34 339.759 530.34 341.074V344.359C530.34 345.674 531.654 346.331 532.968 345.674L544.14 339.102C545.455 338.445 546.769 336.473 546.769 335.159V331.873C546.769 330.559 545.455 329.902 544.14 330.559L532.968 337.13Z" fill="white"/>
</g>
<g opacity="0.4">
<path opacity="0.4" d="M564.513 329.245L553.341 335.817C551.37 337.131 549.398 335.817 549.398 333.846V330.56C549.398 327.931 551.37 325.302 553.341 323.988L564.513 317.416C566.485 316.102 568.456 317.416 568.456 319.388V322.674C567.799 325.302 566.485 328.588 564.513 329.245ZM553.341 325.302C552.027 325.96 550.713 327.931 550.713 329.245V332.531C550.713 333.846 552.027 334.503 553.341 333.846L564.513 327.274C565.828 326.617 567.142 324.645 567.142 323.331V320.045C567.142 318.731 565.828 318.073 564.513 318.731L553.341 325.302Z" fill="white"/>
</g>
<g opacity="0.4">
<path opacity="0.4" d="M584.228 318.073L573.056 324.644C571.085 325.959 569.113 324.644 569.113 322.673V319.387C569.113 316.758 571.085 314.13 573.056 312.815L584.228 306.243C586.2 304.929 588.171 306.243 588.171 308.215V311.501C588.171 314.13 586.2 316.758 584.228 318.073ZM573.056 314.13C571.742 314.787 570.428 316.758 570.428 318.073V321.358C570.428 322.673 571.742 323.33 573.056 322.673L584.228 316.101C585.543 315.444 586.857 313.472 586.857 312.158V308.872C586.857 307.558 585.543 306.901 584.228 307.558L573.056 314.13Z" fill="white"/>
</g>
</g>
<g opacity="0.4">
<g opacity="0.4">
<path opacity="0.4" d="M544.14 355.53L532.968 362.101C530.997 363.416 529.025 362.101 529.025 360.13V356.844C529.025 354.215 530.997 351.587 532.968 350.272L544.14 343.7C546.112 342.386 548.083 343.7 548.083 345.672V348.958C548.083 350.929 546.112 354.215 544.14 355.53ZM532.968 350.929C531.654 351.587 530.34 353.558 530.34 354.872V358.158C530.34 359.473 531.654 360.13 532.968 359.473L544.14 352.901C545.455 352.244 546.769 350.272 546.769 348.958V345.672C546.769 344.358 545.455 343.7 544.14 344.358L532.968 350.929Z" fill="white"/>
</g>
<g opacity="0.4">
<path opacity="0.4" d="M564.513 343.699L553.341 350.271C551.37 351.585 549.398 350.271 549.398 348.299V345.013C549.398 342.385 551.37 339.756 553.341 338.442L564.513 331.87C566.485 330.556 568.456 331.87 568.456 333.841V337.127C567.799 339.756 566.485 342.385 564.513 343.699ZM553.341 339.756C552.027 340.413 550.713 342.385 550.713 343.699V346.985C550.713 348.299 552.027 348.956 553.341 348.299L564.513 341.727C565.828 341.07 567.142 339.099 567.142 337.784V334.499C567.142 333.184 565.828 332.527 564.513 333.184L553.341 339.756Z" fill="white"/>
</g>
<g opacity="0.4">
<path opacity="0.4" d="M584.228 331.871L573.056 338.443C571.085 339.757 569.113 338.443 569.113 336.471V333.185C569.113 330.557 571.085 327.928 573.056 326.613L584.228 320.042C586.2 318.727 588.171 320.042 588.171 322.013V325.299C588.171 327.928 586.2 330.557 584.228 331.871ZM573.056 327.928C571.742 328.585 570.428 330.557 570.428 331.871V335.157C570.428 336.471 571.742 337.128 573.056 336.471L584.228 329.899C585.543 329.242 586.857 327.271 586.857 325.956V322.67C586.857 321.356 585.543 320.699 584.228 321.356L573.056 327.928Z" fill="white"/>
</g>
</g>
</g>
<path d="M519.825 385.763C521.14 381.82 523.768 379.191 527.054 377.219L588.828 341.732C590.8 340.418 592.771 340.418 594.743 341.075L596.057 341.732L521.797 408.764L513.253 404.163L519.825 385.763Z" fill="#1C1C1C"/>
<path d="M527.711 377.876L589.485 341.732C594.085 339.103 597.371 341.074 597.371 346.332V358.818C597.371 364.075 594.085 369.99 589.485 372.619L527.711 408.763C525.739 410.078 523.768 410.078 521.796 409.42C520.482 408.763 519.167 406.792 519.167 404.163V391.677C519.825 386.419 523.111 380.505 527.711 377.876Z" fill="#363636"/>
<path d="M527.71 379.847L589.484 343.702C592.77 341.731 595.399 343.045 595.399 346.988V359.474C595.399 363.417 592.77 368.018 589.484 369.989L527.71 406.134C524.424 408.105 521.795 406.791 521.795 402.848V390.362C521.795 386.418 524.424 381.818 527.71 379.847Z" fill="#D4D0C5"/>
<path d="M0 228.041L193.866 340.417V591.458L174.151 579.629V575.686L170.208 577.657L0 479.738V228.041Z" fill="#D5D5CC"/>
<path d="M558.599 253.669C561.228 252.355 563.199 253.669 563.199 256.298C563.199 258.926 561.228 262.212 558.599 263.527C555.971 264.841 553.999 263.527 553.999 260.898C553.999 258.269 555.971 254.983 558.599 253.669Z" fill="white"/>
<path d="M565.828 246.439C565.17 247.753 563.856 248.41 563.199 248.41C561.885 248.41 559.913 248.41 558.599 249.725C556.627 250.382 555.313 252.353 553.999 254.325C553.341 255.639 552.027 256.296 551.37 255.639C550.713 254.982 550.713 253.01 551.37 251.696C553.341 249.067 555.97 246.439 558.599 245.124C561.227 243.81 563.856 243.153 565.828 243.81C567.142 243.153 567.142 244.467 565.828 246.439Z" fill="white"/>
<path d="M571.087 237.239C570.429 238.554 569.115 239.211 568.458 239.211C562.543 237.239 554.657 241.84 548.743 250.383C548.086 251.697 546.771 252.354 546.114 251.697C545.457 251.04 545.457 249.069 546.114 247.754C553.343 236.582 563.858 230.668 571.087 233.296C572.401 233.954 572.401 235.925 571.087 237.239Z" fill="white"/>
<path d="M576.343 228.039C575.685 229.354 574.371 230.011 573.714 230.011C565.171 226.725 552.684 233.954 544.141 247.097C543.484 248.412 542.17 249.069 541.512 248.412C540.855 247.755 540.855 246.44 541.512 244.469C551.37 228.697 566.485 220.153 577 224.096C577 224.753 577 226.068 576.343 228.039Z" fill="white"/>
<path d="M193.866 340.415L236.583 364.73V541.51L193.866 591.456V340.415Z" fill="#E8E4D7"/>
<g opacity="0.6">
<path opacity="0.9" d="M26.2874 398.247L120.92 452.792C122.235 453.449 123.549 452.792 123.549 451.478C123.549 450.163 122.235 448.192 120.92 446.878L26.2874 392.332C24.973 391.675 23.6587 392.332 23.6587 393.646C23.6587 394.961 24.3159 396.932 26.2874 398.247Z" fill="black"/>
<path opacity="0.9" d="M120.92 459.363L26.2874 404.16C24.973 403.503 23.6587 404.16 23.6587 405.475C23.6587 406.789 24.973 408.76 26.2874 410.075L120.92 464.62C122.235 465.277 123.549 464.62 123.549 463.306C123.549 461.992 122.235 460.02 120.92 459.363Z" fill="black"/>
<path opacity="0.9" d="M120.92 471.194L26.2874 416.648C24.973 415.991 23.6587 416.648 23.6587 417.963C23.6587 419.277 24.973 421.249 26.2874 422.563L120.92 477.108C122.235 477.766 123.549 477.108 123.549 475.794C123.549 474.48 122.235 471.851 120.92 471.194Z" fill="black"/>
<path opacity="0.9" d="M120.92 483.679L26.2874 428.477C24.973 427.819 23.6587 428.477 23.6587 429.791C23.6587 431.105 24.3159 433.734 26.2874 434.391L120.92 488.937C122.235 489.594 123.549 488.937 123.549 487.622C123.549 486.308 122.235 484.336 120.92 483.679Z" fill="black"/>
<path opacity="0.9" d="M120.92 495.508L26.2874 440.962C24.973 440.305 23.6587 440.962 23.6587 442.277C23.6587 443.591 24.973 445.563 26.2874 446.877L120.92 501.422C122.235 502.08 123.549 501.422 123.549 500.108C123.549 498.794 122.235 496.822 120.92 495.508Z" fill="black"/>
<path opacity="0.9" d="M120.92 507.994L26.2874 453.448C24.973 452.791 23.6587 453.448 23.6587 454.763C23.6587 456.077 24.973 458.048 26.2874 459.363L120.92 513.908C122.235 514.565 123.549 513.908 123.549 512.594C123.549 510.622 122.235 508.651 120.92 507.994Z" fill="black"/>
</g>
<path opacity="0.6" d="M174.151 328.588V575.686L170.208 577.657V326.617L174.151 328.588Z" fill="black"/>
<path opacity="0.5" d="M504.709 161.007L481.708 147.207L170.208 326.615L174.151 328.587L480.394 151.807L500.766 163.636L504.709 161.007Z" fill="black"/>
<path opacity="0.5" d="M401.534 220.153L394.962 274.042L455.422 239.211L463.966 184.009L401.534 220.153Z" fill="white"/>
<path opacity="0.5" d="M501.423 166.264L493.537 216.867L471.85 229.353L480.393 174.808L500.766 163.636L501.423 166.264Z" fill="white"/>
<defs>
<linearGradient id="paint0_linear" x1="0" y1="170.175" x2="589.538" y2="170.175" gradientUnits="userSpaceOnUse">
<stop stop-color="#EEEBE2"/>
<stop offset="1" stop-color="#E8E8DE"/>
</linearGradient>
</defs>
</svg>
