<svg width="20" height="20" viewBox="0 0 20 20" fill="none" xmlns="http://www.w3.org/2000/svg">
<path d="M10.0212 20H9.97687C9.30613 20 8.81897 19.4423 8.76574 19.3786C5.82429 15.8555 2.68652 11.75 2.68652 7.59702C2.68652 3.40819 5.96659 0 9.99883 0C14.0315 0 17.3123 3.40777 17.3123 7.59702C17.3123 11.7535 14.1742 15.8578 11.2327 19.3782C11.2327 19.3779 11.2327 19.3779 11.2327 19.3779C11.2327 19.3779 10.7286 20 10.0212 20ZM9.99883 0.771447C6.39204 0.771447 3.45791 3.83323 3.45791 7.59702C3.45791 11.4919 6.50313 15.4652 9.35738 18.8838C9.4384 18.9779 9.71261 19.229 9.9768 19.229H10.0212C10.2842 19.229 10.5635 18.9732 10.6406 18.8834C13.4949 15.4672 16.5405 11.4951 16.5405 7.59702C16.541 3.83323 13.606 0.771447 9.99883 0.771447Z" fill="#EF4C23"/>
<g clip-path="url(#clip0)">
<path fill-rule="evenodd" clip-rule="evenodd" d="M13.1369 5.97259C13.1681 5.96277 13.2092 5.98241 13.2503 6.03641C13.2503 6.03641 13.2503 6.03641 15.1077 7.84633C15.2161 7.95433 15.2161 8.11798 15.1077 8.19816C15.1077 8.19816 15.1077 8.19816 13.2503 10.0359C13.2092 10.0899 13.1681 10.103 13.1369 10.0866C13.1057 10.0703 13.0859 10.0228 13.0859 9.95408V6.09041C13.0859 6.02332 13.1057 5.9824 13.1369 5.97259Z" fill="#EF4C23"/>
<path fill-rule="evenodd" clip-rule="evenodd" d="M9.95923 2.95654H10.0907L10.2173 3.00891C10.2173 3.00891 10.2173 3.00891 12.1289 4.90065C12.2111 5.00866 12.1831 5.09048 12.0467 5.09048C12.0467 5.09048 12.0467 5.09048 11.2544 5.09048C11.118 5.09048 11.0095 5.19849 11.0095 5.33431C11.0095 5.33431 11.0095 5.33431 11.0095 6.73839C11.0095 6.87422 10.8994 6.98222 10.735 6.98222C10.735 6.98222 10.735 6.98222 9.34286 6.98222C9.20643 6.98222 9.09631 6.87422 9.09631 6.73839C9.09631 6.73839 9.09631 6.73839 9.09631 5.33431C9.09631 5.19849 8.98782 5.09048 8.84976 5.09048H8.00327C7.86684 5.09048 7.8389 5.00866 7.92108 4.90065C7.92108 4.90065 7.92108 4.90065 9.83431 3.00891L9.95923 2.95654Z" fill="#EF4C23"/>
<path fill-rule="evenodd" clip-rule="evenodd" d="M6.96441 5.93164C6.99892 5.948 7.02029 5.99546 7.02029 6.06419V10.008C7.02029 10.0768 6.99892 10.1177 6.96441 10.1308C6.93153 10.1439 6.88387 10.1308 6.82798 10.0899C6.82798 10.0899 6.82798 10.0899 4.94269 8.19813C4.83421 8.11794 4.83421 7.9543 4.94269 7.84629C4.94269 7.84629 4.94269 7.84629 6.82798 5.98237C6.88387 5.92837 6.93153 5.91528 6.96441 5.93164Z" fill="#EF4C23"/>
<path fill-rule="evenodd" clip-rule="evenodd" d="M9.34275 9.03595C9.34275 9.03595 9.34275 9.03595 10.7349 9.03595C10.8993 9.03595 11.0094 9.14396 11.0094 9.27978C11.0094 9.27978 11.0094 9.27978 11.0094 10.7657C11.0094 10.9277 11.1179 11.0357 11.2543 11.0357H11.9923C12.1288 11.0357 12.183 11.1159 12.0745 11.1977C12.0745 11.1977 12.0745 11.1977 10.2172 13.0616C10.1613 13.1156 10.0939 13.1435 10.0249 13.1435C9.95749 13.1435 9.88845 13.1156 9.83421 13.0616C9.83421 13.0616 9.83421 13.0616 7.97687 11.1977C7.86674 11.1159 7.92098 11.0357 8.05741 11.0357C8.05741 11.0357 8.05741 11.0357 8.84965 11.0357C8.98772 11.0357 9.0962 10.9277 9.0962 10.7657C9.0962 10.7657 9.0962 10.7657 9.0962 9.27978C9.0962 9.14396 9.20633 9.03595 9.34275 9.03595Z" fill="#EF4C23"/>
</g>
<defs>
<clipPath id="clip0">
<rect width="10.3228" height="10.3228" fill="white" transform="translate(4.86133 2.82074)"/>
</clipPath>
</defs>
</svg>
