<svg width="20" height="20" viewBox="0 0 20 20" fill="none" xmlns="http://www.w3.org/2000/svg">
<path d="M4.82551 7.73831C4.58623 7.57958 4.28713 7.50021 4.00797 7.59942C3.68892 7.69863 3.4297 7.93672 3.25024 8.2145C2.99102 8.61132 2.8315 9.08751 2.77168 9.5637C2.67197 10.2581 2.75174 10.9923 3.01096 11.6669C3.17048 12.024 3.38982 12.3812 3.7288 12.5994C3.98803 12.7581 4.32701 12.7978 4.62611 12.6788C4.90528 12.5597 5.10468 12.3415 5.2642 12.1034C5.52342 11.7066 5.663 11.2304 5.74276 10.7542C5.84246 10.0399 5.7627 9.28593 5.48354 8.63116C5.34396 8.27402 5.14456 7.95656 4.82551 7.73831Z" fill="white"/>
<path d="M9.99002 0.0800781C4.48653 0.0800781 0.019928 4.52452 0.019928 10.0007C0.019928 15.4769 4.48653 19.9213 9.99002 19.9213C15.4935 19.9213 19.9601 15.4769 19.9601 10.0007C19.9601 4.52452 15.4935 0.0800781 9.99002 0.0800781ZM7.33797 11.3301C7.09869 12.1634 6.60019 12.9174 5.90228 13.4134C5.42372 13.7309 4.86539 13.9293 4.28713 13.9293C3.66898 13.9293 3.07078 13.7309 2.59221 13.3737C1.81454 12.838 1.33598 12.0047 1.13658 11.1118C0.897296 10.0999 1.03688 8.98881 1.55532 8.07611C1.8943 7.48087 2.37287 6.965 2.99101 6.66738C3.27018 6.52849 3.58922 6.42928 3.90826 6.3896C4.52641 6.31024 5.16449 6.44912 5.70288 6.76658C6.40079 7.16341 6.91923 7.83801 7.19839 8.57214C7.55732 9.44516 7.5972 10.4372 7.33797 11.3301ZM8.27516 11.7071C8.03588 11.7071 7.83648 11.4888 7.85642 11.2507C7.85642 9.42531 7.85642 7.61976 7.85642 5.79436C7.85642 5.59595 7.996 5.41738 8.1954 5.35786C8.45462 5.31817 8.73379 5.35786 8.99301 5.33801C9.15253 5.33801 9.33199 5.31817 9.49151 5.3777C9.65103 5.43722 9.77068 5.61579 9.77068 5.79436C9.77068 7.0642 9.77068 8.33405 9.77068 9.60389C9.77068 9.72293 9.75074 9.86182 9.8305 9.96103C9.89032 10.0206 9.97008 10.0206 10.0498 10.0206C10.5483 10.0206 11.0269 10.0206 11.5254 10.0206C11.7846 9.98087 12.0239 10.219 12.004 10.4769C12.004 10.7547 12.004 11.0325 12.004 11.3102C12.004 11.5285 11.7846 11.7269 11.5653 11.7071C10.4686 11.7071 9.37187 11.7071 8.27516 11.7071ZM18.1256 14.0483C17.667 14.2467 17.1685 14.3459 16.6899 14.4452C16.3709 14.5047 16.0319 14.3063 15.8923 14.0285C15.4935 13.1753 15.0349 12.342 14.6161 11.5086C14.0977 12.2626 13.5992 13.0364 13.0807 13.8102C12.981 13.9491 12.8614 14.0682 12.7019 14.1475C12.6022 14.1872 12.4825 14.1872 12.3828 14.1277C12.2831 14.0682 12.2233 13.969 12.1436 13.8698C11.9641 13.6317 11.8046 13.3737 11.665 13.1356C11.5254 12.9174 11.5454 12.6198 11.6251 12.3817C11.6849 12.1634 11.8245 11.965 11.984 11.8063C12.5623 11.1515 13.1406 10.4967 13.7188 9.84198C13.32 9.06817 12.9212 8.3142 12.5224 7.54039C12.4028 7.32214 12.3629 7.08404 12.3828 6.84595C12.3828 6.66738 12.4825 6.46897 12.6421 6.36976C12.8813 6.23087 13.2004 6.21103 13.4596 6.34992C13.5793 6.40944 13.679 6.52849 13.7587 6.64754C14.1575 7.24278 14.5563 7.81817 14.9551 8.41341C15.5134 7.77849 16.0718 7.14357 16.65 6.50865C16.8295 6.31024 17.0688 6.17135 17.3479 6.15151C17.4676 6.15151 17.5872 6.19119 17.6869 6.21103C17.7866 6.40944 17.8265 6.64754 17.7667 6.86579C17.6869 7.22293 17.4676 7.52055 17.2283 7.77849C16.8295 8.27452 16.4706 8.79039 16.1117 9.30627C16.0319 9.42531 15.9521 9.52452 15.8724 9.64357C15.8325 9.68325 15.8724 9.72293 15.8923 9.76262C16.65 10.8539 17.3878 11.9452 18.1256 13.0364C18.2652 13.2348 18.4247 13.4531 18.4048 13.711C18.3848 13.8698 18.2652 13.9888 18.1256 14.0483Z" fill="white"/>
</svg>
