<svg width="80" height="12" viewBox="0 0 80 12" fill="none" xmlns="http://www.w3.org/2000/svg">
<g clip-path="url(#clip0)">
<path fill-rule="evenodd" clip-rule="evenodd" d="M19.2164 3.40689H22.1693L22.2602 4.36089C22.4873 3.5886 23.9865 3.04346 24.895 3.04346C26.9848 3.04346 27.8479 4.36089 27.8479 6.63233V11.5386H24.577V7.17747C24.577 6.31433 24.3953 5.63289 23.5322 5.63289C22.7145 5.63289 22.3056 6.49604 22.3056 7.13204V11.5386H19.171V3.40689H19.2164Z" fill="#4D70B2"/>
<path fill-rule="evenodd" clip-rule="evenodd" d="M0.0909424 11.5389V0.0454102H5.58782C8.85869 0.0454102 10.3578 1.63542 10.3578 3.95228C10.3578 6.40543 8.99497 8.0863 5.58782 8.0863H3.72524V11.5389H0.0909424ZM5.17896 5.31514C6.04211 5.31514 6.99611 5.13343 6.99611 4.134C6.99611 3.08914 5.99668 2.86199 5.17896 2.86199H3.72524V5.31514H5.17896Z" fill="#4D70B2"/>
<path fill-rule="evenodd" clip-rule="evenodd" d="M55.2869 3.40689H58.2852L58.376 4.36089C58.6486 3.5886 60.1477 3.04346 61.0563 3.04346C63.146 3.04346 64.0092 4.36089 64.0092 6.63233V11.5841H60.7383V7.17747C60.7383 6.31433 60.5566 5.63289 59.648 5.63289C58.8757 5.63289 58.4669 6.49604 58.4669 7.13204V11.5841H55.3323V3.40689H55.2869Z" fill="#4D70B2"/>
<path fill-rule="evenodd" clip-rule="evenodd" d="M40.2499 8.63121C40.2499 8.94921 40.4316 9.44893 40.6133 9.58521C40.8405 9.76693 41.113 9.90321 41.4765 9.90321C42.067 9.90321 42.5213 9.7215 42.5213 9.17635C42.5667 7.81349 37.5696 8.99464 37.5696 5.7692C37.5696 3.49776 39.3413 2.99805 41.1585 2.99805C42.9756 2.99805 45.4742 3.36148 45.3833 5.81463H42.6122C42.6122 5.58748 42.5213 5.40577 42.385 5.22405C42.2033 4.99691 41.9762 4.90605 41.5219 4.86062C40.9767 4.8152 40.4316 4.90605 40.4316 5.36034C40.477 6.63235 45.565 5.7692 45.565 8.7675C45.565 10.8572 44.1113 11.7658 41.2947 11.7658C39.523 11.7658 37.2516 10.8572 37.2516 8.63121H40.2499Z" fill="#4D70B2"/>
<path fill-rule="evenodd" clip-rule="evenodd" d="M73.8218 6.54194C73.8218 6.36022 73.8218 6.08765 73.5492 5.76965C73.4129 5.58793 73.1404 5.26993 72.6861 5.26993C71.4595 5.26993 71.1415 6.45108 71.1415 7.45051C71.1415 8.58623 71.6412 9.54023 72.6406 9.54023C73.5038 9.54023 73.9126 8.76795 73.9126 8.13194H76.7747C76.8201 9.81281 75.6844 11.8117 72.5044 11.8117C69.9603 11.8117 68.1432 10.0399 68.1432 7.45051C68.1432 4.31593 70.4601 3.08936 72.5044 3.08936C75.2301 3.08936 76.7747 4.72479 76.7747 6.58737H73.8218V6.54194Z" fill="#4D70B2"/>
<path fill-rule="evenodd" clip-rule="evenodd" d="M15.7184 11.5391L15.4004 10.8577C14.7644 11.3574 14.1284 11.6754 13.0835 11.6754C12.0841 11.63 10.0852 11.4937 10.0852 9.35852C10.0852 5.76965 15.4004 7.40509 15.4004 5.67879C15.4004 5.08822 14.7644 5.13365 14.4009 5.13365C13.7649 5.13365 13.3106 5.26993 13.2198 6.22394H10.4941C10.4941 4.54307 10.9938 3.08936 14.5826 3.08936C18.0352 3.08936 18.3987 4.9065 18.3987 6.67823V10.358C18.3987 10.8577 18.4441 11.0848 18.7621 11.4482V11.4937L15.7184 11.5391ZM15.4458 7.81394C14.3555 8.31366 12.9472 8.31366 12.9018 9.13138C12.9018 9.63109 13.1744 9.90367 13.8558 9.90367C14.9461 9.90367 15.5367 8.76795 15.4458 7.81394ZM34.0261 11.5391L33.7081 10.8577C33.0721 11.3574 32.3907 11.6754 31.3913 11.6754C30.3464 11.63 28.393 11.4937 28.393 9.35852C28.393 5.76965 33.7081 7.40509 33.7536 5.67879C33.7536 5.08822 33.0721 5.13365 32.7541 5.13365C32.0727 5.13365 31.6639 5.26993 31.573 6.22394H28.8473C28.8473 4.54307 29.347 3.08936 32.9359 3.08936C36.3884 3.08936 36.7519 4.9065 36.7519 6.67823V10.358C36.7519 10.8577 36.7973 11.0848 37.1153 11.4482V11.4937L34.0261 11.5391ZM33.7536 7.81394C32.6633 8.31366 31.2096 8.31366 31.2096 9.13138C31.2096 9.63109 31.4821 9.90367 32.1636 9.90367C33.2084 9.90367 33.8444 8.76795 33.7536 7.81394Z" fill="#4D70B2"/>
<path fill-rule="evenodd" clip-rule="evenodd" d="M67.598 11.5389V3.40715H64.5997V11.5389H67.598ZM64.5543 2.36229H67.5526V0H64.5543V2.36229Z" fill="#4D70B2"/>
<path fill-rule="evenodd" clip-rule="evenodd" d="M50.426 3.08936C53.1063 3.08936 54.7872 4.95193 54.7872 7.45051C54.7872 9.94909 53.1517 11.8117 50.426 11.8117C47.7457 11.8117 46.0648 9.94909 46.0648 7.45051C46.0194 4.99736 47.7457 3.08936 50.426 3.08936ZM48.9723 7.45051C48.9723 8.44994 49.2903 9.67652 50.3806 9.72195C51.4709 9.72195 51.7889 8.44994 51.7889 7.45051C51.7889 6.49651 51.5163 5.22451 50.3806 5.22451C49.3357 5.22451 49.0177 6.49651 48.9723 7.45051Z" fill="#4D70B2"/>
<path fill-rule="evenodd" clip-rule="evenodd" d="M78.6372 9.94871C78.8189 9.94871 79.1369 9.99414 79.1369 9.72156C79.1369 9.49442 78.9552 9.44899 78.7735 9.44899H78.3646V9.94871H78.6372ZM79.3186 10.721H79.1369L78.7281 10.085H78.4101V10.721H78.2283V9.3127H78.8189C79.0915 9.3127 79.3186 9.40356 79.3186 9.72156C79.3186 9.99414 79.1369 10.085 78.9098 10.085L79.3186 10.721ZM79.7729 10.0396C79.7729 9.40356 79.2732 8.94928 78.6826 8.94928C78.0466 8.94928 77.5923 9.44899 77.5923 10.0396C77.5923 10.6301 78.0921 11.1299 78.6826 11.1299C79.2732 11.1299 79.7729 10.6301 79.7729 10.0396ZM77.4561 10.0396C77.4561 9.35813 78.0012 8.81299 78.6826 8.81299C79.3641 8.81299 79.9092 9.35813 79.9092 10.0396C79.9092 10.721 79.3641 11.2661 78.6826 11.2661C78.0012 11.2661 77.4561 10.721 77.4561 10.0396Z" fill="#4D70B2"/>
</g>
<defs>
<clipPath id="clip0">
<rect width="80" height="11.8115" fill="white"/>
</clipPath>
</defs>
</svg>
