<svg width="16" height="16" viewBox="0 0 16 16" fill="none" xmlns="http://www.w3.org/2000/svg">
<path d="M0.556641 1.60742C0.380859 1.63672 0.263672 1.72461 0.146484 1.8418C0.0585938 1.98828 0 2.13477 0 2.28125C0 4.74219 0.615234 7.02734 1.8457 9.13672C3.07617 11.1875 4.6875 12.8281 6.73828 14.0293C8.84766 15.2598 11.1328 15.875 13.5938 15.875C13.7695 15.875 13.916 15.8457 14.0332 15.7285C14.1797 15.6406 14.2676 15.4941 14.2676 15.3184L14.9707 12.2715C15.0293 12.125 15 11.9785 14.9121 11.8027C14.8535 11.6562 14.7363 11.5391 14.5605 11.4805L11.2793 10.0742C11.1621 10.0156 11.0156 10.0156 10.8398 10.0449C10.6934 10.0742 10.5762 10.1621 10.459 10.2793L9.02344 12.0371C7.88086 11.5098 6.85547 10.8066 5.97656 9.89844C5.09766 9.01953 4.36523 7.99414 3.83789 6.85156L5.5957 5.38672C5.71289 5.29883 5.80078 5.18164 5.83008 5.03516C5.88867 4.88867 5.85938 4.74219 5.80078 4.56641L4.39453 1.28516C4.33594 1.16797 4.24805 1.05078 4.07227 0.962891C3.92578 0.904297 3.7793 0.875 3.60352 0.904297L0.556641 1.60742Z" fill="black"/>
</svg>
