<svg width="80" height="12" viewBox="0 0 80 12" fill="none" xmlns="http://www.w3.org/2000/svg">
<g clip-path="url(#clip0)">
<path fill-rule="evenodd" clip-rule="evenodd" d="M43.8261 5.50303C43.8261 5.50303 43.0311 5.0117 42.5839 4.8643C42.5839 4.8643 41.0932 4.17643 40.795 3.88163C40.795 3.88163 40.1988 3.34116 40.5466 2.70243C40.5466 2.70243 40.6957 2.30936 41.2919 2.30936C41.2919 2.30936 42.087 2.35849 42.087 2.99723V3.93076H44.9193V2.60416C44.9193 2.60416 45.118 0.393158 41.5404 0.294891C41.5404 0.294891 38.7081 0.0983571 37.913 1.62149C37.913 1.62149 37.6149 1.96543 37.6149 3.0955V3.93076C37.6149 3.93076 37.5652 4.91343 38.0621 5.50303C38.0621 5.50303 38.3603 5.8961 39.0559 6.38743C39.0559 6.38743 40.4969 7.12443 41.3416 7.56664C41.3416 7.56664 42.1863 8.05797 42.087 8.8441C42.087 8.8441 42.0373 9.63024 41.1926 9.58111C41.1926 9.58111 40.4472 9.53197 40.4472 8.79497V7.86144H37.4162V9.18804C37.4162 9.18804 37.3168 11.743 41.2422 11.743C41.2422 11.743 44.969 11.8412 45.1677 9.1389V8.05797C45.1677 8.00884 45.2671 6.38743 43.8261 5.50303Z" fill="black"/>
<path fill-rule="evenodd" clip-rule="evenodd" d="M29.2671 0.540527L28.2733 6.48567H28.0745L27.1801 0.589661H22.4099L22.1615 11.3007H24.9938V3.24287H25.2422L26.7329 11.3007H29.7143L31.1553 3.24287H31.354L31.4534 11.3007H34.2857L33.9379 0.540527H29.2671Z" fill="black"/>
<path fill-rule="evenodd" clip-rule="evenodd" d="M12.4721 0.589844L10.5839 11.3009H13.6149L14.7578 2.99738H15.0062L16.0994 11.3009H19.1304L17.2422 0.589844H12.4721Z" fill="black"/>
<path fill-rule="evenodd" clip-rule="evenodd" d="M76.1242 5.35553V6.9278H76.9192V8.59834C76.9192 9.43361 76.2236 9.43361 76.2236 9.43361C75.3292 9.43361 75.3789 8.64747 75.3789 8.64747V2.84973C75.3789 2.26013 76.1739 2.211 76.1739 2.211C76.9192 2.211 76.9192 2.948 76.9192 2.948V3.8324H79.7515C79.8509 2.11273 79.5031 1.67053 79.5031 1.67053C78.8074 0.0982589 76.1242 0.196526 76.1242 0.196526C72 0.196526 72.4472 3.34106 72.4472 3.34106V8.99141C72.5466 11.9394 76.5714 11.6446 76.6708 11.6446C78.4596 11.4481 79.0062 10.8585 79.0062 10.8585C79.5031 10.4654 79.6521 9.97407 79.6521 9.97407C79.8012 9.67927 79.8509 8.74574 79.8509 8.74574V5.40467H76.1242V5.35553Z" fill="black"/>
<path fill-rule="evenodd" clip-rule="evenodd" d="M66.6335 7.12441H66.5342L63.6522 0.540527H60.1739V11.3007H63.0062L62.8075 4.766H62.9565L65.9379 11.3007H69.3168V0.540527H66.4348L66.6335 7.12441Z" fill="black"/>
<path fill-rule="evenodd" clip-rule="evenodd" d="M53.2671 8.64754C53.2671 8.64754 53.3167 9.53194 52.472 9.53194C52.472 9.53194 51.5776 9.58107 51.5776 8.64754V0.540527H48.4969V8.54927C48.4969 8.54927 48.1987 11.5955 52.5217 11.5955C52.5217 11.5955 56.2981 11.6447 56.2981 8.69667V0.540527H53.2671V8.64754Z" fill="black"/>
<path fill-rule="evenodd" clip-rule="evenodd" d="M6.559 5.50306C6.559 5.50306 5.76397 5.01173 5.31677 4.86433C5.31677 4.86433 3.82608 4.17646 3.52795 3.88166C3.52795 3.88166 2.93167 3.34119 3.2795 2.70246C3.2795 2.70246 3.42857 2.30939 4.02484 2.30939C4.02484 2.30939 4.81987 2.35853 4.81987 2.99726V3.93079H7.65217V2.60419C7.65217 2.60419 7.85093 0.393189 4.27329 0.294922C4.27329 0.294922 4.02484 0.294922 3.62733 0.294922C3.62733 0.294922 1.44099 0.393189 0.695649 1.57239C0.695649 1.57239 0.397512 1.91632 0.397512 3.04639V3.88166C0.397512 3.88166 0.347823 4.86433 0.844717 5.45393C0.844717 5.45393 1.14285 5.847 1.83851 6.33833C1.83851 6.33833 3.22981 7.07533 4.12422 7.51753C4.12422 7.51753 4.96894 8.00887 4.86956 8.795C4.86956 8.795 4.81987 9.58114 3.97515 9.532C3.97515 9.532 3.22981 9.48287 3.22981 8.74587V7.81233H0.149065V9.13894C0.149065 9.13894 0.0496862 11.6939 3.97515 11.6939C3.97515 11.6939 7.70186 11.7921 7.90062 9.0898V8.00887C7.90062 8.00887 8 6.38746 6.559 5.50306Z" fill="black"/>
</g>
<defs>
<clipPath id="clip0">
<rect width="80" height="11.8412" fill="white"/>
</clipPath>
</defs>
</svg>
