<svg width="160" height="160" viewBox="0 0 160 160" fill="none" xmlns="http://www.w3.org/2000/svg">
<g opacity="0.1" clip-path="url(#clip0)">
<path d="M94.6681 104H62.6681C61.1955 104 60.0015 105.195 60.0015 106.667V117.334C60.0015 118.806 61.1955 120.001 62.6681 120.001H94.6681C96.1421 120.001 97.3348 118.806 97.3348 117.334V106.667C97.3348 105.195 96.1421 104 94.6681 104ZM92.0015 114.667H65.3348V109.334H92.0015V114.667Z" fill="#505269"/>
<path d="M110.668 41.1051C113.208 42.1416 115.925 42.6728 118.668 42.6676C130.445 42.6546 139.988 33.1104 140.001 21.3344C140.005 17.923 139.18 14.5611 137.601 11.5376C137.212 10.7772 136.48 10.2499 135.636 10.1197C134.791 9.98948 133.936 10.272 133.334 10.8788L124.001 20.2303L119.772 16.0011L129.125 6.64966C129.731 6.0481 130.013 5.19264 129.882 4.3476C129.752 3.50385 129.226 2.77339 128.466 2.38277C125.44 0.809863 122.078 -0.007839 118.668 0.00127551C106.892 0.0142963 97.3487 9.55849 97.3344 21.3344C97.3305 24.0779 97.8605 26.7953 98.8982 29.3344L85.3345 42.8968L77.8867 35.4489C76.8463 34.4086 75.1575 34.4086 74.1172 35.4489L70.668 38.8968L46.6682 14.897V8.00121C46.6695 6.91007 46.0067 5.92961 44.9937 5.52337L31.6605 0.190076C30.6696 -0.205754 29.5381 0.027317 28.7842 0.782519L20.7843 8.78246C20.0278 9.53636 19.796 10.6692 20.1918 11.66L25.5251 24.9933C25.9301 26.005 26.9118 26.669 28.0016 26.6677H34.8987L58.8985 50.6675L55.4506 54.1154C54.409 55.1571 54.409 56.8446 55.4506 57.8862L56.2319 58.6675H30.6683C29.1957 58.6675 28.0016 59.8615 28.0016 61.3341V157.333C28.0016 158.806 29.1957 160 30.6683 160H126.668C128.141 160 129.334 158.806 129.334 157.333V61.3341C129.334 59.8615 128.141 58.6675 126.668 58.6675H101.105L97.1052 54.6675L110.668 41.1051ZM103.983 31.7901C104.804 30.9685 105 29.7107 104.466 28.6781C103.281 26.4112 102.665 23.8917 102.668 21.3344C102.668 16.4256 104.92 11.7876 108.78 8.75381C112.639 5.71998 117.677 4.62624 122.447 5.78508L114.117 14.1157C113.075 15.1574 113.075 16.8449 114.117 17.8866L122.117 25.8865C123.157 26.9268 124.846 26.9268 125.886 25.8865L134.217 17.5558C135.704 23.6469 133.493 30.0453 128.562 33.919C123.63 37.7926 116.89 38.4255 111.324 35.5375C110.293 35.0023 109.034 35.1976 108.212 36.0192L93.3344 50.8967L89.1053 46.6676L103.983 31.7901ZM37.887 22.1157C37.387 21.6157 36.7099 21.3344 36.0016 21.3344H29.8076L25.8077 11.3111L31.3219 5.7955L41.3349 9.80589V16.0011C41.3362 16.7082 41.6161 17.3866 42.1174 17.8866L66.8985 42.6676L62.668 46.8967L37.887 22.1157ZM79.69 72.2038C78.6926 71.7911 77.5455 72.0189 76.7838 72.782L65.3347 84.2298V64.0008H92.0011V88.0006H81.3345V74.6674C81.3358 73.5892 80.6861 72.6166 79.69 72.2038ZM124.001 154.667H33.3349V64.0008H60.0014V90.6672C60.0027 91.7453 60.6524 92.718 61.6485 93.1307C62.6446 93.5435 63.7917 93.3143 64.5534 92.5526L76.0013 81.1048V90.6672C76.0013 92.1399 77.1953 93.3339 78.6679 93.3339H94.6678C96.1417 93.3339 97.3344 92.1399 97.3344 90.6672V64.0008H124.001V154.667ZM63.7722 58.6675L61.1055 56.0008L76.0013 41.1051L93.5649 58.6675H63.7722Z" fill="#505269"/>
</g>
<defs>
<clipPath id="clip0">
<rect width="160" height="160" fill="white"/>
</clipPath>
</defs>
</svg>
