<svg width="80" height="80" viewBox="0 0 80 80" fill="none" xmlns="http://www.w3.org/2000/svg">
<path d="M60 0H20C17.0547 0 14.6667 2.388 14.6667 5.33333V74.6667C14.6667 77.612 17.0547 80 20 80H60C62.9454 80 65.3334 77.612 65.3334 74.6667V5.33333C65.3334 2.388 62.9454 0 60 0ZM60 77.3333H20C18.5267 77.3333 17.3334 76.14 17.3334 74.6667V66.6667H56C56.736 66.6667 57.3334 66.0693 57.3334 65.3333C57.3334 64.5973 56.736 64 56 64H17.3334V5.33333C17.3334 3.86 18.5267 2.66667 20 2.66667H60C61.4734 2.66667 62.6667 3.86 62.6667 5.33333V13.3333H24C23.264 13.3333 22.6667 13.9307 22.6667 14.6667C22.6667 15.4027 23.264 16 24 16H62.6667V74.6667C62.6667 76.14 61.4734 77.3333 60 77.3333Z" fill="#505269"/>
<path d="M40 69.3334C38.5266 69.3334 37.3333 70.5267 37.3333 72C37.3333 73.4734 38.5266 74.6667 40 74.6667C41.4733 74.6667 42.6666 73.4734 42.6666 72C42.6666 70.5267 41.4733 69.3334 40 69.3334ZM44 6.66669H36C35.264 6.66669 34.6666 7.26402 34.6666 8.00002C34.6666 8.73602 35.264 9.33335 36 9.33335H44C44.736 9.33335 45.3333 8.73602 45.3333 8.00002C45.3333 7.26402 44.736 6.66669 44 6.66669ZM24.856 28.9534L30.2866 23.5227C30.7866 23.0227 30.7866 22.212 30.2866 21.712C29.7866 21.212 28.976 21.212 28.476 21.712L23.0453 27.1427C22.5453 27.6427 22.5453 28.4534 23.0453 28.9534C23.5466 29.4534 24.356 29.4534 24.856 28.9534ZM38.2866 21.7134C37.7866 21.2134 36.976 21.2134 36.476 21.7134L23.0466 35.144C22.5466 35.644 22.5466 36.4547 23.0466 36.9547C23.5466 37.4547 24.3573 37.4547 24.8573 36.9547L38.288 23.524C38.7866 23.0227 38.7866 22.2134 38.2866 21.7134Z" fill="#505269"/>
</svg>
