<svg width="80" height="80" viewBox="0 0 80 80" fill="none" xmlns="http://www.w3.org/2000/svg">
<path d="M79.97 12.3475C79.9588 12.2613 79.9475 12.1788 79.9188 12.0963C79.8938 12.0225 79.8575 11.9575 79.82 11.8912C79.7787 11.8175 79.7363 11.7487 79.68 11.6838C79.6287 11.625 79.57 11.5788 79.5075 11.5312C79.4625 11.495 79.4313 11.4475 79.38 11.4175L62.03 0.2775C62 0.25375 61.9688 0.23875 61.9375 0.2175L61.8587 0.1675C61.8462 0.16 61.8325 0.16125 61.82 0.15375C61.7688 0.1275 61.72 0.1025 61.665 0.08375C61.6 0.06125 61.535 0.04625 61.4675 0.035C61.4188 0.025 61.3713 0.0175 61.3213 0.015C61.2962 0.0125 61.275 0 61.25 0C61.225 0 61.2038 0.0125 61.1787 0.01375C61.1287 0.0175 61.0825 0.025 61.0325 0.03375C60.9637 0.045 60.9 0.06 60.835 0.0825C60.78 0.1025 60.7312 0.12625 60.68 0.1525C60.6675 0.15875 60.6538 0.15875 60.6413 0.16625L40 11.0837L19.3588 0.1675C19.3463 0.16 19.3325 0.16125 19.32 0.15375C19.2688 0.1275 19.22 0.1025 19.165 0.08375C19.1 0.06125 19.035 0.04625 18.9675 0.035C18.9175 0.025 18.8713 0.0175 18.8213 0.015C18.7962 0.0125 18.775 0 18.75 0C18.725 0 18.7038 0.0125 18.6787 0.01375C18.6287 0.0175 18.5825 0.025 18.5325 0.03375C18.4638 0.045 18.4 0.06 18.335 0.0825C18.28 0.1025 18.2312 0.12625 18.18 0.1525C18.1675 0.15875 18.1537 0.15875 18.1412 0.16625L18.0625 0.21625C18.0312 0.23625 18 0.2525 17.97 0.275L0.62 11.4175C0.56875 11.4475 0.5375 11.495 0.4925 11.5312C0.43 11.58 0.3725 11.625 0.32125 11.6838C0.26375 11.7487 0.2225 11.8175 0.18 11.8912C0.1425 11.9575 0.10625 12.0225 0.08125 12.095C0.05375 12.1787 0.04125 12.2613 0.03125 12.3475C0.02375 12.4 0 12.4462 0 12.5V78.75C0 78.7763 0.01375 78.7988 0.015 78.825C0.02 78.9088 0.0425 78.9875 0.06375 79.0687C0.085 79.15 0.105 79.2275 0.14125 79.3013C0.1525 79.325 0.1525 79.3512 0.16625 79.375C0.195 79.425 0.24125 79.4563 0.27625 79.5013C0.325 79.565 0.37125 79.625 0.43125 79.6775C0.49875 79.7375 0.57125 79.7812 0.64875 79.825C0.71 79.86 0.7675 79.8925 0.835 79.9162C0.9225 79.9475 1.01125 79.96 1.10375 79.97C1.15375 79.9762 1.19875 80 1.25 80C1.275 80 1.29625 79.9875 1.32125 79.9863C1.39375 79.9812 1.4625 79.9613 1.535 79.9438C1.635 79.92 1.73125 79.8937 1.82 79.8475C1.8325 79.8412 1.84625 79.8412 1.85875 79.8337L18.8112 68.9488L39.3913 79.8337C39.4038 79.8412 39.4175 79.84 39.43 79.8475C39.4813 79.8737 39.53 79.8988 39.585 79.9175C39.65 79.94 39.715 79.955 39.7825 79.9662C39.8325 79.9762 39.8787 79.9837 39.9287 79.9863C39.9538 79.9875 39.975 80 40 80C40.025 80 40.0462 79.9875 40.0713 79.9863C40.1213 79.9825 40.1675 79.975 40.2175 79.9662C40.2863 79.955 40.35 79.94 40.415 79.9175C40.47 79.8975 40.5188 79.8737 40.57 79.8475C40.5825 79.8412 40.5962 79.8412 40.6087 79.8337L61.1888 68.9488L78.1413 79.8337C78.1537 79.8412 78.1675 79.84 78.18 79.8475C78.2687 79.8937 78.365 79.92 78.465 79.9438C78.5375 79.9613 78.6063 79.9825 78.6787 79.9863C78.7038 79.9875 78.725 80 78.75 80C78.8025 80 78.8463 79.9762 78.8962 79.97C78.9888 79.96 79.0762 79.9475 79.165 79.9162C79.2325 79.8925 79.29 79.8587 79.3512 79.825C79.4287 79.7825 79.5013 79.7375 79.5687 79.6775C79.6287 79.625 79.675 79.5638 79.7237 79.5013C79.7588 79.4563 79.805 79.4262 79.8337 79.375C79.8475 79.3512 79.8463 79.325 79.8587 79.3013C79.895 79.2275 79.915 79.1488 79.9362 79.0687C79.9575 78.9863 79.9812 78.9088 79.985 78.825C79.9863 78.7988 80 78.7763 80 78.75V12.5C80 12.4462 79.9762 12.4 79.97 12.3475ZM17.5 66.8288L2.5 76.46V13.1712L17.5 3.54V66.8288ZM38.75 36.9137L35.37 40.2938C34.8625 40.8013 34.8625 41.6237 35.37 42.13C35.8775 42.6375 36.7 42.6375 37.2062 42.13L38.75 40.5863V76.6725L20 66.7562V3.32625L38.75 13.2425V36.9137ZM60 66.7562L41.25 76.6725V37.5913C41.2513 37.555 41.2513 37.5213 41.25 37.485V13.2438L60 3.3275V66.7562ZM77.5 31.88L74.7175 29.0987C74.2113 28.5925 73.3925 28.5925 72.8862 29.0987C72.38 29.605 72.38 30.425 72.8862 30.93L76.5488 34.5925C76.8112 34.855 77.1562 34.975 77.4987 34.965V76.4613L62.4987 66.83V3.54L77.4987 13.1712V31.88H77.5ZM24.1525 53.3475C24.6625 53.8575 25.49 53.8575 26 53.3475L28.7712 50.5762L31.5425 53.3475C32.0525 53.8575 32.88 53.8575 33.39 53.3475C33.9 52.8375 33.9 52.01 33.39 51.5L30.6188 48.7288L33.3888 45.9587C33.8988 45.4487 33.8988 44.6213 33.3888 44.1113C32.8787 43.6013 32.0513 43.6013 31.5413 44.1113L28.7712 46.8813L26.0013 44.1113C25.4913 43.6013 24.6637 43.6013 24.1537 44.1113C23.6437 44.6213 23.6437 45.4487 24.1537 45.9587L26.9237 48.7288L24.1525 51.5C23.6425 52.01 23.6425 52.8375 24.1525 53.3475ZM45.9575 34.63L49.6313 30.9562C50.1388 30.4487 50.1388 29.6262 49.6313 29.12C49.1238 28.6125 48.3013 28.6125 47.795 29.12L44.1213 32.7938C43.6138 33.3013 43.6138 34.1237 44.1213 34.63C44.6287 35.1375 45.4512 35.1375 45.9575 34.63ZM53.4575 27.13L57.1313 23.4562C57.6388 22.9487 57.6388 22.1262 57.1313 21.62C56.6238 21.1125 55.8013 21.1125 55.295 21.62L51.6213 25.2938C51.1138 25.8013 51.1138 26.6238 51.6213 27.13C52.1287 27.6375 52.9512 27.6375 53.4575 27.13ZM69.0725 27.1138C69.5788 27.62 70.3988 27.62 70.9037 27.1138C71.41 26.6075 71.41 25.7875 70.9037 25.2825L67.2412 21.62C66.735 21.1137 65.915 21.1137 65.41 21.62C64.905 22.1262 64.9037 22.9462 65.41 23.4513L69.0725 27.1138Z" fill="white"/>
</svg>
