<svg width="40" height="40" viewBox="0 0 40 40" fill="none" xmlns="http://www.w3.org/2000/svg">
<g clip-path="url(#clip0)">
<path fill-rule="evenodd" clip-rule="evenodd" d="M40 20.0228C40 19.6555 39.7791 19.3428 39.4655 19.1991H39.5145C34.7136 14.1682 27.5036 9.97278 20 9.97278C12.4964 9.97278 5.28636 14.1682 0.485455 19.1991H0.534545C0.220909 19.3428 0 19.6555 0 20.0228C0 20.391 0.220909 20.7037 0.534545 20.8464H0.485455C5.29364 25.8791 12.4845 30.0273 20 30.0273C27.5155 30.0273 34.7345 25.8791 39.5427 20.8464H39.4655C39.7791 20.7037 40 20.3919 40 20.0228ZM36.8909 20.8782C32.5318 24.8019 26.3291 28.2082 20 28.2082C13.6536 28.2082 7.46273 24.7891 3.10091 20.8464L2.27455 20.0328L3.34 19.0191L3.32455 19.0028C7.66636 15.1755 13.77 11.7891 20 11.7891C26.3318 11.7891 32.5391 15.2537 36.8927 19.191L37.7091 20.0182L36.8909 20.8782ZM20 13.6564C16.4855 13.6564 13.6364 16.5055 13.6364 20.0201C13.6364 23.5346 16.4855 26.3837 20 26.3837C23.5145 26.3837 26.3636 23.5346 26.3636 20.0201C26.3636 16.5055 23.5145 13.6564 20 13.6564ZM20 24.5655C17.4891 24.5655 15.4545 22.531 15.4545 20.0201C15.4545 17.5091 17.4891 15.4746 20 15.4746C22.5109 15.4746 24.5455 17.5091 24.5455 20.0201C24.5455 22.531 22.5109 24.5655 20 24.5655Z" fill="#EF4C23"/>
</g>
<defs>
<clipPath id="clip0">
<rect width="40" height="40" fill="white"/>
</clipPath>
</defs>
</svg>
